{"glyphs":{"0":{"ha":856,"x_min":82,"x_max":774,"o":"m 428 -17 q 262 27 332 -17 q 154 146 192 71 q 99 305 117 221 q 82 486 82 389 q 91 624 82 558 q 124 758 100 690 q 187 876 149 826 q 287 958 225 926 q 428 989 349 989 q 594 945 524 989 q 701 826 664 901 q 756 667 739 751 q 774 486 774 583 q 765 348 774 414 q 731 214 756 282 q 668 96 706 146 q 569 15 631 46 q 428 -17 507 -17 m 428 117 q 528 149 486 117 q 590 239 569 182 q 619 356 610 296 q 628 486 628 415 q 618 622 628 560 q 588 739 608 683 q 526 826 567 794 q 428 857 485 857 q 328 824 369 857 q 265 734 286 790 q 235 617 244 678 q 226 486 226 556 q 242 307 226 385 q 306 173 258 229 q 428 117 353 117 m 495 419 q 482 406 495 419 q 428 392 468 392 q 360 419 388 392 q 333 486 333 447 q 360 553 333 525 q 428 581 388 581 q 495 553 468 581 q 522 486 522 525 q 495 419 522 447 z "},"1":{"ha":856,"x_min":117,"x_max":739,"o":"m 501 138 l 739 138 l 739 0 l 117 0 l 117 138 l 358 138 l 358 789 l 146 724 l 146 860 l 501 975 l 501 138 z "},"2":{"ha":856,"x_min":114,"x_max":742,"o":"m 114 0 q 138 175 114 97 q 208 310 161 253 q 301 407 254 368 q 417 488 349 446 q 503 550 474 526 q 561 617 533 574 q 589 707 589 660 q 548 815 589 774 q 438 857 507 857 q 249 724 292 857 l 121 781 q 238 931 153 874 q 436 989 324 989 q 653 911 574 989 q 733 708 733 833 q 715 594 733 644 q 655 501 696 543 q 578 433 614 458 q 479 367 543 407 q 340 257 392 311 q 276 138 288 203 l 742 138 l 742 0 l 114 0 z "},"3":{"ha":856,"x_min":104,"x_max":751,"o":"m 426 -17 q 104 211 189 -17 l 235 264 q 429 118 296 118 q 557 159 507 118 q 607 275 607 200 q 560 394 607 350 q 424 439 513 439 l 343 439 l 343 572 l 417 572 q 528 611 486 572 q 571 715 571 650 q 531 817 571 778 q 428 856 490 856 q 264 736 318 856 l 133 786 q 246 933 171 876 q 428 989 321 989 q 634 916 553 989 q 715 731 715 843 q 683 608 715 664 q 594 519 650 553 q 708 428 665 492 q 751 276 751 364 q 659 64 751 144 q 426 -17 567 -17 z "},"4":{"ha":856,"x_min":67,"x_max":793,"o":"m 524 0 l 524 229 l 67 229 l 67 314 l 536 972 l 664 972 l 664 357 l 793 357 l 793 229 l 664 229 l 664 0 l 524 0 m 524 357 l 524 757 l 251 357 l 524 357 z "},"5":{"ha":856,"x_min":107,"x_max":749,"o":"m 400 -17 q 226 15 301 -17 q 107 92 150 47 l 186 201 q 399 117 285 117 q 547 173 489 117 q 604 317 604 229 q 560 451 604 400 q 440 503 517 503 q 268 422 339 503 l 140 476 l 193 972 l 693 972 l 693 839 l 318 839 l 285 581 q 454 638 354 638 q 669 548 589 638 q 749 321 749 458 q 651 81 749 178 q 400 -17 554 -17 z "},"6":{"ha":856,"x_min":94,"x_max":761,"o":"m 432 -17 q 183 89 271 -17 q 94 360 94 194 q 236 764 94 588 q 626 989 378 940 l 626 863 q 403 744 503 832 q 272 542 303 657 q 458 610 336 610 q 675 520 589 610 q 761 303 761 431 q 667 74 761 165 q 432 -17 574 -17 m 429 117 q 567 166 514 117 q 621 296 621 215 q 568 428 621 378 q 429 479 515 479 q 292 428 346 479 q 238 296 238 376 q 292 167 238 217 q 429 117 347 117 z "},"7":{"ha":856,"x_min":115,"x_max":740,"o":"m 115 972 l 740 972 l 740 858 q 559 564 629 732 q 467 262 489 396 q 444 0 444 128 l 301 0 q 366 444 303 242 q 576 840 429 646 l 115 840 l 115 972 z "},"8":{"ha":856,"x_min":86,"x_max":769,"o":"m 674 68 q 627 26 674 68 q 428 -17 579 -17 q 181 68 276 -17 q 86 283 86 153 q 133 436 86 369 q 260 535 181 503 q 165 615 201 563 q 128 735 128 668 q 211 917 128 844 q 428 989 294 989 q 644 916 560 989 q 728 735 728 843 q 691 615 728 668 q 594 536 654 563 q 722 437 674 504 q 769 283 769 369 q 674 68 769 153 m 428 590 q 542 627 499 590 q 585 722 585 664 q 541 824 585 785 q 428 863 497 863 q 315 824 358 863 q 271 722 271 786 q 313 627 271 664 q 428 590 356 590 m 428 113 q 569 162 514 113 q 625 292 625 211 q 569 420 625 368 q 428 472 514 472 q 285 420 340 472 q 231 292 231 368 q 285 161 231 210 q 428 113 340 113 z "},"9":{"ha":856,"x_min":94,"x_max":761,"o":"m 251 -17 l 251 111 q 475 221 379 133 q 599 440 571 308 q 400 367 529 367 q 181 453 268 367 q 94 672 94 539 q 190 900 94 811 q 431 989 285 989 q 678 885 594 989 q 761 613 761 782 q 626 188 761 363 q 251 -17 490 14 m 426 494 q 566 545 513 494 q 619 678 619 596 q 565 807 619 756 q 428 858 511 858 q 288 808 340 858 q 235 678 235 757 q 287 544 235 594 q 426 494 339 494 z "},"\u0000":{"ha":856,"x_min":0,"x_max":0,"o":""}," ":{"ha":856,"x_min":0,"x_max":0,"o":""},"!":{"ha":856,"x_min":324,"x_max":532,"o":"m 389 268 l 358 682 l 358 989 l 499 989 l 499 682 l 468 268 l 389 268 m 428 -18 q 353 13 383 -18 q 324 85 324 43 q 353 158 324 128 q 428 189 383 189 q 501 158 471 189 q 532 85 532 126 q 501 13 532 43 q 428 -18 471 -18 z "},"\"":{"ha":856,"x_min":211,"x_max":644,"o":"m 211 972 l 381 972 l 351 585 l 239 585 l 211 972 m 475 972 l 644 972 l 615 585 l 503 585 l 475 972 z "},"#":{"ha":856,"x_min":15,"x_max":840,"o":"m 135 0 l 175 264 l 15 264 l 35 386 l 193 386 l 226 607 l 72 607 l 90 728 l 244 728 l 282 972 l 408 972 l 371 728 l 554 728 l 592 972 l 718 972 l 681 728 l 840 728 l 822 607 l 663 607 l 628 386 l 783 386 l 764 264 l 610 264 l 569 0 l 443 0 l 483 264 l 301 264 l 261 0 l 135 0 m 319 386 l 501 386 l 536 607 l 353 607 l 319 386 z "},"$":{"ha":856,"x_min":106,"x_max":750,"o":"m 363 -132 l 363 -8 q 201 69 268 10 q 106 214 135 128 l 236 263 q 319 157 265 196 q 442 118 372 118 q 560 156 517 118 q 604 265 604 194 q 553 376 604 333 q 410 456 501 419 q 331 488 361 475 q 260 528 301 501 q 196 581 219 554 q 155 651 172 608 q 138 744 138 693 q 197 900 138 833 q 363 983 257 967 l 363 1093 l 503 1093 l 503 982 q 636 917 583 965 q 708 800 689 868 l 579 757 q 521 828 561 800 q 421 856 481 856 q 321 826 357 856 q 285 746 285 797 q 331 656 285 690 q 469 586 378 622 q 549 553 517 568 q 623 510 582 538 q 689 451 664 482 q 732 372 714 419 q 750 267 750 324 q 682 78 750 150 q 503 -11 614 6 l 503 -132 l 363 -132 z "},"%":{"ha":856,"x_min":15,"x_max":842,"o":"m 154 -17 l 33 -17 l 697 989 l 817 989 l 154 -17 m 217 515 q 65 582 115 515 q 15 739 15 649 q 65 892 15 824 q 217 961 115 961 q 368 895 318 961 q 418 739 418 829 q 400 638 418 686 q 335 553 382 590 q 217 515 288 515 m 217 603 q 294 642 267 603 q 321 739 321 681 q 294 837 321 800 q 217 874 267 874 q 139 835 165 874 q 113 739 113 797 q 139 640 113 676 q 217 603 165 603 m 792 80 q 768 45 792 80 q 640 11 743 11 q 488 78 538 11 q 439 235 439 144 q 489 388 439 319 q 640 457 539 457 q 792 391 742 457 q 842 235 842 325 q 792 80 842 149 m 640 99 q 717 138 690 99 q 744 235 744 176 q 717 333 744 296 q 640 369 690 369 q 563 331 589 369 q 536 235 536 293 q 562 135 536 172 q 640 99 588 99 z "},"&":{"ha":856,"x_min":14,"x_max":842,"o":"m 842 0 l 664 0 l 585 100 q 297 -17 464 -17 q 92 57 169 -17 q 14 251 14 131 q 71 420 14 354 q 231 546 128 486 q 152 672 176 619 q 128 776 128 724 q 194 932 128 875 q 364 989 261 989 q 531 929 465 989 q 596 774 596 869 q 549 635 596 693 q 421 524 503 576 l 581 325 q 613 465 608 396 l 747 465 q 672 210 740 328 l 842 0 m 258 778 q 278 710 258 744 q 347 613 297 675 q 435 686 404 650 q 465 771 465 722 q 435 848 465 819 q 360 876 406 876 q 286 850 314 876 q 258 778 258 824 m 319 114 q 504 201 424 114 l 304 453 q 192 363 231 406 q 154 261 154 319 q 199 155 154 196 q 319 114 244 114 z "},"'":{"ha":856,"x_min":343,"x_max":513,"o":"m 343 972 l 513 972 l 483 585 l 371 585 l 343 972 z "},"(":{"ha":856,"x_min":268,"x_max":672,"o":"m 521 -181 q 268 394 268 42 q 345 742 268 589 q 536 989 422 894 l 672 989 q 597 909 638 960 q 510 783 556 858 q 436 603 465 707 q 407 394 407 500 q 435 188 407 288 q 508 15 463 89 q 588 -103 553 -58 q 657 -181 622 -147 l 521 -181 z "},")":{"ha":856,"x_min":185,"x_max":589,"o":"m 200 -181 q 269 -103 235 -147 q 349 15 303 -60 q 422 188 394 89 q 450 394 450 288 q 420 603 450 500 q 345 783 390 707 q 260 908 300 858 q 185 989 219 958 l 321 989 q 512 742 435 894 q 589 394 589 589 q 336 -181 589 42 l 200 -181 z "},"*":{"ha":856,"x_min":106,"x_max":750,"o":"m 306 160 l 197 232 l 283 364 l 358 433 l 257 410 l 106 410 l 106 542 l 257 542 l 358 519 l 285 588 l 199 719 l 307 792 l 403 647 l 428 554 l 454 647 l 550 792 l 658 719 l 572 588 l 497 519 l 599 542 l 750 542 l 750 410 l 599 410 l 497 433 l 572 364 l 658 232 l 550 160 l 454 304 l 428 399 l 401 304 l 306 160 z "},"+":{"ha":856,"x_min":101,"x_max":754,"o":"m 497 408 l 497 150 l 357 150 l 357 408 l 101 408 l 101 543 l 357 543 l 357 803 l 497 803 l 497 543 l 754 543 l 754 408 l 497 408 z "},",":{"ha":856,"x_min":322,"x_max":535,"o":"m 388 -251 l 322 -217 q 411 -19 401 -125 q 349 13 372 -12 q 325 79 325 39 q 356 153 325 125 q 428 182 386 182 q 504 149 474 182 q 535 54 535 115 q 490 -126 535 -42 q 388 -251 444 -210 z "},"-":{"ha":856,"x_min":101,"x_max":754,"o":"m 101 346 l 101 479 l 754 479 l 754 346 l 101 346 z "},".":{"ha":856,"x_min":325,"x_max":531,"o":"m 501 12 q 486 -3 501 12 q 428 -18 471 -18 q 355 12 385 -18 q 325 83 325 42 q 355 155 325 125 q 428 185 385 185 q 501 155 471 185 q 531 83 531 125 q 501 12 531 42 z "},"/":{"ha":856,"x_min":85,"x_max":771,"o":"m 85 -181 l 631 989 l 771 989 l 225 -181 l 85 -181 z "},":":{"ha":856,"x_min":325,"x_max":531,"o":"m 501 501 q 486 486 501 501 q 428 471 471 471 q 355 501 385 471 q 325 572 325 531 q 355 644 325 614 q 428 674 385 674 q 501 644 471 674 q 531 572 531 614 q 501 501 531 531 m 501 12 q 486 -3 501 12 q 428 -18 471 -18 q 355 12 385 -18 q 325 83 325 42 q 355 155 325 125 q 428 185 385 185 q 501 155 471 185 q 531 83 531 125 q 501 12 531 42 z "},";":{"ha":856,"x_min":322,"x_max":535,"o":"m 501 501 q 486 486 501 501 q 428 471 471 471 q 355 501 385 471 q 325 572 325 531 q 355 644 325 614 q 428 674 385 674 q 501 644 471 674 q 531 572 531 614 q 501 501 531 531 m 388 -251 l 322 -217 q 411 -19 401 -125 q 349 13 372 -12 q 325 79 325 39 q 356 153 325 125 q 428 182 386 182 q 504 149 474 182 q 535 54 535 115 q 490 -126 535 -42 q 388 -251 444 -210 z "},"<":{"ha":856,"x_min":101,"x_max":754,"o":"m 754 157 l 101 421 l 101 540 l 754 806 l 754 665 l 290 482 l 754 297 l 754 157 z "},"=":{"ha":856,"x_min":101,"x_max":754,"o":"m 101 567 l 101 704 l 754 704 l 754 567 l 101 567 m 101 249 l 101 386 l 754 386 l 754 249 l 101 249 z "},">":{"ha":856,"x_min":101,"x_max":754,"o":"m 754 425 l 101 160 l 101 300 l 567 485 l 101 669 l 101 810 l 754 544 l 754 425 z "},"?":{"ha":856,"x_min":122,"x_max":735,"o":"m 351 250 l 351 290 q 376 418 351 363 q 437 507 401 474 q 508 570 472 540 q 569 638 544 600 q 594 722 594 676 q 553 819 594 781 q 438 857 511 857 q 306 810 353 857 q 258 681 258 763 l 122 681 q 208 905 122 821 q 438 989 293 989 q 656 913 576 989 q 735 721 735 838 q 710 606 735 656 q 649 524 685 556 q 578 462 614 492 q 517 389 542 432 q 492 290 492 346 l 492 250 l 351 250 m 494 12 q 479 -3 494 12 q 421 -18 464 -18 q 349 12 378 -18 q 319 83 319 42 q 349 155 319 125 q 421 185 378 185 q 494 155 464 185 q 524 83 524 125 q 494 12 524 42 z "},"@":{"ha":856,"x_min":43,"x_max":813,"o":"m 431 -17 q 151 113 260 -17 q 43 468 43 242 q 160 841 43 693 q 446 989 278 989 q 711 872 610 989 q 813 574 813 754 q 753 322 813 422 q 608 221 694 221 q 547 244 574 221 q 511 310 519 268 q 388 215 469 215 q 275 281 319 215 q 231 453 231 347 q 288 651 231 563 q 433 740 344 740 q 539 644 517 740 l 549 722 l 638 722 l 597 438 q 589 369 589 390 q 624 322 589 322 q 697 393 667 322 q 726 575 726 464 q 649 812 726 722 q 450 901 572 901 q 224 778 313 901 q 135 467 135 656 q 216 182 135 289 q 436 75 297 75 q 588 101 515 75 l 564 -1 q 431 -17 500 -17 m 406 315 q 485 372 454 315 q 515 506 515 429 q 493 603 515 567 q 438 640 471 640 q 356 585 388 640 q 325 450 325 529 q 347 352 325 389 q 406 315 368 315 z "},"A":{"ha":856,"x_min":44,"x_max":813,"o":"m 661 0 l 592 226 l 265 226 l 197 0 l 44 0 l 363 972 l 492 972 l 813 0 l 661 0 m 306 356 l 551 356 l 453 678 q 428 779 438 728 q 403 678 418 728 l 306 356 z "},"B":{"ha":856,"x_min":119,"x_max":764,"o":"m 119 0 l 119 972 l 424 972 q 657 899 585 972 q 729 715 729 825 q 594 513 729 571 q 719 426 674 488 q 764 281 764 364 q 687 82 764 164 q 444 0 610 0 l 119 0 m 263 569 l 400 569 q 541 606 493 569 q 589 708 589 643 q 429 842 589 842 l 263 842 l 263 569 m 263 132 l 457 132 q 585 174 547 132 q 624 276 624 215 q 415 439 624 439 l 263 439 l 263 132 z "},"C":{"ha":856,"x_min":78,"x_max":744,"o":"m 453 -17 q 280 26 354 -17 q 163 142 206 69 q 99 302 119 215 q 78 486 78 389 q 99 669 78 582 q 165 828 121 756 q 283 945 208 901 q 453 989 357 989 q 633 935 563 989 q 738 800 703 882 l 610 738 q 544 824 579 794 q 453 854 508 854 q 320 795 374 854 q 247 657 267 736 q 226 486 226 578 q 285 227 226 336 q 453 118 343 118 q 615 243 557 118 l 744 193 q 453 -17 658 -17 z "},"D":{"ha":856,"x_min":119,"x_max":778,"o":"m 119 0 l 119 972 l 356 972 q 518 944 446 972 q 638 871 590 917 q 718 762 686 825 q 764 630 750 699 q 778 486 778 561 q 765 350 778 415 q 722 219 753 285 q 643 107 690 154 q 520 30 596 60 q 350 0 444 0 l 119 0 m 261 133 l 361 133 q 489 165 435 133 q 573 249 543 196 q 617 360 603 301 q 631 486 631 419 q 567 737 631 633 q 376 840 503 840 l 261 840 l 261 133 z "},"E":{"ha":856,"x_min":119,"x_max":746,"o":"m 119 0 l 119 972 l 715 972 l 715 838 l 263 838 l 263 569 l 564 569 l 564 435 l 263 435 l 263 136 l 746 136 l 746 0 l 119 0 z "},"F":{"ha":856,"x_min":119,"x_max":753,"o":"m 119 0 l 119 972 l 753 972 l 753 838 l 263 838 l 263 569 l 613 569 l 613 435 l 263 435 l 263 0 l 119 0 z "},"G":{"ha":856,"x_min":81,"x_max":760,"o":"m 447 -17 q 240 58 325 -17 q 117 242 154 132 q 81 486 81 353 q 119 728 81 617 q 243 915 157 840 q 447 989 329 989 q 621 940 556 989 q 732 807 686 892 l 606 735 q 447 856 540 856 q 319 797 371 856 q 248 658 268 738 q 228 486 228 578 q 284 225 228 332 q 447 118 340 118 q 569 173 526 118 q 613 318 613 228 l 613 351 l 440 351 l 440 483 l 760 483 l 760 358 q 672 83 760 182 q 447 -17 585 -17 z "},"H":{"ha":856,"x_min":119,"x_max":736,"o":"m 119 0 l 119 972 l 263 972 l 263 571 l 594 571 l 594 972 l 736 972 l 736 0 l 594 0 l 594 436 l 263 436 l 263 0 l 119 0 z "},"I":{"ha":856,"x_min":144,"x_max":713,"o":"m 713 844 l 499 844 l 499 128 l 713 128 l 713 0 l 144 0 l 144 128 l 357 128 l 357 844 l 144 844 l 144 972 l 713 972 l 713 844 z "},"J":{"ha":856,"x_min":124,"x_max":732,"o":"m 418 -17 q 124 174 206 -17 l 243 232 q 312 145 274 172 q 418 118 350 118 q 540 165 492 118 q 589 324 589 211 l 589 972 l 732 972 l 732 324 q 703 156 732 226 q 626 51 675 86 q 526 -1 578 15 q 418 -17 475 -17 z "},"K":{"ha":856,"x_min":119,"x_max":797,"o":"m 633 0 l 364 508 l 263 382 l 263 0 l 119 0 l 119 972 l 263 972 l 263 581 l 569 972 l 735 972 l 460 629 l 797 0 l 633 0 z "},"L":{"ha":856,"x_min":119,"x_max":718,"o":"m 119 0 l 119 972 l 263 972 l 263 138 l 718 138 l 718 0 l 119 0 z "},"M":{"ha":856,"x_min":119,"x_max":736,"o":"m 119 0 l 119 972 l 264 972 l 407 415 q 429 317 425 347 q 451 415 436 364 l 597 972 l 736 972 l 736 0 l 610 0 l 610 569 q 613 653 610 629 q 601 615 610 644 q 589 569 593 586 l 436 0 l 419 0 l 267 569 q 243 653 265 575 q 246 569 246 606 l 246 0 l 119 0 z "},"N":{"ha":856,"x_min":119,"x_max":736,"o":"m 119 0 l 119 972 l 257 972 l 575 332 q 604 272 594 296 q 601 332 601 325 l 601 972 l 736 972 l 736 0 l 604 0 l 282 638 q 273 656 279 643 q 261 679 267 668 q 251 699 256 690 q 254 639 254 676 l 254 0 l 119 0 z "},"O":{"ha":856,"x_min":78,"x_max":778,"o":"m 428 -17 q 268 26 338 -17 q 158 140 199 68 q 98 300 118 213 q 78 486 78 388 q 98 672 78 585 q 158 832 118 760 q 268 947 199 904 q 428 989 338 989 q 589 947 519 989 q 699 832 658 904 q 758 672 739 760 q 778 486 778 585 q 758 300 778 388 q 699 140 739 213 q 589 26 658 68 q 428 -17 519 -17 m 428 118 q 544 174 496 118 q 611 310 592 229 q 631 486 631 390 q 581 751 631 646 q 428 856 531 856 q 313 799 360 856 q 246 663 265 743 q 226 486 226 582 q 276 223 226 328 q 428 118 326 118 z "},"P":{"ha":856,"x_min":119,"x_max":761,"o":"m 119 0 l 119 972 l 442 972 q 684 887 607 972 q 761 676 761 801 q 681 470 761 560 q 442 381 601 381 l 263 381 l 263 0 l 119 0 m 263 513 l 450 513 q 576 561 535 513 q 617 676 617 610 q 578 790 617 740 q 450 840 539 840 l 263 840 l 263 513 z "},"Q":{"ha":856,"x_min":78,"x_max":778,"o":"m 778 486 q 642 68 778 203 l 715 -42 l 613 -112 l 536 1 q 428 -17 490 -17 q 268 26 338 -17 q 158 140 199 68 q 98 300 118 213 q 78 486 78 388 q 98 672 78 585 q 158 832 118 760 q 268 947 199 904 q 428 989 338 989 q 589 947 519 989 q 699 832 658 904 q 758 672 739 760 q 778 486 778 585 m 428 118 q 456 121 439 118 l 389 219 l 494 290 l 560 193 q 631 486 631 296 q 581 751 631 646 q 428 856 531 856 q 313 799 360 856 q 246 663 265 743 q 226 486 226 582 q 276 223 226 328 q 428 118 326 118 z "},"R":{"ha":856,"x_min":119,"x_max":749,"o":"m 749 688 q 697 517 749 593 q 544 413 646 442 l 746 0 l 588 0 l 393 399 l 263 399 l 263 0 l 119 0 l 119 972 l 436 972 q 675 892 601 972 q 749 688 749 811 m 263 840 l 263 532 l 439 532 q 566 576 526 532 q 606 685 606 619 q 567 794 606 747 q 439 840 529 840 l 263 840 z "},"S":{"ha":856,"x_min":108,"x_max":744,"o":"m 438 -17 q 233 48 322 -17 q 108 215 144 113 l 240 264 q 324 157 269 197 q 447 117 379 117 q 559 154 518 117 q 600 263 600 192 q 547 370 600 325 q 403 456 494 415 q 308 501 344 481 q 228 557 272 522 q 162 638 183 592 q 140 742 140 683 q 219 917 140 846 q 426 989 297 989 q 603 936 529 989 q 701 800 678 883 l 572 757 q 513 828 553 800 q 419 857 474 857 q 322 826 360 857 q 285 742 285 794 q 298 692 285 714 q 340 649 311 669 q 393 617 369 629 q 463 585 417 606 q 467 583 465 583 q 471 581 468 582 q 475 579 474 581 q 569 530 531 553 q 653 469 608 507 q 721 381 697 432 q 744 267 744 329 q 657 60 744 136 q 438 -17 569 -17 z "},"T":{"ha":856,"x_min":75,"x_max":781,"o":"m 357 0 l 357 836 l 75 836 l 75 972 l 781 972 l 781 836 l 499 836 l 499 0 l 357 0 z "},"U":{"ha":856,"x_min":107,"x_max":749,"o":"m 428 -17 q 194 76 282 -17 q 107 369 107 168 l 107 972 l 250 972 l 250 369 q 428 118 250 118 q 607 369 607 118 l 607 972 l 749 972 l 749 369 q 662 76 749 169 q 428 -17 575 -17 z "},"V":{"ha":856,"x_min":44,"x_max":811,"o":"m 364 0 l 44 972 l 200 972 l 408 281 q 428 197 417 251 q 446 281 442 265 l 656 972 l 811 972 l 493 0 l 364 0 z "},"W":{"ha":856,"x_min":36,"x_max":819,"o":"m 185 0 l 36 972 l 167 972 l 251 363 l 260 297 q 272 363 264 331 l 385 972 l 472 972 l 586 367 q 599 306 594 332 q 603 338 600 318 q 606 365 606 358 l 683 972 l 819 972 l 671 0 l 557 0 l 439 617 q 428 683 435 636 q 417 618 425 663 l 299 0 l 185 0 z "},"X":{"ha":856,"x_min":65,"x_max":790,"o":"m 790 0 l 628 0 l 425 372 l 226 0 l 65 0 l 353 503 l 86 972 l 249 972 l 428 640 l 606 972 l 767 972 l 501 510 l 790 0 z "},"Y":{"ha":856,"x_min":75,"x_max":782,"o":"m 626 972 l 782 972 l 500 382 l 500 0 l 358 0 l 358 382 l 75 972 l 233 972 l 429 529 l 626 972 z "},"Z":{"ha":856,"x_min":107,"x_max":750,"o":"m 750 972 l 750 865 l 290 135 l 747 135 l 747 0 l 107 0 l 107 106 l 564 838 l 139 838 l 139 972 l 750 972 z "},"[":{"ha":856,"x_min":299,"x_max":632,"o":"m 299 -181 l 299 989 l 632 989 l 632 858 l 438 858 l 438 -50 l 632 -50 l 632 -181 l 299 -181 z "},"\\":{"ha":856,"x_min":115,"x_max":801,"o":"m 661 -181 l 115 989 l 256 989 l 801 -181 l 661 -181 z "},"]":{"ha":856,"x_min":285,"x_max":618,"o":"m 618 -181 l 285 -181 l 285 -50 l 478 -50 l 478 858 l 285 858 l 285 989 l 618 989 l 618 -181 z "},"^":{"ha":856,"x_min":121,"x_max":797,"o":"m 653 488 l 458 811 l 264 488 l 121 488 l 397 989 l 518 989 l 797 488 l 653 488 z "},"_":{"ha":856,"x_min":56,"x_max":800,"o":"m 56 -246 l 56 -124 l 800 -124 l 800 -246 l 56 -246 z "},"`":{"ha":856,"x_min":207,"x_max":592,"o":"m 454 800 l 207 1017 l 394 1017 l 592 800 l 454 800 z "},"a":{"ha":856,"x_min":118,"x_max":715,"o":"m 378 -17 q 190 45 263 -17 q 118 221 118 107 q 199 396 118 336 q 396 456 281 456 q 581 414 501 456 l 581 463 q 436 606 581 606 q 210 532 326 606 l 168 646 q 449 726 294 726 q 715 467 715 726 l 715 0 l 581 0 l 581 61 q 378 -17 500 -17 m 400 106 q 581 189 503 106 l 581 296 q 417 338 507 338 q 299 308 346 338 q 251 221 251 278 q 291 137 251 168 q 400 106 331 106 z "},"b":{"ha":856,"x_min":132,"x_max":761,"o":"m 461 -17 q 271 58 346 -17 l 271 0 l 132 0 l 132 938 l 271 1003 l 271 650 q 355 705 303 683 q 460 726 407 726 q 678 627 594 726 q 761 356 761 528 q 681 81 761 178 q 461 -17 601 -17 m 439 114 q 574 178 529 114 q 619 356 619 242 q 439 596 619 596 q 338 571 382 596 q 271 513 293 546 l 271 199 q 439 114 329 114 z "},"c":{"ha":856,"x_min":129,"x_max":728,"o":"m 443 -17 q 214 81 299 -17 q 129 354 129 179 q 215 627 129 528 q 449 726 301 726 q 722 549 658 726 l 592 503 q 449 596 554 596 q 317 531 363 596 q 272 354 272 467 q 317 177 272 240 q 444 114 361 114 q 597 219 563 114 l 728 178 q 443 -17 667 -17 z "},"d":{"ha":856,"x_min":96,"x_max":724,"o":"m 404 -17 q 178 82 261 -17 q 96 356 96 181 q 180 627 96 528 q 401 726 264 726 q 585 660 518 726 l 585 938 l 724 1003 l 724 0 l 585 0 l 585 57 q 404 -17 522 -17 m 422 114 q 585 199 535 114 l 585 515 q 421 596 533 596 q 284 534 332 596 q 236 356 236 472 q 286 181 236 249 q 422 114 336 114 z "},"e":{"ha":856,"x_min":111,"x_max":744,"o":"m 744 388 q 740 300 744 335 l 251 300 q 316 160 267 211 q 444 108 365 108 q 606 172 538 108 l 688 83 q 443 -17 588 -17 q 200 87 289 -17 q 111 356 111 190 q 201 628 111 529 q 443 726 290 726 q 660 640 575 726 q 744 388 744 554 m 249 421 l 607 421 q 556 560 603 515 q 443 604 508 604 q 308 556 357 604 q 249 421 260 508 z "},"f":{"ha":856,"x_min":175,"x_max":713,"o":"m 578 865 q 464 785 464 865 l 464 710 l 688 710 l 688 588 l 464 588 l 464 124 l 653 124 l 653 0 l 175 0 l 175 124 l 325 124 l 325 588 l 175 588 l 175 710 l 325 710 l 325 811 q 344 899 325 863 q 399 953 364 935 q 471 981 433 972 q 551 989 508 989 q 713 956 642 989 l 713 838 q 578 865 649 865 z "},"g":{"ha":856,"x_min":101,"x_max":715,"o":"m 382 -287 l 310 -174 q 519 -124 461 -164 q 576 -6 576 -85 l 576 60 q 399 -17 514 -17 q 185 81 269 -17 q 101 356 101 178 q 184 626 101 526 q 401 726 267 726 q 576 658 511 726 l 576 710 l 715 710 l 715 54 q 634 -199 715 -121 q 382 -287 553 -276 m 424 114 q 576 201 524 114 l 576 513 q 424 596 524 596 q 289 534 335 596 q 243 356 243 472 q 292 179 243 244 q 424 114 340 114 z "},"h":{"ha":856,"x_min":129,"x_max":728,"o":"m 129 0 l 129 939 l 268 1003 l 268 638 q 465 726 336 726 q 728 421 728 726 l 728 0 l 589 0 l 589 411 q 546 552 589 508 q 433 596 503 596 q 268 414 268 596 l 268 0 l 129 0 z "},"i":{"ha":856,"x_min":174,"x_max":704,"o":"m 499 849 q 487 837 499 849 q 439 825 475 825 q 378 850 403 825 q 354 910 354 875 q 378 969 354 944 q 439 994 403 994 q 499 970 475 994 q 524 910 524 946 q 499 849 524 874 m 508 124 l 704 124 l 704 0 l 174 0 l 174 124 l 369 124 l 369 588 l 174 588 l 174 710 l 508 710 l 508 124 z "},"j":{"ha":856,"x_min":215,"x_max":585,"o":"m 560 849 q 548 837 560 849 q 500 825 536 825 q 440 850 464 825 q 415 910 415 875 q 440 969 415 944 q 500 994 464 994 q 560 970 536 994 q 585 910 585 946 q 560 849 585 874 m 569 710 l 569 -3 q 501 -211 569 -144 q 283 -297 433 -278 l 215 -183 q 385 -128 340 -165 q 431 -6 431 -90 l 431 588 l 235 588 l 235 710 l 569 710 z "},"k":{"ha":856,"x_min":132,"x_max":751,"o":"m 599 0 l 389 411 l 271 294 l 271 0 l 132 0 l 132 938 l 271 1003 l 271 451 l 525 710 l 689 710 l 489 511 l 751 0 l 599 0 z "},"l":{"ha":856,"x_min":126,"x_max":700,"o":"m 497 124 l 700 124 l 700 0 l 154 0 l 154 124 l 358 124 l 358 881 l 190 881 l 126 1003 l 497 1003 l 497 124 z "},"m":{"ha":856,"x_min":65,"x_max":790,"o":"m 617 726 q 748 667 706 726 q 790 469 790 607 l 790 0 l 660 0 l 660 433 q 644 557 660 519 q 586 594 629 594 q 519 550 542 594 q 496 429 496 506 l 496 0 l 365 0 l 365 443 q 292 594 365 594 q 222 549 247 594 q 196 429 196 504 l 196 0 l 65 0 l 65 710 l 188 710 l 188 617 q 326 726 228 726 q 411 695 376 726 q 460 621 446 664 q 617 726 518 726 z "},"n":{"ha":856,"x_min":129,"x_max":728,"o":"m 465 726 q 728 421 728 726 l 728 0 l 589 0 l 589 411 q 433 596 589 596 q 268 414 268 596 l 268 0 l 129 0 l 129 710 l 258 710 l 258 624 q 340 698 285 669 q 465 726 396 726 z "},"o":{"ha":856,"x_min":92,"x_max":764,"o":"m 673 83 q 627 33 673 83 q 428 -17 582 -17 q 183 83 274 -17 q 92 354 92 182 q 183 626 92 526 q 428 726 274 726 q 673 626 582 726 q 764 356 764 526 q 673 83 764 183 m 284 178 q 309 146 284 178 q 428 114 335 114 q 572 179 521 114 q 624 356 624 244 q 573 531 624 467 q 428 596 522 596 q 283 533 333 596 q 233 354 233 469 q 284 178 233 243 z "},"p":{"ha":856,"x_min":132,"x_max":764,"o":"m 132 -281 l 132 710 l 271 710 l 271 653 q 454 726 344 726 q 681 628 597 726 q 764 356 764 529 q 678 83 764 182 q 456 -17 592 -17 q 271 63 338 -17 l 271 -215 l 132 -281 m 436 114 q 574 176 525 114 q 622 356 622 239 q 573 531 622 467 q 433 596 524 596 q 271 513 325 596 l 271 199 q 436 114 335 114 z "},"q":{"ha":856,"x_min":94,"x_max":724,"o":"m 585 -278 l 585 63 q 403 -17 519 -17 q 178 82 263 -17 q 94 354 94 181 q 178 627 94 528 q 407 726 263 726 q 585 653 511 726 l 585 710 l 724 710 l 724 -215 l 585 -278 m 419 114 q 585 200 521 114 l 585 513 q 424 596 532 596 q 285 528 335 596 q 235 354 235 461 q 283 176 235 239 q 419 114 331 114 z "},"r":{"ha":856,"x_min":71,"x_max":768,"o":"m 607 726 q 768 690 706 726 l 768 436 l 632 436 l 632 593 q 603 594 622 594 q 428 542 496 594 q 361 390 361 489 l 361 124 l 564 124 l 564 0 l 71 0 l 71 124 l 219 124 l 219 588 l 71 588 l 71 710 l 351 710 l 351 593 q 456 690 385 654 q 607 726 528 726 z "},"s":{"ha":856,"x_min":151,"x_max":694,"o":"m 428 -17 q 270 17 343 -17 q 151 110 197 51 l 244 192 q 438 103 328 103 q 528 124 493 103 q 564 186 564 146 q 407 307 564 243 q 403 309 404 308 q 399 311 401 310 q 394 313 396 313 q 389 315 392 314 q 297 356 329 340 q 229 399 265 372 q 177 458 193 425 q 161 536 161 492 q 235 675 161 624 q 424 726 310 726 q 679 615 582 726 l 588 539 q 418 607 511 607 q 326 588 361 607 q 292 535 292 568 q 444 426 292 486 q 453 422 450 424 q 525 393 503 403 q 587 361 547 383 q 645 318 626 339 q 679 263 664 297 q 694 189 694 229 q 622 38 694 93 q 428 -17 550 -17 z "},"t":{"ha":856,"x_min":143,"x_max":676,"o":"m 493 -17 q 299 169 299 -17 l 299 588 l 143 588 l 143 710 l 299 710 l 299 936 l 438 1003 l 438 710 l 676 710 l 676 588 l 438 588 l 438 203 q 460 132 438 156 q 539 108 482 108 q 664 144 601 108 l 649 15 q 493 -17 588 -17 z "},"u":{"ha":856,"x_min":128,"x_max":728,"o":"m 394 -17 q 128 294 128 -17 l 128 710 l 268 710 l 268 304 q 310 160 268 206 q 422 115 353 115 q 588 301 588 115 l 588 710 l 728 710 l 728 0 l 588 0 l 588 69 q 394 -17 521 -17 z "},"v":{"ha":856,"x_min":92,"x_max":765,"o":"m 365 0 l 92 710 l 238 710 l 408 247 q 431 172 424 204 q 453 247 438 204 l 621 710 l 765 710 l 492 0 l 365 0 z "},"w":{"ha":856,"x_min":28,"x_max":828,"o":"m 208 0 l 28 710 l 158 710 l 256 297 q 268 233 264 264 q 281 299 278 285 l 374 710 l 482 710 l 576 299 q 589 229 579 288 q 603 299 594 265 l 697 710 l 828 710 l 647 0 l 536 0 l 444 399 q 428 483 429 478 q 418 439 425 468 q 410 400 411 410 l 321 0 l 208 0 z "},"x":{"ha":856,"x_min":89,"x_max":767,"o":"m 89 0 l 349 367 l 106 710 l 264 710 l 390 531 q 428 474 413 501 q 464 531 439 494 l 592 710 l 750 710 l 507 367 l 767 0 l 610 0 l 464 204 q 428 261 439 240 q 390 204 413 233 l 246 0 l 89 0 z "},"y":{"ha":856,"x_min":94,"x_max":761,"o":"m 250 -269 l 357 17 l 94 710 l 236 710 l 403 253 q 425 185 413 225 q 449 253 432 208 l 617 710 l 761 710 l 392 -269 l 250 -269 z "},"z":{"ha":856,"x_min":149,"x_max":707,"o":"m 149 0 l 149 101 l 528 586 l 176 586 l 176 710 l 707 710 l 707 613 l 328 125 l 706 125 l 706 0 l 149 0 z "},"{":{"ha":856,"x_min":206,"x_max":651,"o":"m 608 -181 q 396 -96 474 -178 q 318 143 318 -14 l 318 224 q 297 311 318 278 q 238 344 275 344 l 206 344 l 206 465 l 238 465 q 297 499 275 465 q 318 586 318 532 l 318 665 q 396 904 318 822 q 608 989 474 986 l 651 989 l 651 865 l 608 865 q 458 690 458 861 l 458 601 q 427 463 458 506 q 335 407 396 419 l 335 401 q 428 347 397 390 q 458 207 458 304 l 458 118 q 608 -58 458 -54 l 651 -58 l 651 -181 l 608 -181 z "},"|":{"ha":856,"x_min":358,"x_max":497,"o":"m 358 -525 l 358 1475 l 497 1475 l 497 -525 l 358 -525 z "},"}":{"ha":856,"x_min":206,"x_max":651,"o":"m 206 -181 l 206 -58 l 249 -58 q 360 -10 322 -57 q 399 118 399 36 l 399 207 q 429 347 399 304 q 522 401 460 390 l 522 407 q 429 463 460 419 q 399 601 399 506 l 399 690 q 249 865 399 861 l 206 865 l 206 989 l 249 989 q 461 904 383 986 q 539 665 539 822 l 539 586 q 560 498 539 531 q 619 465 582 465 l 651 465 l 651 344 l 619 344 q 560 311 582 344 q 539 224 539 278 l 539 143 q 461 -95 539 -12 q 249 -181 383 -178 l 206 -181 z "},"~":{"ha":856,"x_min":132,"x_max":785,"o":"m 600 368 q 446 409 538 368 q 318 450 354 450 q 257 428 279 450 q 232 368 235 406 l 132 368 q 177 523 132 461 q 317 585 222 585 q 472 544 381 585 q 599 503 564 503 q 660 525 638 503 q 685 585 682 547 l 785 585 q 740 430 785 492 q 600 368 694 368 z "}," ":{"ha":856,"x_min":0,"x_max":0,"o":""},"¡":{"ha":856,"x_min":324,"x_max":532,"o":"m 429 521 q 354 551 385 521 q 324 624 324 582 q 354 696 324 665 q 429 726 385 726 q 502 696 472 726 q 532 624 532 665 q 502 551 532 582 q 429 521 472 521 m 357 -278 l 357 28 l 399 442 l 457 442 l 497 28 l 497 -278 l 357 -278 z "},"¢":{"ha":856,"x_min":140,"x_max":715,"o":"m 365 -17 l 365 125 q 199 245 258 151 q 140 486 140 339 q 199 726 140 633 q 365 847 258 819 l 365 989 l 500 989 l 500 854 q 713 678 660 832 l 579 632 q 453 724 544 724 q 326 660 371 724 q 282 486 282 597 q 326 313 282 375 q 447 250 369 250 q 582 354 551 250 l 715 313 q 500 119 667 140 l 500 -17 l 365 -17 z "},"£":{"ha":856,"x_min":131,"x_max":786,"o":"m 138 0 l 138 142 q 222 232 194 167 q 256 369 250 297 q 256 383 256 375 q 257 396 257 392 l 131 396 l 131 518 l 225 518 q 199 572 207 554 q 182 629 192 590 q 172 711 172 668 q 253 907 172 825 q 486 989 335 989 q 774 893 642 989 l 719 763 q 664 804 685 790 q 592 836 643 818 q 486 854 542 854 q 361 812 404 854 q 318 711 318 769 q 328 649 318 679 q 355 579 338 618 q 381 518 372 540 l 597 518 l 597 396 l 403 396 q 402 384 403 392 q 401 372 401 376 q 294 133 394 236 l 786 133 l 786 0 l 138 0 z "},"¤":{"ha":856,"x_min":42,"x_max":814,"o":"m 617 172 q 428 119 539 119 q 239 171 317 119 l 146 76 l 42 182 l 140 279 q 97 463 97 356 q 140 647 97 564 l 42 746 l 142 847 l 236 753 q 428 807 322 807 q 615 754 533 807 l 708 847 l 814 742 l 717 646 q 758 463 758 567 q 714 275 758 356 l 814 178 l 713 76 l 617 172 m 428 254 q 565 313 513 254 q 617 463 617 371 q 565 613 617 554 q 428 672 513 672 q 292 613 344 672 q 239 463 239 554 q 292 313 239 371 q 428 254 344 254 z "},"¥":{"ha":856,"x_min":54,"x_max":801,"o":"m 507 454 l 697 454 l 697 344 l 497 344 l 497 253 l 697 253 l 697 143 l 497 143 l 497 0 l 358 0 l 358 143 l 151 143 l 151 253 l 358 253 l 358 344 l 151 344 l 151 454 l 347 454 l 54 972 l 213 972 l 428 575 l 646 972 l 801 972 l 507 454 z "},"¦":{"ha":856,"x_min":358,"x_max":497,"o":"m 358 508 l 358 1146 l 497 1146 l 497 508 l 358 508 m 358 -312 l 358 325 l 497 325 l 497 -312 l 358 -312 z "},"§":{"ha":856,"x_min":135,"x_max":721,"o":"m 432 -167 q 256 -131 335 -167 q 135 -39 178 -96 l 238 50 q 431 -33 314 -33 q 576 65 576 -33 q 566 102 576 85 q 542 132 556 119 q 503 159 529 144 q 458 181 476 174 q 404 203 439 189 q 351 226 369 218 q 274 262 301 247 q 214 301 247 276 q 166 360 181 326 q 151 439 151 394 q 246 589 151 544 q 151 771 151 651 q 228 931 151 872 q 424 989 306 989 q 693 874 599 989 l 588 789 q 424 854 522 854 q 331 832 365 854 q 297 769 297 810 q 347 699 297 728 q 499 631 396 669 q 567 603 542 614 q 625 571 592 592 q 676 528 658 550 q 708 472 694 506 q 721 396 721 438 q 639 246 721 294 q 721 69 721 181 q 644 -105 721 -43 q 432 -167 568 -167 m 525 311 q 576 386 576 331 q 546 444 576 418 q 481 485 515 471 q 379 524 447 500 q 297 449 297 511 q 303 423 297 435 q 322 401 308 411 q 348 382 335 390 q 385 364 361 374 q 426 347 410 354 q 475 329 443 340 q 525 311 507 318 z "},"¨":{"ha":856,"x_min":221,"x_max":635,"o":"m 363 849 q 351 837 363 849 q 304 825 339 825 q 245 849 269 825 q 221 908 221 872 q 245 968 221 944 q 304 992 269 992 q 363 968 339 992 q 388 908 388 944 q 363 849 388 872 m 610 849 q 598 837 610 849 q 551 825 586 825 q 492 849 517 825 q 468 908 468 872 q 492 968 468 944 q 551 992 517 992 q 610 968 586 992 q 635 908 635 944 q 610 849 635 872 z "},"©":{"ha":856,"x_min":22,"x_max":833,"o":"m 717 128 q 658 56 717 128 q 428 -17 600 -17 q 139 128 256 -17 q 22 486 22 272 q 139 844 22 700 q 428 989 256 989 q 717 844 600 989 q 833 486 833 700 q 717 128 833 272 m 428 81 q 644 197 558 81 q 729 486 729 313 q 644 776 729 660 q 428 892 558 892 q 213 776 299 892 q 126 486 126 660 q 213 197 126 313 q 428 81 299 81 m 433 194 q 262 277 322 194 q 201 490 201 360 q 265 701 201 615 q 439 786 328 786 q 629 647 575 786 l 525 601 q 433 675 496 675 q 347 623 375 675 q 318 490 318 571 q 348 355 318 406 q 435 304 378 304 q 531 385 511 304 l 632 347 q 433 194 578 194 z "},"ª":{"ha":856,"x_min":188,"x_max":668,"o":"m 549 393 l 549 435 q 394 379 488 379 q 245 430 303 379 q 188 575 188 481 q 254 719 188 668 q 411 769 321 769 q 549 740 488 769 l 549 764 q 520 855 549 828 q 429 882 492 882 q 267 828 336 882 l 231 928 q 444 989 313 989 q 523 981 489 989 q 593 953 557 974 q 649 885 629 932 q 668 769 668 839 l 668 393 l 549 393 m 415 486 q 549 542 493 486 l 549 636 q 429 664 493 664 q 344 642 378 664 q 310 575 310 619 q 338 510 310 535 q 415 486 367 486 z "},"«":{"ha":856,"x_min":99,"x_max":757,"o":"m 310 0 l 99 356 l 310 710 l 461 710 l 250 356 l 461 0 l 310 0 m 604 0 l 393 356 l 604 710 l 757 710 l 546 356 l 757 0 l 604 0 z "},"¬":{"ha":856,"x_min":101,"x_max":754,"o":"m 614 235 l 614 521 l 101 521 l 101 656 l 754 656 l 754 235 l 614 235 z "},"­":{"ha":856,"x_min":101,"x_max":754,"o":"m 101 346 l 101 479 l 754 479 l 754 346 l 101 346 z "},"®":{"ha":856,"x_min":22,"x_max":833,"o":"m 139 844 q 197 917 139 844 q 428 989 256 989 q 717 844 600 989 q 833 486 833 700 q 717 128 833 272 q 428 -17 600 -17 q 139 128 256 -17 q 22 486 22 272 q 139 844 22 700 m 428 81 q 644 197 558 81 q 729 486 729 313 q 644 776 729 660 q 428 892 558 892 q 213 776 299 892 q 126 486 126 660 q 213 197 126 313 q 428 81 299 81 m 642 594 q 609 492 642 536 q 522 429 576 449 l 633 215 l 507 215 l 410 417 l 354 417 l 354 215 l 240 215 l 240 760 l 465 760 q 599 710 557 760 q 642 594 642 660 m 354 661 l 354 519 l 467 519 q 514 541 497 519 q 531 593 531 563 q 515 640 531 619 q 467 661 499 661 l 354 661 z "},"¯":{"ha":856,"x_min":199,"x_max":657,"o":"m 199 831 l 199 947 l 657 947 l 657 831 l 199 831 z "},"°":{"ha":856,"x_min":185,"x_max":671,"o":"m 429 624 q 256 693 326 624 q 185 864 185 763 q 256 1035 185 967 q 429 1103 326 1103 q 601 1035 531 1103 q 671 864 671 967 q 601 693 671 763 q 429 624 531 624 m 351 782 q 366 765 351 782 q 429 749 382 749 q 506 781 476 749 q 536 864 536 814 q 506 946 536 914 q 429 978 476 978 q 351 946 382 978 q 319 864 319 914 q 351 782 319 815 z "},"±":{"ha":856,"x_min":101,"x_max":754,"o":"m 497 493 l 497 276 l 357 276 l 357 493 l 101 493 l 101 628 l 357 628 l 357 844 l 497 844 l 497 628 l 754 628 l 754 493 l 497 493 m 101 0 l 101 135 l 754 135 l 754 0 l 101 0 z "},"²":{"ha":856,"x_min":240,"x_max":606,"o":"m 240 835 q 279 962 240 913 q 364 1028 318 1011 q 449 1063 410 1044 q 488 1101 488 1081 q 433 1142 488 1142 q 375 1123 400 1142 q 340 1071 350 1104 l 242 1096 q 309 1188 258 1153 q 436 1222 360 1222 q 559 1190 513 1222 q 606 1097 606 1157 q 572 1028 606 1057 q 495 985 538 999 q 414 955 453 972 q 369 919 375 938 l 604 919 l 604 835 l 240 835 z "},"³":{"ha":856,"x_min":236,"x_max":615,"o":"m 431 821 q 236 929 288 821 l 340 957 q 435 901 367 901 q 482 915 464 901 q 500 951 500 929 q 431 990 500 990 l 389 990 l 389 1067 l 421 1067 q 479 1103 479 1067 q 465 1131 479 1119 q 426 1143 450 1143 q 349 1096 372 1143 l 251 1124 q 322 1195 274 1168 q 432 1222 371 1222 q 549 1192 504 1222 q 593 1113 593 1161 q 573 1063 593 1085 q 524 1033 553 1042 q 615 943 615 1017 q 567 856 615 890 q 431 821 518 821 z "},"´":{"ha":856,"x_min":308,"x_max":692,"o":"m 308 800 l 506 1017 l 692 1017 l 444 800 l 308 800 z "},"µ":{"ha":856,"x_min":139,"x_max":717,"o":"m 578 0 l 578 68 q 406 -17 508 -17 q 279 43 321 -17 l 279 -212 l 139 -278 l 139 710 l 278 710 l 278 285 q 315 151 278 189 q 422 114 351 114 q 578 282 578 114 l 578 710 l 717 710 l 717 0 l 578 0 z "},"¶":{"ha":856,"x_min":63,"x_max":792,"o":"m 653 -168 l 653 838 l 531 838 l 531 -215 l 392 -278 l 392 383 q 144 474 225 386 q 63 678 63 563 q 140 887 63 801 q 383 972 218 972 l 792 972 l 792 -106 l 653 -168 z "},"·":{"ha":856,"x_min":325,"x_max":531,"o":"m 501 415 q 486 400 501 415 q 428 385 471 385 q 355 415 385 385 q 325 485 325 444 q 355 556 325 526 q 428 586 385 586 q 501 556 471 586 q 531 485 531 526 q 501 415 531 444 z "},"¸":{"ha":856,"x_min":272,"x_max":583,"o":"m 410 -332 q 272 -281 319 -332 l 343 -231 q 397 -250 358 -250 q 447 -233 428 -250 q 467 -187 467 -215 q 444 -145 467 -162 q 390 -128 422 -128 q 336 -140 358 -128 l 308 -107 l 406 14 l 483 14 l 432 -71 q 546 -104 508 -71 q 583 -189 583 -137 q 536 -292 583 -253 q 410 -332 489 -332 z "},"¹":{"ha":856,"x_min":304,"x_max":486,"o":"m 372 835 l 372 1067 l 304 1067 l 304 1154 q 401 1213 376 1154 l 486 1213 l 486 835 l 372 835 z "},"º":{"ha":856,"x_min":163,"x_max":693,"o":"m 622 460 q 586 419 622 460 q 428 379 550 379 q 234 460 306 379 q 163 683 163 540 q 234 908 163 826 q 428 989 306 989 q 622 908 550 989 q 693 683 693 826 q 622 460 693 540 m 428 496 q 533 544 496 496 q 571 683 571 593 q 533 824 571 774 q 428 874 496 874 q 323 824 361 874 q 285 683 285 774 q 323 545 285 594 q 428 496 361 496 z "},"»":{"ha":856,"x_min":99,"x_max":757,"o":"m 99 0 l 310 356 l 99 710 l 250 710 l 461 356 l 250 0 l 99 0 m 393 0 l 604 356 l 393 710 l 546 710 l 757 356 l 546 0 l 393 0 z "},"¼":{"ha":856,"x_min":56,"x_max":800,"o":"m 372 601 l 372 833 l 304 833 l 304 921 q 401 979 376 921 l 486 979 l 486 601 l 372 601 m 56 439 l 56 544 l 800 544 l 800 439 l 56 439 m 456 0 l 456 76 l 208 76 l 208 136 l 460 378 l 564 378 l 564 156 l 638 156 l 638 76 l 564 76 l 564 0 l 456 0 m 456 156 l 456 271 l 338 156 l 456 156 z "},"½":{"ha":856,"x_min":56,"x_max":800,"o":"m 372 601 l 372 833 l 304 833 l 304 921 q 401 979 376 921 l 486 979 l 486 601 l 372 601 m 56 439 l 56 544 l 800 544 l 800 439 l 56 439 m 240 0 q 279 127 240 78 q 364 193 318 176 q 449 228 410 210 q 488 267 488 246 q 433 307 488 307 q 375 288 400 307 q 340 236 350 269 l 242 261 q 309 353 258 318 q 436 388 360 388 q 559 355 513 388 q 606 263 606 322 q 572 193 606 222 q 495 151 538 164 q 414 120 453 138 q 369 85 375 103 l 604 85 l 604 0 l 240 0 z "},"¾":{"ha":856,"x_min":56,"x_max":800,"o":"m 431 588 q 236 696 288 588 l 340 724 q 435 668 367 668 q 482 682 464 668 q 500 718 500 696 q 431 757 500 757 l 389 757 l 389 833 l 421 833 q 479 869 479 833 q 465 898 479 886 q 426 910 450 910 q 349 863 372 910 l 251 890 q 322 962 274 935 q 432 989 371 989 q 549 958 504 989 q 593 879 593 928 q 573 830 593 851 q 524 800 553 808 q 615 710 615 783 q 567 622 615 657 q 431 588 518 588 m 56 439 l 56 544 l 800 544 l 800 439 l 56 439 m 456 0 l 456 76 l 208 76 l 208 136 l 460 378 l 564 378 l 564 156 l 638 156 l 638 76 l 564 76 l 564 0 l 456 0 m 456 156 l 456 271 l 338 156 l 456 156 z "},"¿":{"ha":856,"x_min":118,"x_max":738,"o":"m 506 555 q 490 540 506 555 q 432 525 475 525 q 359 554 389 525 q 329 625 329 583 q 359 697 329 667 q 432 726 389 726 q 506 697 475 726 q 536 625 536 667 q 506 555 536 585 m 414 -278 q 196 -201 274 -278 q 118 -4 118 -125 q 143 107 118 58 q 203 187 168 156 q 274 248 239 218 q 335 322 310 278 q 361 422 361 365 l 361 463 l 500 463 l 500 422 q 475 294 500 349 q 415 207 450 239 q 344 147 379 175 q 283 81 308 118 q 258 -4 258 44 q 299 -108 258 -68 q 414 -147 340 -147 q 549 -97 501 -147 q 597 46 597 -46 l 738 46 q 648 -191 738 -104 q 414 -278 558 -278 z "},"À":{"ha":856,"x_min":44,"x_max":813,"o":"m 514 1064 l 376 1064 l 129 1281 l 317 1281 l 514 1064 m 661 0 l 592 226 l 265 226 l 197 0 l 44 0 l 363 972 l 492 972 l 813 0 l 661 0 m 306 356 l 551 356 l 453 678 q 428 779 438 728 q 403 678 418 728 l 306 356 z "},"Á":{"ha":856,"x_min":44,"x_max":813,"o":"m 710 1281 l 463 1064 l 326 1064 l 524 1281 l 710 1281 m 661 0 l 592 226 l 265 226 l 197 0 l 44 0 l 363 972 l 492 972 l 813 0 l 661 0 m 306 356 l 551 356 l 453 678 q 428 779 438 728 q 403 678 418 728 l 306 356 z "},"Â":{"ha":856,"x_min":44,"x_max":813,"o":"m 426 1182 l 288 1064 l 160 1064 l 356 1281 l 499 1281 l 694 1064 l 565 1064 l 426 1182 m 661 0 l 592 226 l 265 226 l 197 0 l 44 0 l 363 972 l 492 972 l 813 0 l 661 0 m 306 356 l 551 356 l 453 678 q 428 779 438 728 q 403 678 418 728 l 306 356 z "},"Ã":{"ha":856,"x_min":44,"x_max":813,"o":"m 308 1154 q 243 1093 247 1154 l 174 1093 q 318 1265 174 1265 q 444 1231 372 1265 q 547 1197 517 1197 q 593 1213 575 1197 q 613 1260 611 1229 l 682 1260 q 538 1088 682 1088 q 412 1121 485 1088 q 308 1154 339 1154 m 661 0 l 592 226 l 265 226 l 197 0 l 44 0 l 363 972 l 492 972 l 813 0 l 661 0 m 306 356 l 551 356 l 453 678 q 428 779 438 728 q 403 678 418 728 l 306 356 z "},"Ä":{"ha":856,"x_min":44,"x_max":813,"o":"m 363 1113 q 351 1101 363 1113 q 303 1089 339 1089 q 243 1113 267 1089 q 219 1172 219 1136 q 243 1232 219 1208 q 303 1256 267 1256 q 363 1232 339 1256 q 386 1172 386 1208 q 363 1113 386 1136 m 610 1113 q 598 1101 610 1113 q 550 1089 586 1089 q 490 1113 514 1089 q 467 1172 467 1136 q 490 1232 467 1208 q 550 1256 514 1256 q 610 1232 586 1256 q 633 1172 633 1208 q 610 1113 633 1136 m 661 0 l 592 226 l 265 226 l 197 0 l 44 0 l 363 972 l 492 972 l 813 0 l 661 0 m 306 356 l 551 356 l 453 678 q 428 779 438 728 q 403 678 418 728 l 306 356 z "},"Å":{"ha":856,"x_min":44,"x_max":813,"o":"m 661 0 l 592 226 l 265 226 l 197 0 l 44 0 l 340 904 q 281 965 303 926 q 258 1047 258 1003 q 308 1165 258 1117 q 428 1214 358 1214 q 549 1165 499 1214 q 599 1047 599 1117 q 514 903 599 953 l 813 0 l 661 0 m 475 1097 q 465 1107 475 1097 q 428 1117 456 1117 q 381 1097 400 1117 q 363 1047 363 1078 q 381 997 363 1017 q 428 976 400 976 q 475 997 456 976 q 494 1047 494 1017 q 475 1097 494 1078 m 306 356 l 551 356 l 453 678 q 428 779 438 728 q 403 678 418 728 l 306 356 z "},"Æ":{"ha":856,"x_min":0,"x_max":851,"o":"m 603 133 l 851 133 l 851 0 l 468 0 l 468 226 l 246 226 l 154 0 l 0 0 l 413 972 l 822 972 l 822 839 l 603 839 l 603 568 l 768 568 l 768 436 l 603 436 l 603 133 m 297 356 l 468 357 l 468 788 q 454 749 464 778 q 440 710 444 719 l 297 356 z "},"Ç":{"ha":856,"x_min":78,"x_max":744,"o":"m 744 193 q 479 -15 664 -3 l 446 -71 q 560 -104 522 -71 q 597 -189 597 -137 q 550 -292 597 -253 q 424 -332 503 -332 q 286 -281 333 -332 l 357 -231 q 411 -250 372 -250 q 461 -233 442 -250 q 481 -187 481 -215 q 458 -145 481 -162 q 404 -128 436 -128 q 350 -140 372 -128 l 322 -107 l 397 -12 q 213 81 288 3 q 108 261 139 158 q 78 486 78 364 q 99 669 78 582 q 165 828 121 756 q 283 945 208 901 q 453 989 357 989 q 633 935 563 989 q 738 800 703 882 l 610 738 q 544 824 579 794 q 453 854 508 854 q 320 795 374 854 q 247 657 267 736 q 226 486 226 578 q 285 227 226 336 q 453 118 343 118 q 615 243 557 118 l 744 193 z "},"È":{"ha":856,"x_min":119,"x_max":746,"o":"m 393 1064 l 146 1281 l 333 1281 l 531 1064 l 393 1064 m 119 0 l 119 972 l 715 972 l 715 838 l 263 838 l 263 569 l 564 569 l 564 435 l 263 435 l 263 136 l 746 136 l 746 0 l 119 0 z "},"É":{"ha":856,"x_min":119,"x_max":746,"o":"m 315 1068 l 513 1285 l 699 1285 l 451 1068 l 315 1068 m 119 0 l 119 972 l 715 972 l 715 838 l 263 838 l 263 569 l 564 569 l 564 435 l 263 435 l 263 136 l 746 136 l 746 0 l 119 0 z "},"Ê":{"ha":856,"x_min":119,"x_max":746,"o":"m 554 1064 l 415 1182 l 276 1064 l 149 1064 l 344 1281 l 488 1281 l 683 1064 l 554 1064 m 119 0 l 119 972 l 715 972 l 715 838 l 263 838 l 263 569 l 564 569 l 564 435 l 263 435 l 263 136 l 746 136 l 746 0 l 119 0 z "},"Ë":{"ha":856,"x_min":119,"x_max":746,"o":"m 351 1113 q 340 1101 351 1113 q 292 1089 328 1089 q 232 1113 256 1089 q 208 1172 208 1136 q 232 1232 208 1208 q 292 1256 256 1256 q 351 1232 328 1256 q 375 1172 375 1208 q 351 1113 375 1136 m 599 1113 q 587 1101 599 1113 q 539 1089 575 1089 q 479 1113 503 1089 q 456 1172 456 1136 q 479 1232 456 1208 q 539 1256 503 1256 q 599 1232 575 1256 q 622 1172 622 1208 q 599 1113 622 1136 m 119 0 l 119 972 l 715 972 l 715 838 l 263 838 l 263 569 l 564 569 l 564 435 l 263 435 l 263 136 l 746 136 l 746 0 l 119 0 z "},"Ì":{"ha":856,"x_min":124,"x_max":713,"o":"m 508 1064 l 371 1064 l 124 1281 l 311 1281 l 508 1064 m 713 844 l 499 844 l 499 128 l 713 128 l 713 0 l 144 0 l 144 128 l 357 128 l 357 844 l 144 844 l 144 972 l 713 972 l 713 844 z "},"Í":{"ha":856,"x_min":144,"x_max":722,"o":"m 722 1285 l 475 1068 l 339 1068 l 536 1285 l 722 1285 m 713 972 l 713 844 l 499 844 l 499 128 l 713 128 l 713 0 l 144 0 l 144 128 l 357 128 l 357 844 l 144 844 l 144 972 l 713 972 z "},"Î":{"ha":856,"x_min":146,"x_max":714,"o":"m 428 1182 l 289 1064 l 161 1064 l 357 1281 l 500 1281 l 696 1064 l 567 1064 l 428 1182 m 714 844 l 500 844 l 500 128 l 714 128 l 714 0 l 146 0 l 146 128 l 358 128 l 358 844 l 146 844 l 146 972 l 714 972 l 714 844 z "},"Ï":{"ha":856,"x_min":146,"x_max":714,"o":"m 363 1113 q 351 1101 363 1113 q 304 1089 339 1089 q 245 1113 269 1089 q 221 1172 221 1136 q 245 1232 221 1208 q 304 1256 269 1256 q 363 1232 339 1256 q 388 1172 388 1208 q 363 1113 388 1136 m 610 1113 q 598 1101 610 1113 q 551 1089 586 1089 q 492 1113 517 1089 q 468 1172 468 1136 q 492 1232 468 1208 q 551 1256 517 1256 q 610 1232 586 1256 q 635 1172 635 1208 q 610 1113 635 1136 m 714 844 l 500 844 l 500 128 l 714 128 l 714 0 l 146 0 l 146 128 l 358 128 l 358 844 l 146 844 l 146 972 l 714 972 l 714 844 z "},"Ð":{"ha":856,"x_min":35,"x_max":778,"o":"m 356 972 q 518 944 446 972 q 638 871 590 917 q 718 762 686 825 q 764 630 750 699 q 778 486 778 561 q 765 350 778 415 q 722 219 753 285 q 643 107 690 154 q 520 30 596 60 q 350 0 444 0 l 119 0 l 119 421 l 35 421 l 35 551 l 119 551 l 119 972 l 356 972 m 361 133 q 489 165 435 133 q 573 249 543 196 q 617 360 603 301 q 631 486 631 419 q 567 737 631 633 q 376 840 503 840 l 261 840 l 261 551 l 461 551 l 461 421 l 261 421 l 261 133 l 361 133 z "},"Ñ":{"ha":856,"x_min":119,"x_max":736,"o":"m 538 1088 q 412 1121 485 1088 q 308 1154 339 1154 q 243 1093 247 1154 l 174 1093 q 318 1265 174 1265 q 444 1231 372 1265 q 547 1197 517 1197 q 593 1213 575 1197 q 613 1260 611 1229 l 682 1260 q 538 1088 682 1088 m 119 0 l 119 972 l 257 972 l 575 332 q 604 272 594 296 q 601 332 601 325 l 601 972 l 736 972 l 736 0 l 604 0 l 282 638 q 273 656 279 643 q 261 679 267 668 q 251 699 256 690 q 254 639 254 676 l 254 0 l 119 0 z "},"Ò":{"ha":856,"x_min":78,"x_max":778,"o":"m 392 1064 l 144 1281 l 332 1281 l 529 1064 l 392 1064 m 428 -17 q 268 26 338 -17 q 158 140 199 68 q 98 300 118 213 q 78 486 78 388 q 98 672 78 585 q 158 832 118 760 q 268 947 199 904 q 428 989 338 989 q 589 947 519 989 q 699 832 658 904 q 758 672 739 760 q 778 486 778 585 q 758 300 778 388 q 699 140 739 213 q 589 26 658 68 q 428 -17 519 -17 m 428 118 q 544 174 496 118 q 611 310 592 229 q 631 486 631 390 q 581 751 631 646 q 428 856 531 856 q 313 799 360 856 q 246 663 265 743 q 226 486 226 582 q 276 223 226 328 q 428 118 326 118 z "},"Ó":{"ha":856,"x_min":78,"x_max":778,"o":"m 339 1064 l 536 1281 l 722 1281 l 475 1064 l 339 1064 m 428 -17 q 268 26 338 -17 q 158 140 199 68 q 98 300 118 213 q 78 486 78 388 q 98 672 78 585 q 158 832 118 760 q 268 947 199 904 q 428 989 338 989 q 589 947 519 989 q 699 832 658 904 q 758 672 739 760 q 778 486 778 585 q 758 300 778 388 q 699 140 739 213 q 589 26 658 68 q 428 -17 519 -17 m 428 118 q 544 174 496 118 q 611 310 592 229 q 631 486 631 390 q 581 751 631 646 q 428 856 531 856 q 313 799 360 856 q 246 663 265 743 q 226 486 226 582 q 276 223 226 328 q 428 118 326 118 z "},"Ô":{"ha":856,"x_min":78,"x_max":778,"o":"m 567 1064 l 428 1182 l 289 1064 l 161 1064 l 357 1281 l 500 1281 l 696 1064 l 567 1064 m 428 -17 q 268 26 338 -17 q 158 140 199 68 q 98 300 118 213 q 78 486 78 388 q 98 672 78 585 q 158 832 118 760 q 268 947 199 904 q 428 989 338 989 q 589 947 519 989 q 699 832 658 904 q 758 672 739 760 q 778 486 778 585 q 758 300 778 388 q 699 140 739 213 q 589 26 658 68 q 428 -17 519 -17 m 428 118 q 544 174 496 118 q 611 310 592 229 q 631 486 631 390 q 581 751 631 646 q 428 856 531 856 q 313 799 360 856 q 246 663 265 743 q 226 486 226 582 q 276 223 226 328 q 428 118 326 118 z "},"Õ":{"ha":856,"x_min":78,"x_max":778,"o":"m 539 1088 q 413 1121 486 1088 q 310 1154 340 1154 q 244 1093 249 1154 l 175 1093 q 319 1265 175 1265 q 446 1231 374 1265 q 549 1197 518 1197 q 594 1213 576 1197 q 614 1260 613 1229 l 683 1260 q 539 1088 683 1088 m 428 -17 q 268 26 338 -17 q 158 140 199 68 q 98 300 118 213 q 78 486 78 388 q 98 672 78 585 q 158 832 118 760 q 268 947 199 904 q 428 989 338 989 q 589 947 519 989 q 699 832 658 904 q 758 672 739 760 q 778 486 778 585 q 758 300 778 388 q 699 140 739 213 q 589 26 658 68 q 428 -17 519 -17 m 428 118 q 544 174 496 118 q 611 310 592 229 q 631 486 631 390 q 581 751 631 646 q 428 856 531 856 q 313 799 360 856 q 246 663 265 743 q 226 486 226 582 q 276 223 226 328 q 428 118 326 118 z "},"Ö":{"ha":856,"x_min":78,"x_max":778,"o":"m 363 1113 q 351 1101 363 1113 q 304 1089 339 1089 q 245 1113 269 1089 q 221 1172 221 1136 q 245 1232 221 1208 q 304 1256 269 1256 q 363 1232 339 1256 q 388 1172 388 1208 q 363 1113 388 1136 m 610 1113 q 598 1101 610 1113 q 551 1089 586 1089 q 492 1113 517 1089 q 468 1172 468 1136 q 492 1232 468 1208 q 551 1256 517 1256 q 610 1232 586 1256 q 635 1172 635 1208 q 610 1113 635 1136 m 428 -17 q 268 26 338 -17 q 158 140 199 68 q 98 300 118 213 q 78 486 78 388 q 98 672 78 585 q 158 832 118 760 q 268 947 199 904 q 428 989 338 989 q 589 947 519 989 q 699 832 658 904 q 758 672 739 760 q 778 486 778 585 q 758 300 778 388 q 699 140 739 213 q 589 26 658 68 q 428 -17 519 -17 m 428 118 q 544 174 496 118 q 611 310 592 229 q 631 486 631 390 q 581 751 631 646 q 428 856 531 856 q 313 799 360 856 q 246 663 265 743 q 226 486 226 582 q 276 223 226 328 q 428 118 326 118 z "},"×":{"ha":856,"x_min":107,"x_max":749,"o":"m 431 378 l 208 156 l 107 256 l 331 478 l 108 699 l 206 796 l 428 575 l 649 797 l 749 696 l 526 475 l 747 253 l 651 157 l 431 378 z "},"Ø":{"ha":856,"x_min":21,"x_max":835,"o":"m 835 989 l 713 807 q 778 486 778 676 q 758 300 778 388 q 699 140 739 213 q 589 26 658 68 q 428 -17 519 -17 q 215 67 301 -17 l 160 -17 l 21 -17 l 143 167 q 78 486 78 299 q 98 672 78 585 q 158 832 118 760 q 268 947 199 904 q 428 989 338 989 q 639 907 554 989 l 694 989 l 835 989 m 246 663 q 236 622 246 663 q 226 486 226 582 q 244 317 226 390 l 558 786 q 428 856 510 856 q 313 799 360 856 q 246 663 265 743 m 611 310 q 621 350 611 310 q 631 486 631 390 q 613 658 631 582 l 297 188 q 428 118 349 118 q 544 174 496 118 q 611 310 592 229 z "},"Ù":{"ha":856,"x_min":107,"x_max":749,"o":"m 410 1064 l 163 1281 l 350 1281 l 547 1064 l 410 1064 m 428 -17 q 194 76 282 -17 q 107 369 107 168 l 107 972 l 250 972 l 250 369 q 428 118 250 118 q 607 369 607 118 l 607 972 l 749 972 l 749 369 q 662 76 749 169 q 428 -17 575 -17 z "},"Ú":{"ha":856,"x_min":107,"x_max":749,"o":"m 322 1068 l 519 1285 l 706 1285 l 458 1068 l 322 1068 m 428 -17 q 194 76 282 -17 q 107 369 107 168 l 107 972 l 250 972 l 250 369 q 428 118 250 118 q 607 369 607 118 l 607 972 l 749 972 l 749 369 q 662 76 749 169 q 428 -17 575 -17 z "},"Û":{"ha":856,"x_min":107,"x_max":749,"o":"m 567 1064 l 428 1182 l 289 1064 l 161 1064 l 357 1281 l 500 1281 l 696 1064 l 567 1064 m 428 -17 q 194 76 282 -17 q 107 369 107 168 l 107 972 l 250 972 l 250 369 q 428 118 250 118 q 607 369 607 118 l 607 972 l 749 972 l 749 369 q 662 76 749 169 q 428 -17 575 -17 z "},"Ü":{"ha":856,"x_min":107,"x_max":749,"o":"m 363 1113 q 351 1101 363 1113 q 304 1089 339 1089 q 245 1113 269 1089 q 221 1172 221 1136 q 245 1232 221 1208 q 304 1256 269 1256 q 363 1232 339 1256 q 388 1172 388 1208 q 363 1113 388 1136 m 610 1113 q 598 1101 610 1113 q 551 1089 586 1089 q 492 1113 517 1089 q 468 1172 468 1136 q 492 1232 468 1208 q 551 1256 517 1256 q 610 1232 586 1256 q 635 1172 635 1208 q 610 1113 635 1136 m 428 -17 q 194 76 282 -17 q 107 369 107 168 l 107 972 l 250 972 l 250 369 q 428 118 250 118 q 607 369 607 118 l 607 972 l 749 972 l 749 369 q 662 76 749 169 q 428 -17 575 -17 z "},"Ý":{"ha":856,"x_min":75,"x_max":782,"o":"m 717 1285 l 469 1068 l 333 1068 l 531 1285 l 717 1285 m 626 972 l 782 972 l 500 382 l 500 0 l 358 0 l 358 382 l 75 972 l 233 972 l 429 529 l 626 972 z "},"Þ":{"ha":856,"x_min":119,"x_max":761,"o":"m 119 0 l 119 972 l 263 972 l 263 790 l 442 790 q 684 705 607 790 q 761 494 761 619 q 681 288 761 376 q 442 199 601 199 l 263 199 l 263 0 l 119 0 m 450 331 q 576 379 535 331 q 617 494 617 428 q 578 608 617 558 q 450 658 539 658 l 263 658 l 263 331 l 450 331 z "},"ß":{"ha":856,"x_min":124,"x_max":750,"o":"m 124 -281 l 124 658 q 167 849 124 772 q 274 958 211 926 q 415 989 338 989 q 622 919 543 989 q 700 735 700 849 q 569 535 700 583 q 703 443 656 507 q 750 293 750 379 q 668 67 750 150 q 458 -17 586 -17 q 329 11 376 -17 l 393 114 q 454 106 421 106 q 562 154 515 106 q 608 289 608 203 q 561 415 608 364 q 415 467 514 467 l 386 467 l 386 589 l 415 589 q 519 625 479 589 q 558 726 558 661 q 522 829 558 790 q 417 868 485 868 q 304 817 346 868 q 263 661 263 767 l 263 -212 l 124 -281 z "},"à":{"ha":856,"x_min":118,"x_max":715,"o":"m 408 800 l 161 1017 l 349 1017 l 546 800 l 408 800 m 378 -17 q 190 45 263 -17 q 118 221 118 107 q 199 396 118 336 q 396 456 281 456 q 581 414 501 456 l 581 463 q 436 606 581 606 q 210 532 326 606 l 168 646 q 449 726 294 726 q 715 467 715 726 l 715 0 l 581 0 l 581 61 q 378 -17 500 -17 m 400 106 q 581 189 503 106 l 581 296 q 417 338 507 338 q 299 308 346 338 q 251 221 251 278 q 291 137 251 168 q 400 106 331 106 z "},"á":{"ha":856,"x_min":118,"x_max":726,"o":"m 343 800 l 540 1017 l 726 1017 l 479 800 l 343 800 m 378 -17 q 190 45 263 -17 q 118 221 118 107 q 199 396 118 336 q 396 456 281 456 q 581 414 501 456 l 581 463 q 436 606 581 606 q 210 532 326 606 l 168 646 q 449 726 294 726 q 715 467 715 726 l 715 0 l 581 0 l 581 61 q 378 -17 500 -17 m 400 106 q 581 189 503 106 l 581 296 q 417 338 507 338 q 299 308 346 338 q 251 221 251 278 q 291 137 251 168 q 400 106 331 106 z "},"â":{"ha":856,"x_min":118,"x_max":715,"o":"m 574 800 l 435 918 l 296 800 l 168 800 l 364 1017 l 507 1017 l 703 800 l 574 800 m 378 -17 q 190 45 263 -17 q 118 221 118 107 q 199 396 118 336 q 396 456 281 456 q 581 414 501 456 l 581 463 q 436 606 581 606 q 210 532 326 606 l 168 646 q 449 726 294 726 q 715 467 715 726 l 715 0 l 581 0 l 581 61 q 378 -17 500 -17 m 400 106 q 581 189 503 106 l 581 296 q 417 338 507 338 q 299 308 346 338 q 251 221 251 278 q 291 137 251 168 q 400 106 331 106 z "},"ã":{"ha":856,"x_min":118,"x_max":715,"o":"m 551 824 q 426 857 499 824 q 322 890 353 890 q 257 829 261 890 l 188 829 q 332 1001 188 1001 q 458 967 386 1001 q 561 933 531 933 q 607 949 589 933 q 626 996 625 965 l 696 996 q 551 824 696 824 m 378 -17 q 190 45 263 -17 q 118 221 118 107 q 199 396 118 336 q 396 456 281 456 q 581 414 501 456 l 581 463 q 436 606 581 606 q 210 532 326 606 l 168 646 q 449 726 294 726 q 715 467 715 726 l 715 0 l 581 0 l 581 61 q 378 -17 500 -17 m 400 106 q 581 189 503 106 l 581 296 q 417 338 507 338 q 299 308 346 338 q 251 221 251 278 q 291 137 251 168 q 400 106 331 106 z "},"ä":{"ha":856,"x_min":118,"x_max":715,"o":"m 388 849 q 376 837 388 849 q 329 825 364 825 q 270 849 294 825 q 246 908 246 872 q 270 968 246 944 q 329 992 294 992 q 388 968 364 992 q 413 908 413 944 q 388 849 413 872 m 635 849 q 623 837 635 849 q 576 825 611 825 q 517 849 542 825 q 493 908 493 872 q 517 968 493 944 q 576 992 542 992 q 635 968 611 992 q 660 908 660 944 q 635 849 660 872 m 378 -17 q 190 45 263 -17 q 118 221 118 107 q 199 396 118 336 q 396 456 281 456 q 581 414 501 456 l 581 463 q 436 606 581 606 q 210 532 326 606 l 168 646 q 449 726 294 726 q 715 467 715 726 l 715 0 l 581 0 l 581 61 q 378 -17 500 -17 m 400 106 q 581 189 503 106 l 581 296 q 417 338 507 338 q 299 308 346 338 q 251 221 251 278 q 291 137 251 168 q 400 106 331 106 z "},"å":{"ha":856,"x_min":118,"x_max":715,"o":"m 572 839 q 546 814 572 839 q 451 789 521 789 q 332 838 382 789 q 282 957 282 888 q 332 1075 282 1026 q 451 1124 382 1124 q 572 1075 522 1124 q 622 957 622 1026 q 572 839 622 889 m 405 906 q 414 896 405 906 q 451 886 424 886 q 499 906 479 886 q 518 957 518 926 q 499 1007 518 988 q 451 1026 479 1026 q 405 1007 424 1026 q 386 957 386 988 q 405 906 386 926 m 378 -17 q 190 45 263 -17 q 118 221 118 107 q 199 396 118 336 q 396 456 281 456 q 581 414 501 456 l 581 463 q 436 606 581 606 q 210 532 326 606 l 168 646 q 449 726 294 726 q 715 467 715 726 l 715 0 l 581 0 l 581 61 q 378 -17 500 -17 m 400 106 q 581 189 503 106 l 581 296 q 417 338 507 338 q 299 308 346 338 q 251 221 251 278 q 291 137 251 168 q 400 106 331 106 z "},"æ":{"ha":856,"x_min":32,"x_max":824,"o":"m 222 -17 q 85 45 138 -17 q 32 221 32 107 q 91 397 32 338 q 238 457 150 457 q 358 418 301 457 l 358 454 q 257 614 358 614 q 101 536 179 614 l 69 646 q 272 726 167 726 q 429 618 386 726 q 607 726 492 726 q 763 638 701 726 q 824 388 824 550 q 818 300 824 361 l 471 300 q 513 156 474 215 q 606 96 551 96 q 719 171 667 96 l 779 83 q 600 -17 701 -17 q 417 113 483 -17 q 330 15 382 47 q 222 -17 278 -17 m 471 411 l 708 411 q 676 563 707 514 q 600 613 646 613 q 512 562 547 613 q 471 411 476 511 m 239 94 q 314 128 278 94 q 371 206 350 161 q 358 299 361 246 q 250 347 310 347 q 175 315 206 347 q 144 219 144 282 q 169 129 144 164 q 239 94 194 94 z "},"ç":{"ha":856,"x_min":129,"x_max":728,"o":"m 728 178 q 476 -15 672 0 l 443 -71 q 557 -104 519 -71 q 594 -189 594 -137 q 547 -292 594 -253 q 421 -332 500 -332 q 283 -281 331 -332 l 354 -231 q 408 -250 369 -250 q 458 -233 439 -250 q 478 -187 478 -215 q 456 -145 478 -162 q 401 -128 433 -128 q 347 -140 369 -128 l 319 -107 l 394 -14 q 200 99 271 3 q 129 354 129 196 q 215 627 129 528 q 449 726 301 726 q 722 549 658 726 l 592 503 q 449 596 554 596 q 317 531 363 596 q 272 354 272 467 q 317 177 272 240 q 444 114 361 114 q 597 219 563 114 l 728 178 z "},"è":{"ha":856,"x_min":111,"x_max":744,"o":"m 582 800 l 444 800 l 197 1017 l 385 1017 l 582 800 m 744 388 q 740 300 744 335 l 251 300 q 316 160 267 211 q 444 108 365 108 q 606 172 538 108 l 688 83 q 443 -17 588 -17 q 200 87 289 -17 q 111 356 111 190 q 201 628 111 529 q 443 726 290 726 q 660 640 575 726 q 744 388 744 554 m 249 421 l 607 421 q 556 560 603 515 q 443 604 508 604 q 308 556 357 604 q 249 421 260 508 z "},"é":{"ha":856,"x_min":111,"x_max":744,"o":"m 711 1017 l 464 800 l 328 800 l 525 1017 l 711 1017 m 744 388 q 740 300 744 335 l 251 300 q 316 160 267 211 q 444 108 365 108 q 606 172 538 108 l 688 83 q 443 -17 588 -17 q 200 87 289 -17 q 111 356 111 190 q 201 628 111 529 q 443 726 290 726 q 660 640 575 726 q 744 388 744 554 m 249 421 l 607 421 q 556 560 603 515 q 443 604 508 604 q 308 556 357 604 q 249 421 260 508 z "},"ê":{"ha":856,"x_min":111,"x_max":744,"o":"m 435 918 l 296 800 l 168 800 l 364 1017 l 507 1017 l 703 800 l 574 800 l 435 918 m 744 388 q 740 300 744 335 l 251 300 q 316 160 267 211 q 444 108 365 108 q 606 172 538 108 l 688 83 q 443 -17 588 -17 q 200 87 289 -17 q 111 356 111 190 q 201 628 111 529 q 443 726 290 726 q 660 640 575 726 q 744 388 744 554 m 249 421 l 607 421 q 556 560 603 515 q 443 604 508 604 q 308 556 357 604 q 249 421 260 508 z "},"ë":{"ha":856,"x_min":111,"x_max":744,"o":"m 371 849 q 359 837 371 849 q 311 825 347 825 q 251 849 275 825 q 228 908 228 872 q 251 968 228 944 q 311 992 275 992 q 371 968 347 992 q 394 908 394 944 q 371 849 394 872 m 618 849 q 606 837 618 849 q 558 825 594 825 q 499 849 522 825 q 475 908 475 872 q 499 968 475 944 q 558 992 522 992 q 618 968 594 992 q 642 908 642 944 q 618 849 642 872 m 744 388 q 740 300 744 335 l 251 300 q 316 160 267 211 q 444 108 365 108 q 606 172 538 108 l 688 83 q 443 -17 588 -17 q 200 87 289 -17 q 111 356 111 190 q 201 628 111 529 q 443 726 290 726 q 660 640 575 726 q 744 388 744 554 m 249 421 l 607 421 q 556 560 603 515 q 443 604 508 604 q 308 556 357 604 q 249 421 260 508 z "},"ì":{"ha":856,"x_min":117,"x_max":704,"o":"m 501 800 l 364 800 l 117 1017 l 304 1017 l 501 800 m 508 124 l 704 124 l 704 0 l 174 0 l 174 124 l 369 124 l 369 599 l 174 599 l 174 722 l 508 722 l 508 124 z "},"í":{"ha":856,"x_min":174,"x_max":704,"o":"m 674 1017 l 426 800 l 290 800 l 488 1017 l 674 1017 m 508 124 l 704 124 l 704 0 l 174 0 l 174 124 l 369 124 l 369 599 l 174 599 l 174 722 l 508 722 l 508 124 z "},"î":{"ha":856,"x_min":147,"x_max":704,"o":"m 414 918 l 275 800 l 147 800 l 343 1017 l 486 1017 l 682 800 l 553 800 l 414 918 m 508 124 l 704 124 l 704 0 l 174 0 l 174 124 l 369 124 l 369 599 l 174 599 l 174 722 l 508 722 l 508 124 z "},"ï":{"ha":856,"x_min":174,"x_max":704,"o":"m 349 849 q 337 837 349 849 q 290 825 325 825 q 231 849 256 825 q 207 908 207 872 q 231 968 207 944 q 290 992 256 992 q 349 968 325 992 q 374 908 374 944 q 349 849 374 872 m 597 849 q 584 837 597 849 q 538 825 572 825 q 478 849 503 825 q 454 908 454 872 q 478 968 454 944 q 538 992 503 992 q 597 968 572 992 q 621 908 621 944 q 597 849 621 872 m 508 124 l 704 124 l 704 0 l 174 0 l 174 124 l 369 124 l 369 599 l 174 599 l 174 722 l 508 722 l 508 124 z "},"ð":{"ha":856,"x_min":113,"x_max":743,"o":"m 428 -17 q 201 75 289 -17 q 113 307 113 167 q 200 540 113 447 q 421 633 288 633 q 590 553 529 633 q 461 786 567 699 l 375 696 l 301 765 l 369 838 q 222 872 301 868 l 222 989 q 458 932 354 985 l 538 1017 l 611 944 l 546 875 q 692 667 640 797 q 743 374 743 538 q 662 90 743 196 q 428 -17 581 -17 m 428 114 q 552 169 501 114 q 603 306 603 225 q 553 447 603 390 q 428 503 503 503 q 304 448 354 503 q 254 307 254 393 q 305 169 254 225 q 428 114 356 114 z "},"ñ":{"ha":856,"x_min":129,"x_max":728,"o":"m 313 890 q 247 829 251 890 l 178 829 q 322 1001 178 1001 q 449 967 376 1001 q 551 933 521 933 q 597 949 579 933 q 617 996 615 965 l 686 996 q 542 824 686 824 q 416 857 489 824 q 313 890 343 890 m 465 726 q 728 421 728 726 l 728 0 l 589 0 l 589 411 q 433 596 589 596 q 268 414 268 596 l 268 0 l 129 0 l 129 710 l 258 710 l 258 624 q 340 698 285 669 q 465 726 396 726 z "},"ò":{"ha":856,"x_min":92,"x_max":764,"o":"m 419 800 l 172 1017 l 360 1017 l 557 800 l 419 800 m 673 83 q 627 33 673 83 q 428 -17 582 -17 q 183 83 274 -17 q 92 354 92 182 q 183 626 92 526 q 428 726 274 726 q 673 626 582 726 q 764 356 764 526 q 673 83 764 183 m 284 178 q 309 146 284 178 q 428 114 335 114 q 572 179 521 114 q 624 356 624 244 q 573 531 624 467 q 428 596 522 596 q 283 533 333 596 q 233 354 233 469 q 284 178 233 243 z "},"ó":{"ha":856,"x_min":92,"x_max":764,"o":"m 319 800 l 517 1017 l 703 1017 l 456 800 l 319 800 m 673 83 q 627 33 673 83 q 428 -17 582 -17 q 183 83 274 -17 q 92 354 92 182 q 183 626 92 526 q 428 726 274 726 q 673 626 582 726 q 764 356 764 526 q 673 83 764 183 m 284 178 q 309 146 284 178 q 428 114 335 114 q 572 179 521 114 q 624 356 624 244 q 573 531 624 467 q 428 596 522 596 q 283 533 333 596 q 233 354 233 469 q 284 178 233 243 z "},"ô":{"ha":856,"x_min":92,"x_max":764,"o":"m 567 800 l 428 918 l 289 800 l 161 800 l 357 1017 l 500 1017 l 696 800 l 567 800 m 673 83 q 627 33 673 83 q 428 -17 582 -17 q 183 83 274 -17 q 92 354 92 182 q 183 626 92 526 q 428 726 274 726 q 673 626 582 726 q 764 356 764 526 q 673 83 764 183 m 284 178 q 309 146 284 178 q 428 114 335 114 q 572 179 521 114 q 624 356 624 244 q 573 531 624 467 q 428 596 522 596 q 283 533 333 596 q 233 354 233 469 q 284 178 233 243 z "},"õ":{"ha":856,"x_min":92,"x_max":764,"o":"m 539 824 q 413 857 486 824 q 310 890 340 890 q 244 829 249 890 l 175 829 q 319 1001 175 1001 q 446 967 374 1001 q 549 933 518 933 q 594 949 576 933 q 614 996 613 965 l 683 996 q 539 824 683 824 m 673 83 q 627 33 673 83 q 428 -17 582 -17 q 183 83 274 -17 q 92 354 92 182 q 183 626 92 526 q 428 726 274 726 q 673 626 582 726 q 764 356 764 526 q 673 83 764 183 m 284 178 q 309 146 284 178 q 428 114 335 114 q 572 179 521 114 q 624 356 624 244 q 573 531 624 467 q 428 596 522 596 q 283 533 333 596 q 233 354 233 469 q 284 178 233 243 z "},"ö":{"ha":856,"x_min":92,"x_max":764,"o":"m 363 849 q 351 837 363 849 q 304 825 339 825 q 245 849 269 825 q 221 908 221 872 q 245 968 221 944 q 304 992 269 992 q 363 968 339 992 q 388 908 388 944 q 363 849 388 872 m 610 849 q 598 837 610 849 q 551 825 586 825 q 492 849 517 825 q 468 908 468 872 q 492 968 468 944 q 551 992 517 992 q 610 968 586 992 q 635 908 635 944 q 610 849 635 872 m 673 83 q 627 33 673 83 q 428 -17 582 -17 q 183 83 274 -17 q 92 354 92 182 q 183 626 92 526 q 428 726 274 726 q 673 626 582 726 q 764 356 764 526 q 673 83 764 183 m 284 178 q 309 146 284 178 q 428 114 335 114 q 572 179 521 114 q 624 356 624 244 q 573 531 624 467 q 428 596 522 596 q 283 533 333 596 q 233 354 233 469 q 284 178 233 243 z "},"÷":{"ha":856,"x_min":101,"x_max":754,"o":"m 490 683 q 477 671 490 683 q 426 658 464 658 q 364 683 389 658 q 339 744 339 708 q 364 805 339 779 q 426 831 389 831 q 490 805 464 831 q 515 744 515 779 q 490 683 515 708 m 101 408 l 101 543 l 754 543 l 754 408 l 101 408 m 490 147 q 477 134 490 147 q 426 122 464 122 q 364 147 389 122 q 339 207 339 171 q 364 269 339 243 q 426 294 389 294 q 490 269 464 294 q 515 207 515 243 q 490 147 515 171 z "},"ø":{"ha":856,"x_min":92,"x_max":764,"o":"m 675 625 q 764 356 764 525 q 673 83 764 183 q 428 -17 582 -17 q 264 21 335 -17 l 239 -17 l 113 -17 l 181 85 q 92 354 92 185 q 183 626 92 526 q 428 726 274 726 q 590 690 521 726 l 615 726 l 743 726 l 675 625 m 233 354 q 264 208 233 269 l 515 578 q 428 596 475 596 q 283 533 333 596 q 233 354 233 469 m 428 114 q 572 179 521 114 q 624 356 624 244 q 592 503 624 443 l 340 133 q 428 114 379 114 z "},"ù":{"ha":856,"x_min":128,"x_max":728,"o":"m 399 800 l 151 1017 l 339 1017 l 536 800 l 399 800 m 394 -17 q 128 294 128 -17 l 128 710 l 268 710 l 268 304 q 310 160 268 206 q 422 115 353 115 q 588 301 588 115 l 588 710 l 728 710 l 728 0 l 588 0 l 588 69 q 394 -17 521 -17 z "},"ú":{"ha":856,"x_min":128,"x_max":728,"o":"m 319 800 l 517 1017 l 703 1017 l 456 800 l 319 800 m 394 -17 q 128 294 128 -17 l 128 710 l 268 710 l 268 304 q 310 160 268 206 q 422 115 353 115 q 588 301 588 115 l 588 710 l 728 710 l 728 0 l 588 0 l 588 69 q 394 -17 521 -17 z "},"û":{"ha":856,"x_min":128,"x_max":728,"o":"m 564 800 l 425 918 l 286 800 l 158 800 l 354 1017 l 497 1017 l 693 800 l 564 800 m 394 -17 q 128 294 128 -17 l 128 710 l 268 710 l 268 304 q 310 160 268 206 q 422 115 353 115 q 588 301 588 115 l 588 710 l 728 710 l 728 0 l 588 0 l 588 69 q 394 -17 521 -17 z "},"ü":{"ha":856,"x_min":128,"x_max":728,"o":"m 360 849 q 348 837 360 849 q 301 825 336 825 q 242 849 267 825 q 218 908 218 872 q 242 968 218 944 q 301 992 267 992 q 360 968 336 992 q 385 908 385 944 q 360 849 385 872 m 608 849 q 595 837 608 849 q 549 825 583 825 q 490 849 514 825 q 465 908 465 872 q 490 968 465 944 q 549 992 514 992 q 608 968 583 992 q 632 908 632 944 q 608 849 632 872 m 394 -17 q 128 294 128 -17 l 128 710 l 268 710 l 268 304 q 310 160 268 206 q 422 115 353 115 q 588 301 588 115 l 588 710 l 728 710 l 728 0 l 588 0 l 588 69 q 394 -17 521 -17 z "},"ý":{"ha":856,"x_min":94,"x_max":761,"o":"m 336 800 l 533 1017 l 719 1017 l 472 800 l 336 800 m 250 -269 l 357 17 l 94 710 l 236 710 l 403 253 q 425 185 413 225 q 449 253 432 208 l 617 710 l 761 710 l 392 -269 l 250 -269 z "},"þ":{"ha":856,"x_min":132,"x_max":764,"o":"m 132 -285 l 132 922 l 272 990 l 272 663 q 457 739 349 739 q 681 638 597 739 q 764 361 764 538 q 678 85 764 186 q 456 -17 592 -17 q 272 64 343 -17 l 272 -219 l 132 -285 m 436 115 q 573 179 525 115 q 621 361 621 243 q 572 540 621 474 q 436 607 524 607 q 272 522 328 607 l 272 201 q 436 115 336 115 z "},"ÿ":{"ha":856,"x_min":94,"x_max":761,"o":"m 360 849 q 348 837 360 849 q 301 825 336 825 q 242 849 267 825 q 218 908 218 872 q 242 968 218 944 q 301 992 267 992 q 360 968 336 992 q 385 908 385 944 q 360 849 385 872 m 608 849 q 595 837 608 849 q 549 825 583 825 q 490 849 514 825 q 465 908 465 872 q 490 968 465 944 q 549 992 514 992 q 608 968 583 992 q 632 908 632 944 q 608 849 632 872 m 250 -269 l 357 17 l 94 710 l 236 710 l 403 253 q 425 185 413 225 q 449 253 432 208 l 617 710 l 761 710 l 392 -269 l 250 -269 z "},"Ā":{"ha":856,"x_min":44,"x_max":813,"o":"m 656 1211 l 656 1094 l 197 1094 l 197 1211 l 656 1211 m 661 0 l 592 226 l 265 226 l 197 0 l 44 0 l 363 972 l 492 972 l 813 0 l 661 0 m 306 356 l 551 356 l 453 678 q 428 779 438 728 q 403 678 418 728 l 306 356 z "},"ā":{"ha":856,"x_min":118,"x_max":715,"o":"m 210 831 l 210 947 l 668 947 l 668 831 l 210 831 m 378 -17 q 190 45 263 -17 q 118 221 118 107 q 199 396 118 336 q 396 456 281 456 q 581 414 501 456 l 581 463 q 436 606 581 606 q 210 532 326 606 l 168 646 q 449 726 294 726 q 715 467 715 726 l 715 0 l 581 0 l 581 61 q 378 -17 500 -17 m 400 106 q 581 189 503 106 l 581 296 q 417 338 507 338 q 299 308 346 338 q 251 221 251 278 q 291 137 251 168 q 400 106 331 106 z "},"Ă":{"ha":856,"x_min":44,"x_max":813,"o":"m 619 1130 q 587 1098 619 1130 q 428 1065 554 1065 q 236 1130 301 1065 q 171 1294 171 1194 l 288 1294 q 326 1208 288 1242 q 428 1174 364 1174 q 530 1208 492 1174 q 568 1294 568 1242 l 685 1294 q 619 1130 685 1194 m 661 0 l 592 226 l 265 226 l 197 0 l 44 0 l 363 972 l 492 972 l 813 0 l 661 0 m 306 356 l 551 356 l 453 678 q 428 779 438 728 q 403 678 418 728 l 306 356 z "},"ă":{"ha":856,"x_min":118,"x_max":715,"o":"m 631 866 q 598 834 631 866 q 439 801 565 801 q 247 866 313 801 q 182 1031 182 931 l 299 1031 q 337 944 299 978 q 439 910 375 910 q 541 944 503 910 q 579 1031 579 978 l 696 1031 q 631 866 696 931 m 378 -17 q 190 45 263 -17 q 118 221 118 107 q 199 396 118 336 q 396 456 281 456 q 581 414 501 456 l 581 463 q 436 606 581 606 q 210 532 326 606 l 168 646 q 449 726 294 726 q 715 467 715 726 l 715 0 l 581 0 l 581 61 q 378 -17 500 -17 m 400 106 q 581 189 503 106 l 581 296 q 417 338 507 338 q 299 308 346 338 q 251 221 251 278 q 291 137 251 168 q 400 106 331 106 z "},"Ą":{"ha":856,"x_min":44,"x_max":813,"o":"m 632 -346 q 516 -308 561 -346 q 471 -203 471 -269 q 521 -82 471 -135 q 661 0 571 -29 l 590 226 l 265 226 l 197 0 l 44 0 l 363 972 l 492 972 l 813 0 q 654 -65 722 -10 q 586 -189 586 -119 q 605 -242 586 -224 q 650 -260 624 -260 q 715 -231 689 -260 l 785 -281 q 632 -346 725 -346 m 304 356 l 551 356 l 453 678 q 428 779 438 728 q 403 678 418 728 l 304 356 z "},"ą":{"ha":856,"x_min":156,"x_max":761,"o":"m 608 -332 q 492 -294 538 -332 q 447 -189 447 -256 q 603 1 447 -65 l 603 61 q 407 -17 519 -17 q 225 45 294 -17 q 156 221 156 107 q 234 396 156 336 q 425 456 313 456 q 603 414 521 456 l 603 463 q 461 606 603 606 q 246 532 356 606 l 204 646 q 474 726 325 726 q 736 467 736 726 l 736 0 q 609 -77 656 -31 q 563 -175 563 -124 q 581 -228 563 -210 q 626 -246 600 -246 q 692 -217 665 -246 l 761 -267 q 608 -332 699 -332 m 429 106 q 603 189 525 106 l 603 296 q 446 338 529 338 q 333 308 376 338 q 289 221 289 278 q 326 137 289 168 q 429 106 363 106 z "},"Ć":{"ha":856,"x_min":78,"x_max":744,"o":"m 354 1064 l 551 1281 l 738 1281 l 490 1064 l 354 1064 m 453 -17 q 280 26 354 -17 q 163 142 206 69 q 99 302 119 215 q 78 486 78 389 q 99 669 78 582 q 165 828 121 756 q 283 945 208 901 q 453 989 357 989 q 633 935 563 989 q 738 800 703 882 l 610 738 q 544 824 579 794 q 453 854 508 854 q 320 795 374 854 q 247 657 267 736 q 226 486 226 578 q 285 227 226 336 q 453 118 343 118 q 615 243 557 118 l 744 193 q 453 -17 658 -17 z "},"ć":{"ha":856,"x_min":129,"x_max":738,"o":"m 354 800 l 551 1017 l 738 1017 l 490 800 l 354 800 m 443 -17 q 214 81 299 -17 q 129 354 129 179 q 215 627 129 528 q 449 726 301 726 q 722 549 658 726 l 592 503 q 449 596 554 596 q 317 531 363 596 q 272 354 272 467 q 317 177 272 240 q 444 114 361 114 q 597 219 563 114 l 728 178 q 443 -17 667 -17 z "},"Ĉ":{"ha":856,"x_min":78,"x_max":744,"o":"m 588 1064 l 449 1182 l 310 1064 l 182 1064 l 378 1281 l 521 1281 l 717 1064 l 588 1064 m 453 -17 q 280 26 354 -17 q 163 142 206 69 q 99 302 119 215 q 78 486 78 389 q 99 669 78 582 q 165 828 121 756 q 283 945 208 901 q 453 989 357 989 q 633 935 563 989 q 738 800 703 882 l 610 738 q 544 824 579 794 q 453 854 508 854 q 320 795 374 854 q 247 657 267 736 q 226 486 226 578 q 285 227 226 336 q 453 118 343 118 q 615 243 557 118 l 744 193 q 453 -17 658 -17 z "},"ĉ":{"ha":856,"x_min":129,"x_max":728,"o":"m 579 800 l 440 918 l 301 800 l 174 800 l 369 1017 l 513 1017 l 708 800 l 579 800 m 443 -17 q 214 81 299 -17 q 129 354 129 179 q 215 627 129 528 q 449 726 301 726 q 722 549 658 726 l 592 503 q 449 596 554 596 q 317 531 363 596 q 272 354 272 467 q 317 177 272 240 q 444 114 361 114 q 597 219 563 114 l 728 178 q 443 -17 667 -17 z "},"Ċ":{"ha":856,"x_min":78,"x_max":744,"o":"m 507 1113 q 495 1101 507 1113 q 447 1089 483 1089 q 388 1113 411 1089 q 364 1172 364 1136 q 388 1232 364 1208 q 447 1256 411 1256 q 507 1232 483 1256 q 531 1172 531 1208 q 507 1113 531 1136 m 453 -17 q 280 26 354 -17 q 163 142 206 69 q 99 302 119 215 q 78 486 78 389 q 99 669 78 582 q 165 828 121 756 q 283 945 208 901 q 453 989 357 989 q 633 935 563 989 q 738 800 703 882 l 610 738 q 544 824 579 794 q 453 854 508 854 q 320 795 374 854 q 247 657 267 736 q 226 486 226 578 q 285 227 226 336 q 453 118 343 118 q 615 243 557 118 l 744 193 q 453 -17 658 -17 z "},"ċ":{"ha":856,"x_min":129,"x_max":728,"o":"m 504 849 q 492 837 504 849 q 444 825 481 825 q 385 849 408 825 q 361 908 361 872 q 385 968 361 944 q 444 992 408 992 q 504 968 481 992 q 528 908 528 944 q 504 849 528 872 m 443 -17 q 214 81 299 -17 q 129 354 129 179 q 215 627 129 528 q 449 726 301 726 q 722 549 658 726 l 592 503 q 449 596 554 596 q 317 531 363 596 q 272 354 272 467 q 317 177 272 240 q 444 114 361 114 q 597 219 563 114 l 728 178 q 443 -17 667 -17 z "},"Č":{"ha":856,"x_min":78,"x_max":744,"o":"m 524 1064 l 382 1064 l 186 1281 l 314 1281 l 453 1163 l 592 1281 l 721 1281 l 524 1064 m 453 -17 q 280 26 354 -17 q 163 142 206 69 q 99 302 119 215 q 78 486 78 389 q 99 669 78 582 q 165 828 121 756 q 283 945 208 901 q 453 989 357 989 q 633 935 563 989 q 738 800 703 882 l 610 738 q 544 824 579 794 q 453 854 508 854 q 320 795 374 854 q 247 657 267 736 q 226 486 226 578 q 285 227 226 336 q 453 118 343 118 q 615 243 557 118 l 744 193 q 453 -17 658 -17 z "},"č":{"ha":856,"x_min":125,"x_max":724,"o":"m 510 800 l 368 800 l 172 1017 l 300 1017 l 439 899 l 578 1017 l 707 1017 l 510 800 m 439 -17 q 210 81 294 -17 q 125 354 125 179 q 211 627 125 528 q 444 726 297 726 q 718 549 654 726 l 588 503 q 444 596 550 596 q 313 531 358 596 q 268 354 268 467 q 313 177 268 240 q 440 114 357 114 q 593 219 558 114 l 724 178 q 439 -17 663 -17 z "},"Ď":{"ha":856,"x_min":107,"x_max":778,"o":"m 444 1064 l 303 1064 l 107 1281 l 235 1281 l 374 1163 l 513 1281 l 642 1281 l 444 1064 m 119 0 l 119 972 l 356 972 q 518 944 446 972 q 638 871 590 917 q 718 762 686 825 q 764 630 750 699 q 778 486 778 561 q 765 350 778 415 q 722 219 753 285 q 643 107 690 154 q 520 30 596 60 q 350 0 444 0 l 119 0 m 261 133 l 361 133 q 489 165 435 133 q 573 249 543 196 q 617 360 603 301 q 631 486 631 419 q 567 737 631 633 q 376 840 503 840 l 261 840 l 261 133 z "},"ď":{"ha":856,"x_min":18,"x_max":892,"o":"m 326 -17 q 101 82 183 -17 q 18 356 18 181 q 102 627 18 528 q 324 726 186 726 q 507 660 440 726 l 507 938 l 646 1003 l 646 0 l 507 0 l 507 57 q 326 -17 444 -17 m 760 651 l 717 683 q 747 810 735 721 q 760 989 760 900 l 892 989 l 892 978 q 760 651 892 778 m 344 114 q 507 199 457 114 l 507 515 q 343 596 456 596 q 206 534 254 596 q 158 356 158 472 q 208 181 158 249 q 344 114 258 114 z "},"Đ":{"ha":856,"x_min":35,"x_max":778,"o":"m 356 972 q 518 944 446 972 q 638 871 590 917 q 718 762 686 825 q 764 630 750 699 q 778 486 778 561 q 765 350 778 415 q 722 219 753 285 q 643 107 690 154 q 520 30 596 60 q 350 0 444 0 l 119 0 l 119 421 l 35 421 l 35 551 l 119 551 l 119 972 l 356 972 m 361 133 q 489 165 435 133 q 573 249 543 196 q 617 360 603 301 q 631 486 631 419 q 567 737 631 633 q 376 840 503 840 l 261 840 l 261 551 l 461 551 l 461 421 l 261 421 l 261 133 l 361 133 z "},"đ":{"ha":856,"x_min":88,"x_max":790,"o":"m 700 757 l 700 0 l 561 0 l 561 57 q 385 -17 497 -17 q 168 78 249 -17 q 88 333 88 174 q 170 586 88 492 q 386 681 253 681 q 561 613 497 681 l 561 757 l 382 757 l 382 871 l 561 871 l 561 938 l 700 1003 l 700 871 l 790 871 l 790 757 l 700 757 m 404 114 q 561 199 508 114 l 561 469 q 406 550 513 550 q 276 492 324 550 q 228 333 228 435 q 276 178 228 242 q 404 114 325 114 z "},"Ē":{"ha":856,"x_min":119,"x_max":746,"o":"m 189 1094 l 189 1211 l 647 1211 l 647 1094 l 189 1094 m 119 0 l 119 972 l 715 972 l 715 838 l 263 838 l 263 569 l 564 569 l 564 435 l 263 435 l 263 136 l 746 136 l 746 0 l 119 0 z "},"ē":{"ha":856,"x_min":111,"x_max":744,"o":"m 664 947 l 664 831 l 206 831 l 206 947 l 664 947 m 744 388 q 740 300 744 335 l 251 300 q 316 160 267 211 q 444 108 365 108 q 606 172 538 108 l 688 83 q 443 -17 588 -17 q 200 87 289 -17 q 111 356 111 190 q 201 628 111 529 q 443 726 290 726 q 660 640 575 726 q 744 388 744 554 m 249 421 l 607 421 q 556 560 603 515 q 443 604 508 604 q 308 556 357 604 q 249 421 260 508 z "},"Ĕ":{"ha":856,"x_min":119,"x_max":746,"o":"m 607 1130 q 574 1098 607 1130 q 415 1065 542 1065 q 224 1130 289 1065 q 158 1294 158 1194 l 275 1294 q 313 1208 275 1242 q 415 1174 351 1174 q 517 1208 479 1174 q 556 1294 556 1242 l 672 1294 q 607 1130 672 1194 m 119 0 l 119 972 l 715 972 l 715 838 l 263 838 l 263 569 l 564 569 l 564 435 l 263 435 l 263 136 l 746 136 l 746 0 l 119 0 z "},"ĕ":{"ha":856,"x_min":111,"x_max":744,"o":"m 626 866 q 594 834 626 866 q 435 801 561 801 q 243 866 308 801 q 178 1031 178 931 l 294 1031 q 333 944 294 978 q 435 910 371 910 q 537 944 499 910 q 575 1031 575 978 l 692 1031 q 626 866 692 931 m 744 388 q 740 300 744 335 l 251 300 q 316 160 267 211 q 444 108 365 108 q 606 172 538 108 l 688 83 q 443 -17 588 -17 q 200 87 289 -17 q 111 356 111 190 q 201 628 111 529 q 443 726 290 726 q 660 640 575 726 q 744 388 744 554 m 249 421 l 607 421 q 556 560 603 515 q 443 604 508 604 q 308 556 357 604 q 249 421 260 508 z "},"Ė":{"ha":856,"x_min":119,"x_max":746,"o":"m 474 1113 q 462 1101 474 1113 q 415 1089 450 1089 q 356 1113 381 1089 q 332 1172 332 1136 q 356 1232 332 1208 q 415 1256 381 1256 q 474 1232 450 1256 q 499 1172 499 1208 q 474 1113 499 1136 m 119 0 l 119 972 l 715 972 l 715 838 l 263 838 l 263 569 l 564 569 l 564 435 l 263 435 l 263 136 l 746 136 l 746 0 l 119 0 z "},"ė":{"ha":856,"x_min":111,"x_max":744,"o":"m 494 849 q 482 837 494 849 q 435 825 469 825 q 376 849 400 825 q 351 908 351 872 q 376 968 351 944 q 435 992 400 992 q 494 968 469 992 q 518 908 518 944 q 494 849 518 872 m 744 388 q 740 300 744 335 l 251 300 q 316 160 267 211 q 444 108 365 108 q 606 172 538 108 l 688 83 q 443 -17 588 -17 q 200 87 289 -17 q 111 356 111 190 q 201 628 111 529 q 443 726 290 726 q 660 640 575 726 q 744 388 744 554 m 249 421 l 607 421 q 556 560 603 515 q 443 604 508 604 q 308 556 357 604 q 249 421 260 508 z "},"Ę":{"ha":856,"x_min":139,"x_max":778,"o":"m 582 -332 q 466 -294 511 -332 q 421 -189 421 -256 q 574 0 421 -64 l 139 0 l 139 972 l 747 972 l 747 838 l 281 838 l 281 569 l 575 569 l 575 435 l 281 435 l 281 136 l 778 136 l 778 0 l 736 0 q 597 -56 657 0 q 536 -175 536 -112 q 555 -228 536 -210 q 600 -246 574 -246 q 665 -217 639 -246 l 735 -267 q 582 -332 672 -332 z "},"ę":{"ha":856,"x_min":111,"x_max":744,"o":"m 458 -332 q 342 -294 388 -332 q 296 -189 296 -256 q 417 -15 296 -81 q 193 95 275 -7 q 111 356 111 197 q 201 628 111 529 q 443 726 290 726 q 660 640 575 726 q 744 388 744 554 q 740 300 744 335 l 251 300 q 316 160 265 211 q 444 108 367 108 q 606 172 538 108 l 688 83 q 563 1 639 35 q 451 -78 490 -31 q 413 -175 413 -126 q 431 -228 413 -210 q 476 -246 449 -246 q 542 -217 513 -246 l 610 -267 q 458 -332 553 -332 m 250 421 l 607 421 q 556 560 603 515 q 443 604 508 604 q 308 556 357 604 q 250 421 260 507 z "},"Ě":{"ha":856,"x_min":119,"x_max":746,"o":"m 490 1064 l 349 1064 l 153 1281 l 281 1281 l 419 1163 l 558 1281 l 688 1281 l 490 1064 m 119 0 l 119 972 l 715 972 l 715 838 l 263 838 l 263 569 l 564 569 l 564 435 l 263 435 l 263 136 l 746 136 l 746 0 l 119 0 z "},"ě":{"ha":856,"x_min":111,"x_max":744,"o":"m 506 800 l 364 800 l 168 1017 l 296 1017 l 435 899 l 574 1017 l 703 1017 l 506 800 m 744 388 q 740 300 744 335 l 251 300 q 316 160 267 211 q 444 108 365 108 q 606 172 538 108 l 688 83 q 443 -17 588 -17 q 200 87 289 -17 q 111 356 111 190 q 201 628 111 529 q 443 726 290 726 q 660 640 575 726 q 744 388 744 554 m 249 421 l 607 421 q 556 560 603 515 q 443 604 508 604 q 308 556 357 604 q 249 421 260 508 z "},"Ĝ":{"ha":856,"x_min":81,"x_max":760,"o":"m 586 1064 l 447 1182 l 308 1064 l 181 1064 l 376 1281 l 519 1281 l 715 1064 l 586 1064 m 447 -17 q 240 58 325 -17 q 117 242 154 132 q 81 486 81 353 q 119 728 81 617 q 243 915 157 840 q 447 989 329 989 q 621 940 556 989 q 732 807 686 892 l 606 735 q 447 856 540 856 q 319 797 371 856 q 248 658 268 738 q 228 486 228 578 q 284 225 228 332 q 447 118 340 118 q 569 173 526 118 q 613 318 613 228 l 613 351 l 440 351 l 440 483 l 760 483 l 760 358 q 672 83 760 182 q 447 -17 585 -17 z "},"ĝ":{"ha":856,"x_min":94,"x_max":719,"o":"m 590 800 l 451 918 l 313 800 l 185 800 l 381 1017 l 524 1017 l 719 800 l 590 800 m 375 -287 l 303 -174 q 512 -124 454 -164 q 569 -6 569 -85 l 569 60 q 392 -17 507 -17 q 178 81 263 -17 q 94 356 94 178 q 177 626 94 526 q 394 726 260 726 q 569 658 504 726 l 569 710 l 708 710 l 708 54 q 627 -199 708 -121 q 375 -287 546 -276 m 417 114 q 569 201 517 114 l 569 513 q 417 596 517 596 q 282 534 328 596 q 236 356 236 472 q 285 179 236 244 q 417 114 333 114 z "},"Ğ":{"ha":856,"x_min":81,"x_max":760,"o":"m 639 1130 q 606 1098 639 1130 q 447 1065 574 1065 q 256 1130 321 1065 q 190 1294 190 1194 l 307 1294 q 345 1208 307 1242 q 447 1174 383 1174 q 549 1208 511 1174 q 588 1294 588 1242 l 704 1294 q 639 1130 704 1194 m 447 -17 q 240 58 325 -17 q 117 242 154 132 q 81 486 81 353 q 119 728 81 617 q 243 915 157 840 q 447 989 329 989 q 621 940 556 989 q 732 807 686 892 l 606 735 q 447 856 540 856 q 319 797 371 856 q 248 658 268 738 q 228 486 228 578 q 284 225 228 332 q 447 118 340 118 q 569 173 526 118 q 613 318 613 228 l 613 351 l 440 351 l 440 483 l 760 483 l 760 358 q 672 83 760 182 q 447 -17 585 -17 z "},"ğ":{"ha":856,"x_min":99,"x_max":713,"o":"m 644 866 q 612 834 644 866 q 453 801 579 801 q 261 866 326 801 q 196 1031 196 931 l 313 1031 q 351 944 313 978 q 453 910 389 910 q 555 944 517 910 q 593 1031 593 978 l 710 1031 q 644 866 710 931 m 379 -287 l 307 -174 q 516 -124 458 -164 q 574 -6 574 -85 l 574 60 q 396 -17 511 -17 q 183 81 267 -17 q 99 356 99 178 q 181 626 99 526 q 399 726 264 726 q 574 658 508 726 l 574 710 l 713 710 l 713 54 q 631 -199 713 -121 q 379 -287 550 -276 m 421 114 q 574 201 521 114 l 574 513 q 421 596 521 596 q 286 534 332 596 q 240 356 240 472 q 289 179 240 244 q 421 114 338 114 z "},"Ġ":{"ha":856,"x_min":81,"x_max":760,"o":"m 504 1113 q 492 1101 504 1113 q 444 1089 481 1089 q 385 1113 408 1089 q 361 1172 361 1136 q 385 1232 361 1208 q 444 1256 408 1256 q 504 1232 481 1256 q 528 1172 528 1208 q 504 1113 528 1136 m 447 -17 q 240 58 325 -17 q 117 242 154 132 q 81 486 81 353 q 119 728 81 617 q 243 915 157 840 q 447 989 329 989 q 621 940 556 989 q 732 807 686 892 l 606 735 q 447 856 540 856 q 319 797 371 856 q 248 658 268 738 q 228 486 228 578 q 284 225 228 332 q 447 118 340 118 q 569 173 526 118 q 613 318 613 228 l 613 351 l 440 351 l 440 483 l 760 483 l 760 358 q 672 83 760 182 q 447 -17 585 -17 z "},"ġ":{"ha":856,"x_min":108,"x_max":722,"o":"m 515 849 q 503 837 515 849 q 456 825 492 825 q 396 849 419 825 q 372 908 372 872 q 396 968 372 944 q 456 992 419 992 q 515 968 492 992 q 539 908 539 944 q 515 849 539 872 m 389 -287 l 317 -174 q 526 -124 468 -164 q 583 -6 583 -85 l 583 60 q 406 -17 521 -17 q 192 81 276 -17 q 108 356 108 178 q 191 626 108 526 q 408 726 274 726 q 583 658 518 726 l 583 710 l 722 710 l 722 54 q 641 -199 722 -121 q 389 -287 560 -276 m 431 114 q 583 201 531 114 l 583 513 q 431 596 531 596 q 296 534 342 596 q 250 356 250 472 q 299 179 250 244 q 431 114 347 114 z "},"Ģ":{"ha":856,"x_min":81,"x_max":760,"o":"m 447 -17 q 240 58 325 -17 q 117 242 154 132 q 81 486 81 353 q 119 728 81 617 q 243 915 157 840 q 447 989 329 989 q 621 940 556 989 q 732 807 686 892 l 606 735 q 447 856 540 856 q 319 797 371 856 q 248 658 268 738 q 228 486 228 578 q 284 225 228 332 q 447 118 340 118 q 569 173 526 118 q 613 318 613 228 l 613 351 l 440 351 l 440 483 l 760 483 l 760 358 q 672 83 760 182 q 447 -17 585 -17 m 411 -387 l 368 -361 q 432 -258 419 -318 q 381 -232 400 -254 q 363 -178 363 -210 q 388 -118 363 -142 q 446 -94 413 -94 q 506 -120 481 -94 q 531 -189 531 -146 q 498 -301 531 -247 q 411 -387 465 -354 z "},"ģ":{"ha":856,"x_min":101,"x_max":715,"o":"m 432 803 q 372 828 397 803 q 347 897 347 854 q 380 1009 347 956 q 465 1096 413 1063 l 508 1069 q 446 967 457 1026 q 496 940 478 963 q 514 886 514 918 q 489 826 514 850 q 432 803 464 803 m 382 -287 l 310 -174 q 519 -124 461 -164 q 576 -6 576 -85 l 576 60 q 399 -17 514 -17 q 185 81 269 -17 q 101 356 101 178 q 184 626 101 526 q 401 726 267 726 q 576 658 511 726 l 576 710 l 715 710 l 715 54 q 634 -199 715 -121 q 382 -287 553 -276 m 424 114 q 576 201 524 114 l 576 513 q 424 596 524 596 q 289 534 335 596 q 243 356 243 472 q 292 179 243 244 q 424 114 340 114 z "},"Ĥ":{"ha":856,"x_min":119,"x_max":736,"o":"m 567 1064 l 428 1182 l 289 1064 l 161 1064 l 357 1281 l 500 1281 l 696 1064 l 567 1064 m 119 0 l 119 972 l 263 972 l 263 571 l 594 571 l 594 972 l 736 972 l 736 0 l 594 0 l 594 436 l 263 436 l 263 0 l 119 0 z "},"ĥ":{"ha":856,"x_min":129,"x_max":728,"o":"m 578 1063 l 439 1181 l 300 1063 l 172 1063 l 368 1279 l 511 1279 l 707 1063 l 578 1063 m 129 0 l 129 939 l 268 1003 l 268 638 q 465 726 336 726 q 728 421 728 726 l 728 0 l 589 0 l 589 411 q 546 552 589 508 q 433 596 503 596 q 268 414 268 596 l 268 0 l 129 0 z "},"Ħ":{"ha":856,"x_min":14,"x_max":842,"o":"m 594 0 l 594 436 l 263 436 l 263 0 l 119 0 l 119 715 l 14 715 l 14 850 l 119 850 l 119 972 l 263 972 l 263 850 l 594 850 l 594 972 l 736 972 l 736 850 l 842 850 l 842 715 l 736 715 l 736 0 l 594 0 m 594 571 l 594 715 l 263 715 l 263 571 l 594 571 z "},"ħ":{"ha":856,"x_min":128,"x_max":789,"o":"m 213 0 l 213 757 l 128 757 l 128 871 l 213 871 l 213 939 l 351 1003 l 351 871 l 551 871 l 551 757 l 351 757 l 351 593 q 539 682 417 682 q 789 376 789 682 l 789 0 l 650 0 l 650 381 q 611 510 650 469 q 507 551 572 551 q 351 383 351 551 l 351 0 l 213 0 z "},"Ĩ":{"ha":856,"x_min":143,"x_max":711,"o":"m 308 1154 q 243 1093 247 1154 l 174 1093 q 318 1265 174 1265 q 444 1231 372 1265 q 547 1197 517 1197 q 593 1213 575 1197 q 613 1260 611 1229 l 682 1260 q 538 1088 682 1088 q 412 1121 485 1088 q 308 1154 339 1154 m 711 844 l 497 844 l 497 128 l 711 128 l 711 0 l 143 0 l 143 128 l 356 128 l 356 844 l 143 844 l 143 972 l 711 972 l 711 844 z "},"ĩ":{"ha":856,"x_min":153,"x_max":704,"o":"m 288 890 q 222 829 226 890 l 153 829 q 297 1001 153 1001 q 424 967 351 1001 q 526 933 496 933 q 572 949 554 933 q 592 996 590 965 l 661 996 q 517 824 661 824 q 391 857 464 824 q 288 890 318 890 m 508 124 l 704 124 l 704 0 l 174 0 l 174 124 l 369 124 l 369 599 l 174 599 l 174 722 l 508 722 l 508 124 z "},"Ī":{"ha":856,"x_min":144,"x_max":713,"o":"m 657 1211 l 657 1094 l 199 1094 l 199 1211 l 657 1211 m 713 844 l 499 844 l 499 128 l 713 128 l 713 0 l 144 0 l 144 128 l 357 128 l 357 844 l 144 844 l 144 972 l 713 972 l 713 844 z "},"ī":{"ha":856,"x_min":156,"x_max":704,"o":"m 614 947 l 614 831 l 156 831 l 156 947 l 614 947 m 508 124 l 704 124 l 704 0 l 174 0 l 174 124 l 369 124 l 369 599 l 174 599 l 174 722 l 508 722 l 508 124 z "},"Ĭ":{"ha":856,"x_min":144,"x_max":713,"o":"m 619 1130 q 587 1098 619 1130 q 428 1065 554 1065 q 236 1130 301 1065 q 171 1294 171 1194 l 288 1294 q 326 1208 288 1242 q 428 1174 364 1174 q 530 1208 492 1174 q 568 1294 568 1242 l 685 1294 q 619 1130 685 1194 m 713 844 l 499 844 l 499 128 l 713 128 l 713 0 l 144 0 l 144 128 l 357 128 l 357 844 l 144 844 l 144 972 l 713 972 l 713 844 z "},"ĭ":{"ha":856,"x_min":143,"x_max":704,"o":"m 592 866 q 559 834 592 866 q 400 801 526 801 q 208 866 274 801 q 143 1031 143 931 l 260 1031 q 298 944 260 978 q 400 910 336 910 q 502 944 464 910 q 540 1031 540 978 l 657 1031 q 592 866 657 931 m 508 124 l 704 124 l 704 0 l 174 0 l 174 124 l 369 124 l 369 599 l 174 599 l 174 722 l 508 722 l 508 124 z "},"Į":{"ha":856,"x_min":144,"x_max":713,"o":"m 474 -332 q 358 -294 403 -332 q 313 -189 313 -256 q 465 0 313 -64 l 144 0 l 144 128 l 357 128 l 357 844 l 144 844 l 144 972 l 713 972 l 713 844 l 499 844 l 499 128 l 713 128 l 713 0 l 642 0 q 488 -56 547 0 q 428 -175 428 -112 q 447 -228 428 -210 q 492 -246 465 -246 q 557 -217 531 -246 l 626 -267 q 474 -332 567 -332 z "},"į":{"ha":856,"x_min":174,"x_max":704,"o":"m 499 849 q 487 837 499 849 q 439 825 475 825 q 378 850 403 825 q 354 910 354 875 q 378 969 354 944 q 439 994 403 994 q 499 970 475 994 q 524 910 524 946 q 499 849 524 874 m 461 -332 q 345 -294 390 -332 q 300 -189 300 -256 q 453 0 300 -67 l 174 0 l 174 124 l 369 124 l 369 588 l 174 588 l 174 710 l 508 710 l 508 124 l 704 124 l 704 0 l 628 0 q 474 -57 533 0 q 415 -175 415 -114 q 434 -228 415 -210 q 479 -246 453 -246 q 544 -217 518 -246 l 614 -267 q 461 -332 554 -332 z "},"İ":{"ha":856,"x_min":144,"x_max":713,"o":"m 488 1113 q 476 1101 488 1113 q 428 1089 464 1089 q 368 1113 392 1089 q 344 1172 344 1136 q 368 1232 344 1208 q 428 1256 392 1256 q 488 1232 464 1256 q 511 1172 511 1208 q 488 1113 511 1136 m 713 844 l 499 844 l 499 128 l 713 128 l 713 0 l 144 0 l 144 128 l 357 128 l 357 844 l 144 844 l 144 972 l 713 972 l 713 844 z "},"ı":{"ha":856,"x_min":174,"x_max":704,"o":"m 508 124 l 704 124 l 704 0 l 174 0 l 174 124 l 369 124 l 369 599 l 174 599 l 174 722 l 508 722 l 508 124 z "},"Ĳ":{"ha":1711,"x_min":144,"x_max":1588,"o":"m 713 972 l 713 844 l 499 844 l 499 128 l 713 128 l 713 0 l 144 0 l 144 128 l 357 128 l 357 844 l 144 844 l 144 972 l 713 972 m 1444 972 l 1588 972 l 1588 324 q 1559 156 1588 226 q 1482 51 1531 86 q 1382 -1 1433 15 q 1274 -17 1331 -17 q 979 174 1061 -17 l 1099 232 q 1167 145 1129 172 q 1274 118 1206 118 q 1396 165 1347 118 q 1444 324 1444 211 l 1444 972 z "},"ĳ":{"ha":1711,"x_min":174,"x_max":1440,"o":"m 499 849 q 487 837 499 849 q 439 825 475 825 q 378 850 403 825 q 354 910 354 875 q 378 969 354 944 q 439 994 403 994 q 499 970 475 994 q 524 910 524 946 q 499 849 524 874 m 1416 849 q 1404 837 1416 849 q 1356 825 1392 825 q 1295 850 1319 825 q 1271 910 1271 875 q 1295 969 1271 944 q 1356 994 1319 994 q 1416 970 1392 994 q 1440 910 1440 946 q 1416 849 1440 874 m 508 710 l 508 124 l 704 124 l 704 0 l 174 0 l 174 124 l 369 124 l 369 588 l 174 588 l 174 710 l 508 710 m 1425 710 l 1425 -3 q 1357 -211 1425 -144 q 1139 -297 1289 -278 l 1071 -183 q 1241 -128 1196 -165 q 1286 -6 1286 -90 l 1286 588 l 1090 588 l 1090 710 l 1425 710 z "},"Ĵ":{"ha":856,"x_min":72,"x_max":878,"o":"m 749 1064 l 610 1182 l 471 1064 l 343 1064 l 539 1281 l 682 1281 l 878 1064 l 749 1064 m 367 -17 q 72 174 154 -17 l 192 232 q 260 145 222 172 q 367 118 299 118 q 489 165 440 118 q 538 324 538 211 l 538 972 l 681 972 l 681 324 q 652 156 681 226 q 575 51 624 86 q 475 -1 526 15 q 367 -17 424 -17 z "},"ĵ":{"ha":856,"x_min":182,"x_max":717,"o":"m 521 1017 l 717 800 l 588 800 l 449 918 l 310 800 l 182 800 l 378 1017 l 521 1017 m 569 710 l 569 -3 q 507 -206 569 -139 q 283 -297 432 -281 l 215 -183 q 385 -128 340 -165 q 431 -6 431 -90 l 431 588 l 235 588 l 235 710 l 569 710 z "},"Ķ":{"ha":856,"x_min":119,"x_max":797,"o":"m 460 629 l 797 0 l 633 0 l 364 508 l 263 382 l 263 0 l 119 0 l 119 972 l 263 972 l 263 581 l 569 972 l 735 972 l 460 629 m 438 -94 q 497 -120 472 -94 q 522 -189 522 -146 q 490 -301 522 -247 q 403 -387 457 -354 l 360 -361 q 424 -258 411 -318 q 373 -232 392 -254 q 354 -178 354 -210 q 379 -118 354 -142 q 438 -94 404 -94 z "},"ķ":{"ha":856,"x_min":132,"x_max":751,"o":"m 489 511 l 751 0 l 599 0 l 389 411 l 271 294 l 271 0 l 132 0 l 132 938 l 271 1003 l 271 451 l 525 710 l 689 710 l 489 511 m 419 -94 q 479 -120 454 -94 q 504 -189 504 -146 q 472 -301 504 -247 q 385 -387 439 -354 l 342 -361 q 406 -258 393 -318 q 355 -232 374 -254 q 336 -178 336 -210 q 361 -118 336 -142 q 419 -94 386 -94 z "},"ĸ":{"ha":856,"x_min":161,"x_max":756,"o":"m 600 0 l 421 333 l 300 185 l 300 0 l 161 0 l 161 710 l 300 710 l 300 368 l 571 710 l 724 710 l 513 447 l 756 0 l 600 0 z "},"Ĺ":{"ha":856,"x_min":100,"x_max":735,"o":"m 100 1068 l 297 1285 l 483 1285 l 236 1068 l 100 1068 m 136 0 l 136 972 l 279 972 l 279 138 l 735 138 l 735 0 l 136 0 z "},"ĺ":{"ha":856,"x_min":126,"x_max":700,"o":"m 685 1267 l 438 1050 l 301 1050 l 499 1267 l 685 1267 m 497 124 l 700 124 l 700 0 l 154 0 l 154 124 l 358 124 l 358 881 l 190 881 l 126 1003 l 497 1003 l 497 124 z "},"Ļ":{"ha":856,"x_min":119,"x_max":718,"o":"m 119 0 l 119 972 l 263 972 l 263 138 l 718 138 l 718 0 l 119 0 m 385 -387 l 342 -361 q 406 -258 393 -318 q 355 -232 374 -254 q 336 -178 336 -210 q 361 -118 336 -142 q 419 -94 386 -94 q 479 -120 454 -94 q 504 -189 504 -146 q 472 -301 504 -247 q 385 -387 439 -354 z "},"ļ":{"ha":856,"x_min":126,"x_max":700,"o":"m 497 124 l 700 124 l 700 0 l 154 0 l 154 124 l 358 124 l 358 881 l 190 881 l 126 1003 l 497 1003 l 497 124 m 428 -94 q 488 -120 463 -94 q 513 -189 513 -146 q 480 -301 513 -247 q 393 -387 447 -354 l 350 -361 q 414 -258 401 -318 q 363 -232 382 -254 q 344 -178 344 -210 q 369 -118 344 -142 q 428 -94 394 -94 z "},"Ľ":{"ha":856,"x_min":171,"x_max":769,"o":"m 171 0 l 171 972 l 314 972 l 314 138 l 769 138 l 769 0 l 171 0 m 456 635 l 413 667 q 443 794 431 704 q 456 972 456 883 l 588 972 l 588 961 q 456 635 588 761 z "},"ľ":{"ha":856,"x_min":126,"x_max":763,"o":"m 497 1003 l 497 124 l 700 124 l 700 0 l 154 0 l 154 124 l 358 124 l 358 881 l 190 881 l 126 1003 l 497 1003 m 631 1003 l 763 1003 l 763 992 q 631 665 763 792 l 588 697 q 618 824 606 735 q 631 1003 631 914 z "},"Ŀ":{"ha":856,"x_min":119,"x_max":722,"o":"m 119 0 l 119 972 l 263 972 l 263 138 l 718 138 l 718 0 l 119 0 m 692 415 q 677 400 692 415 q 619 385 663 385 q 547 415 576 385 q 517 485 517 444 q 547 556 517 526 q 619 586 576 586 q 692 556 663 586 q 722 485 722 526 q 692 415 722 444 z "},"ŀ":{"ha":856,"x_min":126,"x_max":958,"o":"m 497 1003 l 497 124 l 700 124 l 700 0 l 154 0 l 154 124 l 358 124 l 358 881 l 190 881 l 126 1003 l 497 1003 m 783 556 q 798 571 783 556 q 856 586 813 586 q 928 556 899 586 q 958 485 958 526 q 928 415 958 444 q 856 385 899 385 q 783 415 813 385 q 753 485 753 444 q 783 556 753 526 z "},"Ł":{"ha":856,"x_min":69,"x_max":772,"o":"m 168 0 l 168 335 l 69 261 l 69 417 l 168 490 l 168 972 l 310 972 l 310 601 l 486 735 l 486 579 l 310 446 l 310 138 l 772 138 l 772 0 l 168 0 z "},"ł":{"ha":856,"x_min":126,"x_max":700,"o":"m 497 124 l 700 124 l 700 0 l 154 0 l 154 124 l 358 124 l 358 354 l 253 274 l 253 404 l 358 485 l 358 881 l 190 881 l 126 1003 l 497 1003 l 497 592 l 603 672 l 603 542 l 497 461 l 497 124 z "},"Ń":{"ha":856,"x_min":119,"x_max":736,"o":"m 332 1068 l 529 1285 l 715 1285 l 468 1068 l 332 1068 m 119 0 l 119 972 l 257 972 l 575 332 q 604 272 594 296 q 601 332 601 325 l 601 972 l 736 972 l 736 0 l 604 0 l 282 638 q 273 656 279 643 q 261 679 267 668 q 251 699 256 690 q 254 639 254 676 l 254 0 l 119 0 z "},"ń":{"ha":856,"x_min":129,"x_max":728,"o":"m 689 1017 l 442 800 l 306 800 l 503 1017 l 689 1017 m 465 726 q 728 421 728 726 l 728 0 l 589 0 l 589 411 q 433 596 589 596 q 268 414 268 596 l 268 0 l 129 0 l 129 710 l 258 710 l 258 624 q 340 698 285 669 q 465 726 396 726 z "},"Ņ":{"ha":856,"x_min":119,"x_max":736,"o":"m 119 0 l 119 972 l 257 972 l 575 332 q 604 272 594 296 q 601 332 601 325 l 601 972 l 736 972 l 736 0 l 604 0 l 282 638 q 273 656 279 643 q 261 679 267 668 q 251 699 256 690 q 254 639 254 676 l 254 0 l 119 0 m 396 -387 l 353 -361 q 417 -258 404 -318 q 366 -232 385 -254 q 347 -178 347 -210 q 372 -118 347 -142 q 431 -94 397 -94 q 490 -120 465 -94 q 515 -189 515 -146 q 483 -301 515 -247 q 396 -387 450 -354 z "},"ņ":{"ha":856,"x_min":129,"x_max":728,"o":"m 465 726 q 728 421 728 726 l 728 0 l 589 0 l 589 411 q 433 596 589 596 q 268 414 268 596 l 268 0 l 129 0 l 129 710 l 258 710 l 258 624 q 340 698 285 669 q 465 726 396 726 m 428 -94 q 488 -120 463 -94 q 513 -189 513 -146 q 480 -301 513 -247 q 393 -387 447 -354 l 350 -361 q 414 -258 401 -318 q 363 -232 382 -254 q 344 -178 344 -210 q 369 -118 344 -142 q 428 -94 394 -94 z "},"Ň":{"ha":856,"x_min":119,"x_max":736,"o":"m 506 1064 l 364 1064 l 168 1281 l 296 1281 l 435 1163 l 574 1281 l 703 1281 l 506 1064 m 119 0 l 119 972 l 257 972 l 575 332 q 604 272 594 296 q 601 332 601 325 l 601 972 l 736 972 l 736 0 l 604 0 l 282 638 q 273 656 279 643 q 261 679 267 668 q 251 699 256 690 q 254 639 254 676 l 254 0 l 119 0 z "},"ň":{"ha":856,"x_min":125,"x_max":724,"o":"m 510 800 l 368 800 l 172 1017 l 300 1017 l 439 899 l 578 1017 l 707 1017 l 510 800 m 461 726 q 724 421 724 726 l 724 0 l 585 0 l 585 411 q 429 596 585 596 q 264 414 264 596 l 264 0 l 125 0 l 125 710 l 254 710 l 254 624 q 336 698 281 669 q 461 726 392 726 z "},"ŉ":{"ha":856,"x_min":-51,"x_max":856,"o":"m 54 1044 q 131 1011 100 1044 q 161 917 161 978 q 116 738 161 822 q 14 611 71 654 l -51 647 q 38 844 28 736 q -25 876 -1 851 q -49 942 -49 901 q -18 1016 -49 988 q 54 1044 13 1044 m 593 726 q 856 421 856 726 l 856 0 l 717 0 l 717 411 q 561 596 717 596 q 396 414 396 596 l 396 0 l 257 0 l 257 710 l 386 710 l 386 624 q 468 698 413 669 q 593 726 524 726 z "},"Ŋ":{"ha":856,"x_min":94,"x_max":763,"o":"m 501 -339 l 433 -228 q 578 -169 536 -212 q 621 -61 621 -126 l 621 14 l 264 638 q 233 699 247 665 q 236 639 236 676 l 236 0 l 94 0 l 94 972 l 232 972 l 593 332 q 624 272 618 286 q 621 332 621 325 l 621 972 l 763 972 l 763 -31 q 700 -240 763 -164 q 501 -339 638 -315 z "},"ŋ":{"ha":856,"x_min":129,"x_max":728,"o":"m 474 -318 l 406 -208 q 548 -158 507 -192 q 589 -65 589 -124 l 589 411 q 433 596 589 596 q 268 414 268 596 l 268 0 l 129 0 l 129 710 l 268 710 l 268 638 q 465 726 333 726 q 728 421 728 726 l 728 -24 q 674 -217 728 -151 q 474 -318 607 -299 z "},"Ō":{"ha":856,"x_min":78,"x_max":778,"o":"m 200 1094 l 200 1211 l 658 1211 l 658 1094 l 200 1094 m 428 -17 q 268 26 338 -17 q 158 140 199 68 q 98 300 118 213 q 78 486 78 388 q 98 672 78 585 q 158 832 118 760 q 268 947 199 904 q 428 989 338 989 q 589 947 519 989 q 699 832 658 904 q 758 672 739 760 q 778 486 778 585 q 758 300 778 388 q 699 140 739 213 q 589 26 658 68 q 428 -17 519 -17 m 428 118 q 544 174 496 118 q 611 310 592 229 q 631 486 631 390 q 581 751 631 646 q 428 856 531 856 q 313 799 360 856 q 246 663 265 743 q 226 486 226 582 q 276 223 226 328 q 428 118 326 118 z "},"ō":{"ha":856,"x_min":92,"x_max":764,"o":"m 199 831 l 199 947 l 657 947 l 657 831 l 199 831 m 673 83 q 627 33 673 83 q 428 -17 582 -17 q 183 83 274 -17 q 92 354 92 182 q 183 626 92 526 q 428 726 274 726 q 673 626 582 726 q 764 356 764 526 q 673 83 764 183 m 284 178 q 309 146 284 178 q 428 114 335 114 q 572 179 521 114 q 624 356 624 244 q 573 531 624 467 q 428 596 522 596 q 283 533 333 596 q 233 354 233 469 q 284 178 233 243 z "},"Ŏ":{"ha":856,"x_min":78,"x_max":778,"o":"m 619 1130 q 587 1098 619 1130 q 428 1065 554 1065 q 236 1130 301 1065 q 171 1294 171 1194 l 288 1294 q 326 1208 288 1242 q 428 1174 364 1174 q 530 1208 492 1174 q 568 1294 568 1242 l 685 1294 q 619 1130 685 1194 m 428 -17 q 268 26 338 -17 q 158 140 199 68 q 98 300 118 213 q 78 486 78 388 q 98 672 78 585 q 158 832 118 760 q 268 947 199 904 q 428 989 338 989 q 589 947 519 989 q 699 832 658 904 q 758 672 739 760 q 778 486 778 585 q 758 300 778 388 q 699 140 739 213 q 589 26 658 68 q 428 -17 519 -17 m 428 118 q 544 174 496 118 q 611 310 592 229 q 631 486 631 390 q 581 751 631 646 q 428 856 531 856 q 313 799 360 856 q 246 663 265 743 q 226 486 226 582 q 276 223 226 328 q 428 118 326 118 z "},"ŏ":{"ha":856,"x_min":92,"x_max":764,"o":"m 619 866 q 587 834 619 866 q 428 801 554 801 q 236 866 301 801 q 171 1031 171 931 l 288 1031 q 326 944 288 978 q 428 910 364 910 q 530 944 492 910 q 568 1031 568 978 l 685 1031 q 619 866 685 931 m 673 83 q 627 33 673 83 q 428 -17 582 -17 q 183 83 274 -17 q 92 354 92 182 q 183 626 92 526 q 428 726 274 726 q 673 626 582 726 q 764 356 764 526 q 673 83 764 183 m 284 178 q 309 146 284 178 q 428 114 335 114 q 572 179 521 114 q 624 356 624 244 q 573 531 624 467 q 428 596 522 596 q 283 533 333 596 q 233 354 233 469 q 284 178 233 243 z "},"Ő":{"ha":856,"x_min":78,"x_max":868,"o":"m 331 1064 l 193 1064 l 390 1281 l 578 1281 l 331 1064 m 621 1064 l 483 1064 l 681 1281 l 868 1281 l 621 1064 m 428 -17 q 268 26 338 -17 q 158 140 199 68 q 98 300 118 213 q 78 486 78 388 q 98 672 78 585 q 158 832 118 760 q 268 947 199 904 q 428 989 338 989 q 589 947 519 989 q 699 832 658 904 q 758 672 739 760 q 778 486 778 585 q 758 300 778 388 q 699 140 739 213 q 589 26 658 68 q 428 -17 519 -17 m 428 118 q 544 174 496 118 q 611 310 592 229 q 631 486 631 390 q 581 751 631 646 q 428 856 531 856 q 313 799 360 856 q 246 663 265 743 q 226 486 226 582 q 276 223 226 328 q 428 118 326 118 z "},"ő":{"ha":856,"x_min":92,"x_max":839,"o":"m 301 800 l 164 800 l 361 1017 l 549 1017 l 301 800 m 592 800 l 454 800 l 651 1017 l 839 1017 l 592 800 m 673 83 q 627 33 673 83 q 428 -17 582 -17 q 183 83 274 -17 q 92 354 92 182 q 183 626 92 526 q 428 726 274 726 q 673 626 582 726 q 764 356 764 526 q 673 83 764 183 m 284 178 q 309 146 284 178 q 428 114 335 114 q 572 179 521 114 q 624 356 624 244 q 573 531 624 467 q 428 596 522 596 q 283 533 333 596 q 233 354 233 469 q 284 178 233 243 z "},"Œ":{"ha":856,"x_min":18,"x_max":842,"o":"m 842 136 l 842 0 l 432 0 q 342 -17 392 -17 q 155 58 231 -17 q 49 242 79 133 q 18 488 18 351 q 36 675 18 588 q 92 835 54 763 q 193 950 129 908 q 342 992 257 992 q 432 975 392 992 l 829 975 l 829 840 l 571 840 l 571 586 l 764 586 l 764 451 l 571 451 l 571 136 l 842 136 m 342 118 q 429 161 390 118 l 429 815 q 342 858 393 858 q 259 826 294 858 q 203 741 224 794 q 173 624 183 688 q 163 488 163 560 q 207 223 163 328 q 342 118 251 118 z "},"œ":{"ha":856,"x_min":28,"x_max":826,"o":"m 254 -17 q 88 81 149 -17 q 28 354 28 178 q 89 628 28 529 q 256 726 150 726 q 432 599 371 726 q 615 726 492 726 q 766 640 706 726 q 826 388 826 553 q 821 300 826 340 l 482 300 q 524 153 489 211 q 614 96 558 96 q 725 172 671 96 l 783 83 q 608 -17 710 -17 q 429 103 493 -17 q 254 -17 369 -17 m 254 96 q 340 165 310 96 q 371 356 371 235 q 341 546 371 476 q 254 615 311 615 q 172 547 201 615 q 142 354 142 478 q 172 165 142 235 q 254 96 201 96 m 481 410 l 715 410 q 684 565 714 515 q 608 615 654 615 q 522 564 557 615 q 481 410 486 513 z "},"Ŕ":{"ha":856,"x_min":119,"x_max":749,"o":"m 703 1279 l 456 1063 l 319 1063 l 517 1279 l 703 1279 m 749 688 q 697 517 749 593 q 544 413 646 442 l 746 0 l 588 0 l 393 399 l 263 399 l 263 0 l 119 0 l 119 972 l 436 972 q 675 892 601 972 q 749 688 749 811 m 263 840 l 263 532 l 439 532 q 566 576 526 532 q 606 685 606 619 q 567 794 606 747 q 439 840 529 840 l 263 840 z "},"ŕ":{"ha":856,"x_min":71,"x_max":768,"o":"m 701 1017 l 454 800 l 318 800 l 515 1017 l 701 1017 m 607 726 q 768 690 706 726 l 768 436 l 632 436 l 632 593 q 603 594 622 594 q 428 542 496 594 q 361 390 361 489 l 361 124 l 564 124 l 564 0 l 71 0 l 71 124 l 219 124 l 219 588 l 71 588 l 71 710 l 351 710 l 351 593 q 456 690 385 654 q 607 726 528 726 z "},"Ŗ":{"ha":856,"x_min":119,"x_max":749,"o":"m 749 688 q 697 517 749 593 q 544 413 646 442 l 746 0 l 588 0 l 393 399 l 263 399 l 263 0 l 119 0 l 119 972 l 436 972 q 675 892 601 972 q 749 688 749 811 m 263 840 l 263 532 l 439 532 q 566 576 526 532 q 606 685 606 619 q 567 794 606 747 q 439 840 529 840 l 263 840 m 425 -94 q 485 -120 460 -94 q 510 -189 510 -146 q 477 -301 510 -247 q 390 -387 444 -354 l 347 -361 q 411 -258 399 -318 q 360 -232 379 -254 q 342 -178 342 -210 q 367 -118 342 -142 q 425 -94 392 -94 z "},"ŗ":{"ha":856,"x_min":76,"x_max":774,"o":"m 613 726 q 774 690 711 726 l 774 436 l 638 436 l 638 593 q 608 594 628 594 q 434 542 501 594 q 367 390 367 489 l 367 124 l 569 124 l 569 0 l 76 0 l 76 124 l 225 124 l 225 588 l 76 588 l 76 710 l 357 710 l 357 593 q 462 690 390 654 q 613 726 533 726 m 317 -108 q 376 -134 351 -108 q 401 -203 401 -160 q 369 -315 401 -261 q 282 -401 336 -368 l 239 -375 q 303 -272 290 -332 q 252 -246 271 -268 q 233 -192 233 -224 q 258 -132 233 -156 q 317 -108 283 -108 z "},"Ř":{"ha":856,"x_min":119,"x_max":749,"o":"m 499 1057 l 357 1057 l 161 1274 l 289 1274 l 428 1156 l 567 1274 l 696 1274 l 499 1057 m 749 688 q 697 517 749 593 q 544 413 646 442 l 746 0 l 588 0 l 393 399 l 263 399 l 263 0 l 119 0 l 119 972 l 436 972 q 675 892 601 972 q 749 688 749 811 m 263 840 l 263 532 l 439 532 q 566 576 526 532 q 606 685 606 619 q 567 794 606 747 q 439 840 529 840 l 263 840 z "},"ř":{"ha":856,"x_min":67,"x_max":764,"o":"m 499 800 l 357 800 l 161 1017 l 289 1017 l 428 899 l 567 1017 l 696 1017 l 499 800 m 603 726 q 764 690 701 726 l 764 436 l 628 436 l 628 593 q 599 594 618 594 q 424 542 492 594 q 357 390 357 489 l 357 124 l 560 124 l 560 0 l 67 0 l 67 124 l 215 124 l 215 588 l 67 588 l 67 710 l 347 710 l 347 593 q 452 690 381 654 q 603 726 524 726 z "},"Ś":{"ha":856,"x_min":108,"x_max":744,"o":"m 325 1064 l 522 1281 l 708 1281 l 461 1064 l 325 1064 m 438 -17 q 233 48 322 -17 q 108 215 144 113 l 240 264 q 324 157 269 197 q 447 117 379 117 q 559 154 518 117 q 600 263 600 192 q 547 370 600 325 q 403 456 494 415 q 308 501 344 481 q 228 557 272 522 q 162 638 183 592 q 140 742 140 683 q 219 917 140 846 q 426 989 297 989 q 603 936 529 989 q 701 800 678 883 l 572 757 q 513 828 553 800 q 419 857 474 857 q 322 826 360 857 q 285 742 285 794 q 298 692 285 714 q 340 649 311 669 q 393 617 369 629 q 463 585 417 606 q 467 583 465 583 q 471 581 468 582 q 475 579 474 581 q 569 530 531 553 q 653 469 608 507 q 721 381 697 432 q 744 267 744 329 q 657 60 744 136 q 438 -17 569 -17 z "},"ś":{"ha":856,"x_min":151,"x_max":706,"o":"m 322 800 l 519 1017 l 706 1017 l 458 800 l 322 800 m 428 -17 q 270 17 343 -17 q 151 110 197 51 l 244 192 q 438 103 328 103 q 528 124 493 103 q 564 186 564 146 q 407 307 564 243 q 403 309 404 308 q 399 311 401 310 q 394 313 396 313 q 389 315 392 314 q 297 356 329 340 q 229 399 265 372 q 177 458 193 425 q 161 536 161 492 q 235 675 161 624 q 424 726 310 726 q 679 615 582 726 l 588 539 q 418 607 511 607 q 326 588 361 607 q 292 535 292 568 q 444 426 292 486 q 453 422 450 424 q 525 393 503 403 q 587 361 547 383 q 645 318 626 339 q 679 263 664 297 q 694 189 694 229 q 622 38 694 93 q 428 -17 550 -17 z "},"Ŝ":{"ha":856,"x_min":108,"x_max":744,"o":"m 568 1064 l 429 1182 l 290 1064 l 163 1064 l 358 1281 l 501 1281 l 697 1064 l 568 1064 m 438 -17 q 233 48 322 -17 q 108 215 144 113 l 240 264 q 324 157 269 197 q 447 117 379 117 q 559 154 518 117 q 600 263 600 192 q 547 370 600 325 q 403 456 494 415 q 308 501 344 481 q 228 557 272 522 q 162 638 183 592 q 140 742 140 683 q 219 917 140 846 q 426 989 297 989 q 603 936 529 989 q 701 800 678 883 l 572 757 q 513 828 553 800 q 419 857 474 857 q 322 826 360 857 q 285 742 285 794 q 298 692 285 714 q 340 649 311 669 q 393 617 369 629 q 463 585 417 606 q 467 583 465 583 q 471 581 468 582 q 475 579 474 581 q 569 530 531 553 q 653 469 608 507 q 721 381 697 432 q 744 267 744 329 q 657 60 744 136 q 438 -17 569 -17 z "},"ŝ":{"ha":856,"x_min":153,"x_max":696,"o":"m 567 800 l 428 918 l 289 800 l 161 800 l 357 1017 l 500 1017 l 696 800 l 567 800 m 429 -17 q 272 17 344 -17 q 153 110 199 51 l 246 192 q 439 103 329 103 q 530 124 494 103 q 565 186 565 146 q 408 307 565 243 q 404 309 406 308 q 400 311 403 310 q 395 313 397 313 q 390 315 393 314 q 299 356 331 340 q 231 399 267 372 q 178 458 194 425 q 163 536 163 492 q 237 675 163 624 q 425 726 311 726 q 681 615 583 726 l 589 539 q 419 607 513 607 q 328 588 363 607 q 293 535 293 568 q 446 426 293 486 q 454 422 451 424 q 526 393 504 403 q 588 361 549 383 q 647 318 628 339 q 681 263 665 297 q 696 189 696 229 q 624 38 696 93 q 429 -17 551 -17 z "},"Ş":{"ha":856,"x_min":118,"x_max":799,"o":"m 463 -332 q 325 -281 372 -332 l 396 -231 q 449 -250 411 -250 q 500 -233 481 -250 q 519 -187 519 -215 q 497 -145 519 -162 q 443 -128 475 -128 q 388 -140 411 -128 l 361 -107 l 435 -15 q 236 56 321 -7 q 118 215 151 119 l 250 264 q 339 158 281 197 q 472 118 397 118 q 605 156 557 118 q 653 265 653 193 q 599 374 653 332 q 446 451 544 417 q 360 484 393 471 q 283 524 328 497 q 213 578 239 550 q 169 648 188 606 q 150 742 150 690 q 233 918 150 847 q 458 989 317 989 q 652 937 574 989 q 756 800 731 885 l 626 757 q 450 856 581 856 q 337 825 378 856 q 296 742 296 794 q 347 653 296 688 q 494 585 397 619 q 581 551 546 567 q 660 508 615 536 q 733 449 706 481 q 779 371 760 418 q 799 267 799 324 q 722 72 799 146 q 517 -14 644 -1 l 483 -71 q 597 -104 560 -71 q 635 -189 635 -137 q 588 -292 635 -253 q 463 -332 540 -332 z "},"ş":{"ha":856,"x_min":197,"x_max":719,"o":"m 439 -332 q 301 -281 349 -332 l 372 -231 q 426 -250 388 -250 q 477 -233 458 -250 q 496 -187 496 -215 q 474 -145 496 -162 q 419 -128 451 -128 q 365 -140 389 -128 l 338 -107 l 413 -12 q 197 110 274 10 l 292 190 q 467 103 369 103 q 556 124 522 103 q 590 186 590 144 q 565 243 590 218 q 513 281 539 268 q 425 317 486 293 q 263 405 317 358 q 210 536 210 451 q 278 675 210 624 q 453 726 347 726 q 699 615 604 726 l 606 539 q 451 607 535 607 q 369 588 400 607 q 339 535 339 568 q 377 474 339 497 q 490 424 415 450 q 558 397 531 408 q 619 364 586 385 q 672 320 653 343 q 706 263 692 297 q 719 189 719 229 q 659 47 719 100 q 494 -15 599 -7 l 461 -71 q 575 -104 538 -71 q 613 -189 613 -137 q 565 -292 613 -253 q 439 -332 518 -332 z "},"Š":{"ha":856,"x_min":108,"x_max":744,"o":"m 357 1057 l 161 1274 l 289 1274 l 428 1156 l 567 1274 l 696 1274 l 499 1057 l 357 1057 m 438 -17 q 233 48 322 -17 q 108 215 144 113 l 240 264 q 324 157 269 197 q 447 117 379 117 q 559 154 518 117 q 600 263 600 192 q 547 370 600 325 q 403 456 494 415 q 308 501 344 481 q 228 557 272 522 q 162 638 183 592 q 140 742 140 683 q 219 917 140 846 q 426 989 297 989 q 603 936 529 989 q 701 800 678 883 l 572 757 q 513 828 553 800 q 419 857 474 857 q 322 826 360 857 q 285 742 285 794 q 298 692 285 714 q 340 649 311 669 q 393 617 369 629 q 463 585 417 606 q 467 583 465 583 q 471 581 468 582 q 475 579 474 581 q 569 530 531 553 q 653 469 608 507 q 721 381 697 432 q 744 267 744 329 q 657 60 744 136 q 438 -17 569 -17 z "},"š":{"ha":856,"x_min":151,"x_max":696,"o":"m 499 800 l 357 800 l 161 1017 l 289 1017 l 428 899 l 567 1017 l 696 1017 l 499 800 m 428 -17 q 270 17 343 -17 q 151 110 197 51 l 244 192 q 438 103 328 103 q 528 124 493 103 q 564 186 564 146 q 407 307 564 243 q 403 309 404 308 q 399 311 401 310 q 394 313 396 313 q 389 315 392 314 q 297 356 329 340 q 229 399 265 372 q 177 458 193 425 q 161 536 161 492 q 235 675 161 624 q 424 726 310 726 q 679 615 582 726 l 588 539 q 418 607 511 607 q 326 588 361 607 q 292 535 292 568 q 444 426 292 486 q 453 422 450 424 q 525 393 503 403 q 587 361 547 383 q 645 318 626 339 q 679 263 664 297 q 694 189 694 229 q 622 38 694 93 q 428 -17 550 -17 z "},"Ţ":{"ha":856,"x_min":114,"x_max":801,"o":"m 433 -332 q 296 -281 343 -332 l 367 -231 q 421 -250 382 -250 q 472 -233 453 -250 q 490 -187 490 -215 q 469 -145 490 -162 q 414 -128 447 -128 q 360 -140 383 -128 l 332 -107 l 419 0 l 386 0 l 386 838 l 114 838 l 114 972 l 801 972 l 801 838 l 529 838 l 529 0 l 499 0 l 456 -71 q 569 -104 532 -71 q 607 -189 607 -137 q 560 -292 607 -253 q 433 -332 513 -332 z "},"ţ":{"ha":856,"x_min":246,"x_max":671,"o":"m 471 -332 q 333 -281 381 -332 l 404 -231 q 458 -250 419 -250 q 508 -233 489 -250 q 528 -187 528 -215 q 506 -145 528 -162 q 451 -128 485 -128 q 397 -140 419 -128 l 369 -107 l 450 -7 q 357 158 357 24 l 357 588 l 246 588 l 246 710 l 357 710 l 357 936 l 496 1003 l 496 710 l 665 710 l 665 588 l 496 588 l 496 193 q 558 108 496 108 q 671 144 608 108 l 654 15 q 544 -15 603 -11 l 526 -15 l 493 -71 q 607 -104 569 -71 q 644 -189 644 -137 q 597 -292 644 -253 q 471 -332 550 -332 z "},"Ť":{"ha":856,"x_min":75,"x_max":781,"o":"m 357 1057 l 161 1274 l 289 1274 l 428 1156 l 567 1274 l 696 1274 l 499 1057 l 357 1057 m 357 0 l 357 836 l 75 836 l 75 972 l 781 972 l 781 836 l 499 836 l 499 0 l 357 0 z "},"ť":{"ha":856,"x_min":104,"x_max":686,"o":"m 554 829 l 511 861 q 542 988 529 899 q 554 1167 554 1078 l 686 1167 l 686 1156 q 554 829 686 956 m 454 -17 q 260 169 260 -17 l 260 588 l 104 588 l 104 710 l 260 710 l 260 936 l 399 1003 l 399 710 l 638 710 l 638 588 l 399 588 l 399 203 q 421 132 399 156 q 500 108 443 108 q 625 144 563 108 l 610 15 q 454 -17 549 -17 z "},"Ŧ":{"ha":856,"x_min":83,"x_max":771,"o":"m 356 0 l 356 375 l 188 375 l 188 508 l 356 508 l 356 836 l 83 836 l 83 972 l 771 972 l 771 836 l 499 836 l 499 508 l 667 508 l 667 375 l 499 375 l 499 0 l 356 0 z "},"ŧ":{"ha":856,"x_min":143,"x_max":678,"o":"m 678 301 l 438 301 l 438 203 q 460 132 438 156 q 539 108 482 108 q 664 144 601 108 l 649 15 q 493 -17 588 -17 q 299 169 299 -17 l 299 301 l 143 301 l 143 424 l 299 424 l 299 588 l 143 588 l 143 710 l 299 710 l 299 936 l 438 1003 l 438 710 l 676 710 l 676 588 l 438 588 l 438 424 l 678 424 l 678 301 z "},"Ũ":{"ha":856,"x_min":107,"x_max":749,"o":"m 538 1088 q 412 1121 485 1088 q 308 1154 339 1154 q 243 1093 247 1154 l 174 1093 q 318 1265 174 1265 q 444 1231 372 1265 q 547 1197 517 1197 q 593 1213 575 1197 q 613 1260 611 1229 l 682 1260 q 538 1088 682 1088 m 428 -17 q 194 76 282 -17 q 107 369 107 168 l 107 972 l 250 972 l 250 369 q 428 118 250 118 q 607 369 607 118 l 607 972 l 749 972 l 749 369 q 662 76 749 169 q 428 -17 575 -17 z "},"ũ":{"ha":856,"x_min":128,"x_max":728,"o":"m 538 824 q 412 857 485 824 q 308 890 339 890 q 243 829 247 890 l 174 829 q 318 1001 174 1001 q 444 967 372 1001 q 547 933 517 933 q 593 949 575 933 q 613 996 611 965 l 682 996 q 538 824 682 824 m 394 -17 q 128 294 128 -17 l 128 710 l 268 710 l 268 304 q 310 160 268 206 q 422 115 353 115 q 588 301 588 115 l 588 710 l 728 710 l 728 0 l 588 0 l 588 69 q 394 -17 521 -17 z "},"Ū":{"ha":856,"x_min":107,"x_max":749,"o":"m 199 1094 l 199 1211 l 657 1211 l 657 1094 l 199 1094 m 428 -17 q 194 76 282 -17 q 107 369 107 168 l 107 972 l 250 972 l 250 369 q 428 118 250 118 q 607 369 607 118 l 607 972 l 749 972 l 749 369 q 662 76 749 169 q 428 -17 575 -17 z "},"ū":{"ha":856,"x_min":128,"x_max":728,"o":"m 197 831 l 197 947 l 656 947 l 656 831 l 197 831 m 394 -17 q 128 294 128 -17 l 128 710 l 268 710 l 268 304 q 310 160 268 206 q 422 115 353 115 q 588 301 588 115 l 588 710 l 728 710 l 728 0 l 588 0 l 588 69 q 394 -17 521 -17 z "},"Ŭ":{"ha":856,"x_min":107,"x_max":749,"o":"m 619 1130 q 587 1098 619 1130 q 428 1065 554 1065 q 236 1130 301 1065 q 171 1294 171 1194 l 288 1294 q 326 1208 288 1242 q 428 1174 364 1174 q 530 1208 492 1174 q 568 1294 568 1242 l 685 1294 q 619 1130 685 1194 m 428 -17 q 194 76 282 -17 q 107 369 107 168 l 107 972 l 250 972 l 250 369 q 428 118 250 118 q 607 369 607 118 l 607 972 l 749 972 l 749 369 q 662 76 749 169 q 428 -17 575 -17 z "},"ŭ":{"ha":856,"x_min":128,"x_max":728,"o":"m 618 866 q 585 834 618 866 q 426 801 553 801 q 235 866 300 801 q 169 1031 169 931 l 286 1031 q 324 944 286 978 q 426 910 363 910 q 528 944 490 910 q 567 1031 567 978 l 683 1031 q 618 866 683 931 m 394 -17 q 128 294 128 -17 l 128 710 l 268 710 l 268 304 q 310 160 268 206 q 422 115 353 115 q 588 301 588 115 l 588 710 l 728 710 l 728 0 l 588 0 l 588 69 q 394 -17 521 -17 z "},"Ů":{"ha":856,"x_min":107,"x_max":749,"o":"m 548 1054 q 523 1029 548 1054 q 428 1004 497 1004 q 308 1053 358 1004 q 258 1172 258 1103 q 308 1290 258 1242 q 428 1339 358 1339 q 549 1290 499 1339 q 599 1172 599 1242 q 548 1054 599 1104 m 381 1122 q 391 1111 381 1122 q 428 1101 400 1101 q 475 1122 456 1101 q 494 1172 494 1142 q 475 1222 494 1203 q 428 1242 456 1242 q 381 1222 400 1242 q 363 1172 363 1203 q 381 1122 363 1142 m 428 -17 q 194 76 282 -17 q 107 369 107 168 l 107 972 l 250 972 l 250 369 q 428 118 250 118 q 607 369 607 118 l 607 972 l 749 972 l 749 369 q 662 76 749 169 q 428 -17 575 -17 z "},"ů":{"ha":856,"x_min":128,"x_max":728,"o":"m 548 790 q 523 765 548 790 q 428 740 497 740 q 308 790 358 740 q 258 908 258 839 q 308 1026 258 978 q 428 1075 358 1075 q 549 1026 499 1075 q 599 908 599 978 q 548 790 599 840 m 381 858 q 391 848 381 858 q 428 838 400 838 q 475 858 456 838 q 494 908 494 878 q 475 958 494 939 q 428 978 456 978 q 381 958 400 978 q 363 908 363 939 q 381 858 363 878 m 394 -17 q 128 294 128 -17 l 128 710 l 268 710 l 268 304 q 310 160 268 206 q 422 115 353 115 q 588 301 588 115 l 588 710 l 728 710 l 728 0 l 588 0 l 588 69 q 394 -17 521 -17 z "},"Ű":{"ha":856,"x_min":96,"x_max":839,"o":"m 301 1064 l 164 1064 l 361 1281 l 549 1281 l 301 1064 m 592 1064 l 454 1064 l 651 1281 l 839 1281 l 592 1064 m 417 -17 q 183 76 271 -17 q 96 369 96 168 l 96 972 l 239 972 l 239 369 q 417 118 239 118 q 596 369 596 118 l 596 972 l 738 972 l 738 369 q 651 76 738 169 q 417 -17 564 -17 z "},"ű":{"ha":856,"x_min":97,"x_max":829,"o":"m 292 800 l 154 800 l 351 1017 l 539 1017 l 292 800 m 582 800 l 444 800 l 642 1017 l 829 1017 l 582 800 m 364 -17 q 97 294 97 -17 l 97 710 l 238 710 l 238 304 q 280 160 238 206 q 392 115 322 115 q 557 301 557 115 l 557 710 l 697 710 l 697 0 l 557 0 l 557 69 q 364 -17 490 -17 z "},"Ų":{"ha":856,"x_min":107,"x_max":749,"o":"m 607 972 l 749 972 l 749 369 q 557 4 749 76 q 440 -79 478 -32 q 401 -175 401 -126 q 420 -228 401 -210 q 465 -246 439 -246 q 531 -217 504 -246 l 600 -267 q 447 -332 540 -332 q 331 -294 376 -332 q 286 -189 286 -256 q 406 -17 286 -81 q 188 83 268 -10 q 107 369 107 176 l 107 972 l 250 972 l 250 369 q 428 118 250 118 q 607 369 607 118 l 607 972 z "},"ų":{"ha":856,"x_min":128,"x_max":731,"o":"m 582 -346 q 463 -308 508 -346 q 417 -203 417 -269 q 461 -83 417 -136 q 588 0 506 -29 l 588 69 q 394 -17 521 -17 q 128 294 128 -17 l 128 710 l 268 710 l 268 304 q 310 160 268 206 q 422 115 353 115 q 588 301 588 115 l 588 710 l 728 710 l 728 0 q 583 -75 635 -19 q 532 -189 532 -131 q 551 -242 532 -224 q 596 -260 569 -260 q 661 -231 635 -260 l 731 -281 q 582 -346 671 -346 z "},"Ŵ":{"ha":856,"x_min":36,"x_max":819,"o":"m 567 1064 l 428 1182 l 289 1064 l 161 1064 l 357 1281 l 500 1281 l 696 1064 l 567 1064 m 185 0 l 36 972 l 167 972 l 251 363 l 260 297 q 272 363 264 331 l 385 972 l 472 972 l 586 367 q 599 306 594 332 q 603 338 600 318 q 606 365 606 358 l 683 972 l 819 972 l 671 0 l 557 0 l 439 617 q 428 683 435 636 q 417 618 425 663 l 299 0 l 185 0 z "},"ŵ":{"ha":856,"x_min":28,"x_max":828,"o":"m 567 800 l 428 918 l 289 800 l 161 800 l 357 1017 l 500 1017 l 696 800 l 567 800 m 208 0 l 28 710 l 158 710 l 256 297 q 268 233 264 264 q 281 299 278 285 l 374 710 l 482 710 l 576 299 q 589 229 579 288 q 603 299 594 265 l 697 710 l 828 710 l 647 0 l 536 0 l 444 399 q 428 483 429 478 q 418 439 425 468 q 410 400 411 410 l 321 0 l 208 0 z "},"Ŷ":{"ha":856,"x_min":75,"x_max":782,"o":"m 428 1182 l 289 1064 l 161 1064 l 357 1281 l 500 1281 l 696 1064 l 567 1064 l 428 1182 m 626 972 l 782 972 l 500 382 l 500 0 l 358 0 l 358 382 l 75 972 l 233 972 l 429 529 l 626 972 z "},"ŷ":{"ha":856,"x_min":94,"x_max":761,"o":"m 564 800 l 425 918 l 286 800 l 158 800 l 354 1017 l 497 1017 l 693 800 l 564 800 m 250 -269 l 357 17 l 94 710 l 236 710 l 403 253 q 425 185 413 225 q 449 253 432 208 l 617 710 l 761 710 l 392 -269 l 250 -269 z "},"Ÿ":{"ha":856,"x_min":75,"x_max":782,"o":"m 363 1113 q 351 1101 363 1113 q 304 1089 339 1089 q 245 1113 269 1089 q 221 1172 221 1136 q 245 1232 221 1208 q 304 1256 269 1256 q 363 1232 339 1256 q 388 1172 388 1208 q 363 1113 388 1136 m 610 1113 q 598 1101 610 1113 q 551 1089 586 1089 q 492 1113 517 1089 q 468 1172 468 1136 q 492 1232 468 1208 q 551 1256 517 1256 q 610 1232 586 1256 q 635 1172 635 1208 q 610 1113 635 1136 m 626 972 l 782 972 l 500 382 l 500 0 l 358 0 l 358 382 l 75 972 l 233 972 l 429 529 l 626 972 z "},"Ź":{"ha":856,"x_min":107,"x_max":750,"o":"m 717 1285 l 469 1068 l 333 1068 l 531 1285 l 717 1285 m 750 972 l 750 865 l 290 135 l 747 135 l 747 0 l 107 0 l 107 106 l 564 838 l 139 838 l 139 972 l 750 972 z "},"ź":{"ha":856,"x_min":149,"x_max":722,"o":"m 339 800 l 536 1017 l 722 1017 l 475 800 l 339 800 m 149 0 l 149 101 l 528 586 l 176 586 l 176 710 l 707 710 l 707 613 l 328 125 l 706 125 l 706 0 l 149 0 z "},"Ż":{"ha":856,"x_min":107,"x_max":750,"o":"m 501 1113 q 490 1101 501 1113 q 442 1089 478 1089 q 382 1113 406 1089 q 358 1172 358 1136 q 382 1232 358 1208 q 442 1256 406 1256 q 501 1232 478 1256 q 525 1172 525 1208 q 501 1113 525 1136 m 750 972 l 750 865 l 290 135 l 747 135 l 747 0 l 107 0 l 107 106 l 564 838 l 139 838 l 139 972 l 750 972 z "},"ż":{"ha":856,"x_min":149,"x_max":707,"o":"m 493 849 q 481 837 493 849 q 433 825 469 825 q 374 849 397 825 q 350 908 350 872 q 374 968 350 944 q 433 992 397 992 q 493 968 469 992 q 517 908 517 944 q 493 849 517 872 m 149 0 l 149 101 l 528 586 l 176 586 l 176 710 l 707 710 l 707 613 l 328 125 l 706 125 l 706 0 l 149 0 z "},"Ž":{"ha":856,"x_min":107,"x_max":750,"o":"m 513 1064 l 371 1064 l 175 1281 l 303 1281 l 442 1163 l 581 1281 l 710 1281 l 513 1064 m 750 972 l 750 865 l 290 135 l 747 135 l 747 0 l 107 0 l 107 106 l 564 838 l 139 838 l 139 972 l 750 972 z "},"ž":{"ha":856,"x_min":135,"x_max":693,"o":"m 490 800 l 349 800 l 153 1017 l 281 1017 l 419 899 l 558 1017 l 688 1017 l 490 800 m 135 0 l 135 101 l 514 586 l 163 586 l 163 710 l 693 710 l 693 613 l 314 125 l 692 125 l 692 0 l 135 0 z "},"ſ":{"ha":856,"x_min":308,"x_max":608,"o":"m 308 0 l 308 825 q 354 951 308 914 q 469 989 400 989 q 608 956 544 989 l 608 839 q 507 865 554 865 q 447 799 447 865 l 447 0 l 308 0 z "},"Ə":{"ha":856,"x_min":78,"x_max":778,"o":"m 143 860 q 425 989 263 989 q 683 854 588 989 q 778 485 778 719 q 679 118 778 253 q 418 -17 581 -17 q 172 108 267 -17 q 78 449 78 233 q 82 553 78 510 l 626 553 q 560 774 614 696 q 422 853 507 853 q 321 828 364 853 q 233 757 278 804 l 143 860 m 418 118 q 629 419 614 118 l 231 419 q 280 199 229 279 q 418 118 331 118 z "},"ƒ":{"ha":856,"x_min":185,"x_max":669,"o":"m 253 -318 l 185 -208 q 328 -158 288 -192 q 369 -65 369 -124 l 369 586 l 263 586 l 263 710 l 369 710 l 369 825 q 415 951 369 913 q 531 989 461 989 q 669 956 606 989 l 669 839 q 568 865 613 865 q 508 799 508 865 l 508 710 l 669 710 l 669 586 l 508 586 l 508 -29 q 442 -231 508 -164 q 253 -318 375 -297 z "},"Ǎ":{"ha":856,"x_min":44,"x_max":813,"o":"m 494 1064 l 353 1064 l 157 1281 l 285 1281 l 424 1163 l 563 1281 l 692 1281 l 494 1064 m 661 0 l 592 226 l 265 226 l 197 0 l 44 0 l 363 972 l 492 972 l 813 0 l 661 0 m 306 356 l 551 356 l 453 678 q 428 779 438 728 q 403 678 418 728 l 306 356 z "},"ǎ":{"ha":856,"x_min":114,"x_max":711,"o":"m 513 800 l 371 800 l 175 1017 l 303 1017 l 442 899 l 581 1017 l 710 1017 l 513 800 m 374 -17 q 186 45 258 -17 q 114 221 114 107 q 195 396 114 336 q 392 456 276 456 q 576 414 497 456 l 576 463 q 432 606 576 606 q 206 532 322 606 l 164 646 q 444 726 290 726 q 711 467 711 726 l 711 0 l 576 0 l 576 61 q 374 -17 496 -17 m 396 106 q 576 189 499 106 l 576 296 q 413 338 503 338 q 294 308 342 338 q 247 221 247 278 q 287 137 247 168 q 396 106 326 106 z "},"Ǐ":{"ha":856,"x_min":144,"x_max":713,"o":"m 499 1064 l 357 1064 l 161 1281 l 289 1281 l 428 1163 l 567 1281 l 696 1281 l 499 1064 m 713 844 l 499 844 l 499 128 l 713 128 l 713 0 l 144 0 l 144 128 l 357 128 l 357 844 l 144 844 l 144 972 l 713 972 l 713 844 z "},"ǐ":{"ha":856,"x_min":161,"x_max":704,"o":"m 499 800 l 357 800 l 161 1017 l 289 1017 l 428 899 l 567 1017 l 696 1017 l 499 800 m 508 124 l 704 124 l 704 0 l 174 0 l 174 124 l 369 124 l 369 599 l 174 599 l 174 722 l 508 722 l 508 124 z "},"Ǒ":{"ha":856,"x_min":78,"x_max":778,"o":"m 499 1064 l 357 1064 l 161 1281 l 289 1281 l 428 1163 l 567 1281 l 696 1281 l 499 1064 m 428 -17 q 268 26 338 -17 q 158 140 199 68 q 98 300 118 213 q 78 486 78 388 q 98 672 78 585 q 158 832 118 760 q 268 947 199 904 q 428 989 338 989 q 589 947 519 989 q 699 832 658 904 q 758 672 739 760 q 778 486 778 585 q 758 300 778 388 q 699 140 739 213 q 589 26 658 68 q 428 -17 519 -17 m 428 118 q 544 174 496 118 q 611 310 592 229 q 631 486 631 390 q 581 751 631 646 q 428 856 531 856 q 313 799 360 856 q 246 663 265 743 q 226 486 226 582 q 276 223 226 328 q 428 118 326 118 z "},"ǒ":{"ha":856,"x_min":90,"x_max":763,"o":"m 499 800 l 357 800 l 161 1017 l 289 1017 l 428 899 l 567 1017 l 696 1017 l 499 800 m 672 83 q 626 33 672 83 q 426 -17 581 -17 q 181 83 272 -17 q 90 354 90 182 q 181 626 90 526 q 426 726 272 726 q 672 626 581 726 q 763 356 763 526 q 672 83 763 183 m 283 178 q 308 146 283 178 q 426 114 333 114 q 571 179 519 114 q 622 356 622 244 q 572 531 622 467 q 426 596 521 596 q 282 533 332 596 q 232 354 232 469 q 283 178 232 243 z "},"Ǔ":{"ha":856,"x_min":107,"x_max":749,"o":"m 499 1064 l 357 1064 l 161 1281 l 289 1281 l 428 1163 l 567 1281 l 696 1281 l 499 1064 m 428 -17 q 194 76 282 -17 q 107 369 107 168 l 107 972 l 250 972 l 250 369 q 428 118 250 118 q 607 369 607 118 l 607 972 l 749 972 l 749 369 q 662 76 749 169 q 428 -17 575 -17 z "},"ǔ":{"ha":856,"x_min":128,"x_max":728,"o":"m 497 800 l 356 800 l 160 1017 l 288 1017 l 426 899 l 565 1017 l 694 1017 l 497 800 m 394 -17 q 128 294 128 -17 l 128 710 l 268 710 l 268 304 q 310 160 268 206 q 422 115 353 115 q 588 301 588 115 l 588 710 l 728 710 l 728 0 l 588 0 l 588 69 q 394 -17 521 -17 z "},"Ǻ":{"ha":856,"x_min":44,"x_max":813,"o":"m 728 1475 l 481 1258 l 344 1258 l 542 1475 l 728 1475 m 661 0 l 592 226 l 265 226 l 197 0 l 44 0 l 340 904 q 281 965 303 926 q 258 1047 258 1003 q 308 1165 258 1117 q 428 1214 358 1214 q 549 1165 499 1214 q 599 1047 599 1117 q 514 903 599 953 l 813 0 l 661 0 m 475 1097 q 465 1107 475 1097 q 428 1117 456 1117 q 381 1097 400 1117 q 363 1047 363 1078 q 381 997 363 1017 q 428 976 400 976 q 475 997 456 976 q 494 1047 494 1017 q 475 1097 494 1078 m 306 356 l 551 356 l 453 678 q 428 779 438 728 q 403 678 418 728 l 306 356 z "},"ǻ":{"ha":856,"x_min":118,"x_max":738,"o":"m 354 1189 l 551 1406 l 738 1406 l 490 1189 l 354 1189 m 572 839 q 546 814 572 839 q 451 789 521 789 q 332 838 382 789 q 282 957 282 888 q 332 1075 282 1026 q 451 1124 382 1124 q 572 1075 522 1124 q 622 957 622 1026 q 572 839 622 889 m 405 906 q 414 896 405 906 q 451 886 424 886 q 499 906 479 886 q 518 957 518 926 q 499 1007 518 988 q 451 1026 479 1026 q 405 1007 424 1026 q 386 957 386 988 q 405 906 386 926 m 378 -17 q 190 45 263 -17 q 118 221 118 107 q 199 396 118 336 q 396 456 281 456 q 581 414 501 456 l 581 463 q 436 606 581 606 q 210 532 326 606 l 168 646 q 449 726 294 726 q 715 467 715 726 l 715 0 l 581 0 l 581 61 q 378 -17 500 -17 m 400 106 q 581 189 503 106 l 581 296 q 417 338 507 338 q 299 308 346 338 q 251 221 251 278 q 291 137 251 168 q 400 106 331 106 z "},"Ǽ":{"ha":856,"x_min":0,"x_max":865,"o":"m 865 1285 l 618 1068 l 482 1068 l 679 1285 l 865 1285 m 603 436 l 603 133 l 851 133 l 851 0 l 468 0 l 468 226 l 246 226 l 154 0 l 0 0 l 413 972 l 822 972 l 822 839 l 603 839 l 603 568 l 768 568 l 768 436 l 603 436 m 297 356 l 468 357 l 468 788 q 454 749 464 778 q 440 710 444 719 l 297 356 z "},"ǽ":{"ha":856,"x_min":32,"x_max":824,"o":"m 344 800 l 542 1017 l 728 1017 l 481 800 l 344 800 m 222 -17 q 85 45 138 -17 q 32 221 32 107 q 91 397 32 338 q 238 457 150 457 q 358 418 301 457 l 358 454 q 257 614 358 614 q 101 536 179 614 l 69 646 q 272 726 167 726 q 429 618 386 726 q 607 726 492 726 q 763 638 701 726 q 824 388 824 550 q 818 300 824 361 l 471 300 q 513 156 474 215 q 606 96 551 96 q 719 171 667 96 l 779 83 q 600 -17 701 -17 q 417 113 483 -17 q 330 15 382 47 q 222 -17 278 -17 m 471 411 l 708 411 q 676 563 707 514 q 600 613 646 613 q 512 562 547 613 q 471 411 476 511 m 239 94 q 314 128 278 94 q 371 206 350 161 q 358 299 361 246 q 250 347 310 347 q 175 315 206 347 q 144 219 144 282 q 169 129 144 164 q 239 94 194 94 z "},"Ǿ":{"ha":856,"x_min":21,"x_max":835,"o":"m 713 1285 l 465 1068 l 329 1068 l 526 1285 l 713 1285 m 835 989 l 713 807 q 778 486 778 676 q 758 300 778 388 q 699 140 739 213 q 589 26 658 68 q 428 -17 519 -17 q 215 67 301 -17 l 160 -17 l 21 -17 l 143 167 q 78 486 78 299 q 98 672 78 585 q 158 832 118 760 q 268 947 199 904 q 428 989 338 989 q 639 907 554 989 l 694 989 l 835 989 m 246 663 q 236 622 246 663 q 226 486 226 582 q 244 317 226 390 l 558 786 q 428 856 510 856 q 313 799 360 856 q 246 663 265 743 m 611 310 q 621 350 611 310 q 631 486 631 390 q 613 658 631 582 l 297 188 q 428 118 349 118 q 544 174 496 118 q 611 310 592 229 z "},"ǿ":{"ha":856,"x_min":92,"x_max":764,"o":"m 710 1017 l 463 800 l 326 800 l 524 1017 l 710 1017 m 675 625 q 764 356 764 525 q 673 83 764 183 q 428 -17 582 -17 q 264 21 335 -17 l 239 -17 l 113 -17 l 181 85 q 92 354 92 185 q 183 626 92 526 q 428 726 274 726 q 590 690 521 726 l 615 726 l 743 726 l 675 625 m 233 354 q 264 208 233 269 l 515 578 q 428 596 475 596 q 283 533 333 596 q 233 354 233 469 m 428 114 q 572 179 521 114 q 624 356 624 244 q 592 503 624 443 l 340 133 q 428 114 379 114 z "},"Ș":{"ha":856,"x_min":108,"x_max":744,"o":"m 438 -17 q 233 48 322 -17 q 108 215 144 113 l 240 264 q 324 157 269 197 q 447 117 379 117 q 559 154 518 117 q 600 263 600 192 q 547 370 600 325 q 403 456 494 415 q 308 501 344 481 q 228 557 272 522 q 162 638 183 592 q 140 742 140 683 q 219 917 140 846 q 426 989 297 989 q 603 936 529 989 q 701 800 678 883 l 572 757 q 513 828 553 800 q 419 857 474 857 q 322 826 360 857 q 285 742 285 794 q 298 692 285 714 q 340 649 311 669 q 393 617 369 629 q 463 585 417 606 q 467 583 465 583 q 471 581 468 582 q 475 579 474 581 q 569 530 531 553 q 653 469 608 507 q 721 381 697 432 q 744 267 744 329 q 657 60 744 136 q 438 -17 569 -17 m 397 -387 l 354 -361 q 418 -258 406 -318 q 367 -232 386 -254 q 349 -178 349 -210 q 374 -118 349 -142 q 432 -94 399 -94 q 492 -120 467 -94 q 517 -189 517 -146 q 484 -301 517 -247 q 397 -387 451 -354 z "},"ș":{"ha":856,"x_min":151,"x_max":694,"o":"m 428 -17 q 270 17 343 -17 q 151 110 197 51 l 244 192 q 438 103 328 103 q 528 124 493 103 q 564 186 564 146 q 407 307 564 243 q 403 309 404 308 q 399 311 401 310 q 394 313 396 313 q 389 315 392 314 q 297 356 329 340 q 229 399 265 372 q 177 458 193 425 q 161 536 161 492 q 235 675 161 624 q 424 726 310 726 q 679 615 582 726 l 588 539 q 418 607 511 607 q 326 588 361 607 q 292 535 292 568 q 444 426 292 486 q 453 422 450 424 q 525 393 503 403 q 587 361 547 383 q 645 318 626 339 q 679 263 664 297 q 694 189 694 229 q 622 38 694 93 q 428 -17 550 -17 m 390 -387 l 347 -361 q 411 -258 399 -318 q 360 -232 379 -254 q 342 -178 342 -210 q 367 -118 342 -142 q 425 -94 392 -94 q 485 -120 460 -94 q 510 -189 510 -146 q 477 -301 510 -247 q 390 -387 444 -354 z "},"Ț":{"ha":856,"x_min":75,"x_max":781,"o":"m 357 0 l 357 836 l 75 836 l 75 972 l 781 972 l 781 836 l 499 836 l 499 0 l 357 0 m 393 -387 l 350 -361 q 414 -258 401 -318 q 363 -232 382 -254 q 344 -178 344 -210 q 369 -118 344 -142 q 428 -94 394 -94 q 488 -120 463 -94 q 513 -189 513 -146 q 480 -301 513 -247 q 393 -387 447 -354 z "},"ț":{"ha":856,"x_min":143,"x_max":676,"o":"m 493 -17 q 299 169 299 -17 l 299 588 l 143 588 l 143 710 l 299 710 l 299 936 l 438 1003 l 438 710 l 676 710 l 676 588 l 438 588 l 438 203 q 460 132 438 156 q 539 108 482 108 q 664 144 601 108 l 649 15 q 493 -17 588 -17 m 433 -387 l 390 -361 q 454 -258 442 -318 q 403 -232 422 -254 q 385 -178 385 -210 q 410 -118 385 -142 q 468 -94 435 -94 q 528 -120 503 -94 q 553 -189 553 -146 q 520 -301 553 -247 q 433 -387 488 -354 z "},"ȷ":{"ha":856,"x_min":215,"x_max":569,"o":"m 569 710 l 569 -3 q 507 -206 569 -139 q 283 -297 432 -281 l 215 -183 q 385 -128 340 -165 q 431 -6 431 -90 l 431 588 l 235 588 l 235 710 l 569 710 z "},"ə":{"ha":856,"x_min":111,"x_max":746,"o":"m 425 726 q 659 626 572 726 q 746 354 746 526 q 658 83 746 182 q 425 -17 569 -17 q 199 74 286 -17 q 111 326 111 164 q 115 410 111 375 l 607 410 q 421 603 582 603 q 250 538 321 603 l 168 626 q 425 726 272 726 m 425 107 q 551 155 504 107 q 608 290 597 203 l 249 290 q 303 151 254 196 q 425 107 353 107 z "},"ʰ":{"ha":856,"x_min":182,"x_max":683,"o":"m 464 988 q 624 928 565 988 q 683 747 683 868 l 683 389 l 563 389 l 563 719 q 529 838 563 799 q 438 878 496 878 q 303 729 303 878 l 303 389 l 182 389 l 182 1167 l 300 1221 l 300 915 q 464 988 356 988 z "},"ʲ":{"ha":856,"x_min":189,"x_max":503,"o":"m 481 1085 q 470 1075 481 1085 q 429 1064 460 1064 q 376 1085 399 1064 q 354 1138 354 1107 q 376 1191 354 1169 q 429 1213 397 1213 q 482 1191 461 1213 q 503 1138 503 1169 q 481 1085 503 1107 m 488 972 l 489 385 q 436 215 489 265 q 247 138 371 151 l 189 235 q 331 281 294 250 q 368 383 368 313 l 368 868 l 208 868 l 208 972 l 488 972 z "},"ʷ":{"ha":856,"x_min":93,"x_max":761,"o":"m 243 389 l 93 972 l 207 972 l 285 638 q 294 586 293 604 l 306 639 l 381 972 l 475 972 l 550 639 q 561 583 558 603 q 572 639 565 617 l 650 972 l 761 972 l 613 389 l 514 389 l 442 719 q 428 789 431 768 l 413 719 l 342 389 l 243 389 z "},"ʸ":{"ha":856,"x_min":154,"x_max":722,"o":"m 600 972 l 722 972 l 419 165 l 294 165 l 378 385 l 154 972 l 281 972 l 438 543 l 600 972 z "},"ˆ":{"ha":856,"x_min":161,"x_max":696,"o":"m 567 800 l 428 918 l 289 800 l 161 800 l 357 1017 l 500 1017 l 696 800 l 567 800 z "},"ˇ":{"ha":856,"x_min":161,"x_max":696,"o":"m 499 800 l 357 800 l 161 1017 l 289 1017 l 428 899 l 567 1017 l 696 1017 l 499 800 z "},"ˉ":{"ha":856,"x_min":229,"x_max":688,"o":"m 229 831 l 229 947 l 688 947 l 688 831 l 229 831 z "},"˖":{"ha":856,"x_min":164,"x_max":692,"o":"m 483 724 l 483 514 l 371 514 l 371 724 l 164 724 l 164 832 l 371 832 l 371 1042 l 483 1042 l 483 832 l 692 832 l 692 724 l 483 724 z "},"˘":{"ha":856,"x_min":171,"x_max":685,"o":"m 619 866 q 587 834 619 866 q 428 801 554 801 q 236 866 301 801 q 171 1031 171 931 l 288 1031 q 326 944 288 978 q 428 910 364 910 q 530 944 492 910 q 568 1031 568 978 l 685 1031 q 619 866 685 931 z "},"˙":{"ha":856,"x_min":344,"x_max":511,"o":"m 488 849 q 476 837 488 849 q 428 825 464 825 q 368 849 392 825 q 344 908 344 872 q 368 968 344 944 q 428 992 392 992 q 488 968 464 992 q 511 908 511 944 q 488 849 511 872 z "},"˚":{"ha":856,"x_min":258,"x_max":599,"o":"m 548 790 q 523 765 548 790 q 428 740 497 740 q 308 790 358 740 q 258 908 258 839 q 308 1026 258 978 q 428 1075 358 1075 q 549 1026 499 1075 q 599 908 599 978 q 548 790 599 840 m 381 858 q 391 848 381 858 q 428 838 400 838 q 475 858 456 838 q 494 908 494 878 q 475 958 494 939 q 428 978 456 978 q 381 958 400 978 q 363 908 363 939 q 381 858 363 878 z "},"˛":{"ha":856,"x_min":271,"x_max":585,"o":"m 432 -332 q 316 -294 361 -332 q 271 -189 271 -256 q 321 -68 271 -121 q 461 14 371 -15 l 563 14 q 429 -73 472 -22 q 386 -175 386 -124 q 405 -228 386 -210 q 450 -246 424 -246 q 515 -217 489 -246 l 585 -267 q 432 -332 525 -332 z "},"˜":{"ha":856,"x_min":174,"x_max":682,"o":"m 538 824 q 412 857 485 824 q 308 890 339 890 q 243 829 247 890 l 174 829 q 318 1001 174 1001 q 444 967 372 1001 q 547 933 517 933 q 593 949 575 933 q 613 996 611 965 l 682 996 q 538 824 682 824 z "},"˝":{"ha":856,"x_min":60,"x_max":735,"o":"m 197 800 l 60 800 l 257 1017 l 444 1017 l 197 800 m 488 800 l 350 800 l 547 1017 l 735 1017 l 488 800 z "},"ˡ":{"ha":856,"x_min":186,"x_max":663,"o":"m 497 496 l 663 496 l 663 389 l 210 389 l 210 496 l 376 496 l 376 1096 l 239 1096 l 186 1203 l 497 1203 l 497 496 z "},"ˢ":{"ha":856,"x_min":203,"x_max":653,"o":"m 432 374 q 203 478 282 374 l 279 546 q 440 472 356 472 q 515 490 486 472 q 543 539 543 507 q 513 588 543 568 q 415 638 483 608 q 406 642 408 640 q 328 676 353 664 q 272 712 304 689 q 225 763 239 735 q 211 831 211 792 q 273 945 211 903 q 428 988 335 988 q 642 896 561 988 l 564 832 q 424 889 499 889 q 350 873 378 889 q 322 829 322 857 q 353 786 322 806 q 440 743 383 767 q 456 738 450 740 q 529 706 504 718 q 588 670 554 693 q 638 616 622 647 q 653 543 653 585 q 593 419 653 464 q 432 374 533 374 z "},"ˣ":{"ha":856,"x_min":144,"x_max":711,"o":"m 711 389 l 574 389 l 425 597 l 281 389 l 144 389 l 357 692 l 157 972 l 296 972 l 428 788 l 558 972 l 696 972 l 496 690 l 711 389 z "},"́":{"ha":0,"x_min":-550,"x_max":-167,"o":"m -550 800 l -353 1017 l -167 1017 l -414 800 l -550 800 z "},"̂":{"ha":0,"x_min":-694,"x_max":-160,"o":"m -289 800 l -428 918 l -567 800 l -694 800 l -499 1017 l -356 1017 l -160 800 l -289 800 z "},"̃":{"ha":0,"x_min":-682,"x_max":-174,"o":"m -318 824 q -444 857 -371 824 q -547 890 -517 890 q -612 829 -608 890 l -682 829 q -537 1001 -682 1001 q -411 967 -483 1001 q -308 933 -339 933 q -262 949 -281 933 q -243 996 -244 965 l -174 996 q -318 824 -174 824 z "},"̄":{"ha":0,"x_min":-657,"x_max":-199,"o":"m -657 831 l -657 947 l -199 947 l -199 831 l -657 831 z "},"̆":{"ha":0,"x_min":-685,"x_max":-171,"o":"m -236 866 q -269 834 -236 866 q -428 801 -301 801 q -619 866 -554 801 q -685 1031 -685 931 l -568 1031 q -530 944 -568 978 q -428 910 -492 910 q -326 944 -364 910 q -287 1031 -287 978 l -171 1031 q -236 866 -171 931 z "},"̇":{"ha":0,"x_min":-511,"x_max":-344,"o":"m -368 849 q -380 837 -368 849 q -428 825 -392 825 q -487 849 -464 825 q -511 908 -511 872 q -487 968 -511 944 q -428 992 -464 992 q -368 968 -392 992 q -344 908 -344 944 q -368 849 -344 872 z "},"̈":{"ha":0,"x_min":-635,"x_max":-221,"o":"m -492 849 q -505 837 -492 849 q -551 825 -517 825 q -610 849 -586 825 q -635 908 -635 872 q -610 968 -635 944 q -551 992 -586 992 q -492 968 -517 992 q -468 908 -468 944 q -492 849 -468 872 m -245 849 q -257 837 -245 849 q -304 825 -269 825 q -363 849 -339 825 q -387 908 -387 872 q -363 968 -387 944 q -304 992 -339 992 q -245 968 -269 992 q -221 908 -221 944 q -245 849 -221 872 z "},"̊":{"ha":0,"x_min":-597,"x_max":-257,"o":"m -308 790 q -333 765 -308 790 q -428 740 -358 740 q -547 790 -497 740 q -597 908 -597 839 q -547 1026 -597 978 q -428 1075 -497 1075 q -307 1026 -357 1075 q -257 908 -257 978 q -308 790 -257 840 m -474 858 q -465 848 -474 858 q -428 838 -456 838 q -381 858 -400 838 q -361 908 -361 878 q -381 958 -361 939 q -428 978 -400 978 q -474 958 -456 978 q -493 908 -493 939 q -474 858 -493 878 z "},"̋":{"ha":0,"x_min":-765,"x_max":-90,"o":"m -628 800 l -765 800 l -568 1017 l -381 1017 l -628 800 m -337 800 l -475 800 l -278 1017 l -90 1017 l -337 800 z "},"̌":{"ha":0,"x_min":-694,"x_max":-160,"o":"m -357 800 l -499 800 l -694 1017 l -567 1017 l -428 899 l -289 1017 l -160 1017 l -357 800 z "},"̒":{"ha":0,"x_min":-511,"x_max":-344,"o":"m -426 803 q -486 828 -461 803 q -511 897 -511 854 q -478 1009 -511 956 q -393 1096 -446 1063 l -350 1069 q -412 967 -401 1026 q -362 940 -381 963 q -344 886 -344 918 q -369 826 -344 850 q -426 803 -394 803 z "},"̦":{"ha":0,"x_min":-511,"x_max":-343,"o":"m -462 -387 l -506 -361 q -442 -258 -454 -318 q -492 -232 -474 -254 q -511 -178 -511 -210 q -486 -118 -511 -142 q -428 -94 -461 -94 q -368 -120 -393 -94 q -343 -189 -343 -146 q -376 -301 -343 -247 q -462 -387 -408 -354 z "},"̧":{"ha":0,"x_min":-553,"x_max":-242,"o":"m -415 -332 q -553 -281 -506 -332 l -482 -231 q -428 -250 -467 -250 q -378 -233 -397 -250 q -358 -187 -358 -215 q -381 -145 -358 -162 q -435 -128 -403 -128 q -489 -140 -467 -128 l -517 -107 l -419 14 l -342 14 l -393 -71 q -279 -104 -317 -71 q -242 -189 -242 -137 q -289 -292 -242 -253 q -415 -332 -336 -332 z "},"̨":{"ha":0,"x_min":-554,"x_max":-240,"o":"m -393 -332 q -509 -294 -464 -332 q -554 -189 -554 -256 q -504 -68 -554 -121 q -364 14 -454 -15 l -262 14 q -396 -73 -353 -22 q -439 -175 -439 -124 q -420 -228 -439 -210 q -375 -246 -401 -246 q -310 -217 -336 -246 l -240 -267 q -393 -332 -300 -332 z "},"̷":{"ha":0,"x_min":147,"x_max":708,"o":"m 147 164 l 585 808 l 708 808 l 271 164 l 147 164 z "},"μ":{"ha":856,"x_min":139,"x_max":717,"o":"m 578 0 l 578 68 q 406 -17 508 -17 q 279 43 321 -17 l 279 -212 l 139 -278 l 139 710 l 278 710 l 278 285 q 315 151 278 189 q 422 114 351 114 q 578 282 578 114 l 578 710 l 717 710 l 717 0 l 578 0 z "},"π":{"ha":856,"x_min":25,"x_max":831,"o":"m 675 -17 q 519 158 519 -17 l 519 564 l 333 564 l 333 508 q 295 162 333 293 q 144 -31 257 31 l 25 63 q 91 110 65 86 q 144 176 117 133 q 186 288 172 219 q 200 451 200 357 l 200 564 l 69 564 l 69 710 l 822 710 l 822 564 l 658 564 l 658 194 q 722 108 658 108 q 831 144 767 108 l 814 15 q 675 -17 757 -17 z "},"Ẁ":{"ha":856,"x_min":36,"x_max":819,"o":"m 385 1064 l 138 1281 l 325 1281 l 522 1064 l 385 1064 m 185 0 l 36 972 l 167 972 l 251 363 l 260 297 q 272 363 264 331 l 385 972 l 472 972 l 586 367 q 599 306 594 332 q 603 338 600 318 q 606 365 606 358 l 683 972 l 819 972 l 671 0 l 557 0 l 439 617 q 428 683 435 636 q 417 618 425 663 l 299 0 l 185 0 z "},"ẁ":{"ha":856,"x_min":28,"x_max":828,"o":"m 400 800 l 153 1017 l 340 1017 l 538 800 l 400 800 m 208 0 l 28 710 l 158 710 l 256 297 q 268 233 264 264 q 281 299 278 285 l 374 710 l 482 710 l 576 299 q 589 229 579 288 q 603 299 594 265 l 697 710 l 828 710 l 647 0 l 536 0 l 444 399 q 428 483 429 478 q 418 439 425 468 q 410 400 411 410 l 321 0 l 208 0 z "},"Ẃ":{"ha":856,"x_min":19,"x_max":803,"o":"m 340 1064 l 538 1281 l 724 1281 l 476 1064 l 340 1064 m 168 0 l 19 972 l 150 972 l 235 363 l 243 297 q 256 363 247 331 l 368 972 l 456 972 l 569 367 q 582 306 578 332 q 586 338 583 318 q 589 365 589 358 l 667 972 l 803 972 l 654 0 l 540 0 l 422 617 q 411 683 418 636 q 400 618 408 663 l 282 0 l 168 0 z "},"ẃ":{"ha":856,"x_min":28,"x_max":828,"o":"m 315 800 l 513 1017 l 699 1017 l 451 800 l 315 800 m 208 0 l 28 710 l 158 710 l 256 297 q 268 233 264 264 q 281 299 278 285 l 374 710 l 482 710 l 576 299 q 589 229 579 288 q 603 299 594 265 l 697 710 l 828 710 l 647 0 l 536 0 l 444 399 q 428 483 429 478 q 418 439 425 468 q 410 400 411 410 l 321 0 l 208 0 z "},"Ẅ":{"ha":856,"x_min":36,"x_max":819,"o":"m 363 1113 q 351 1101 363 1113 q 304 1089 339 1089 q 245 1113 269 1089 q 221 1172 221 1136 q 245 1232 221 1208 q 304 1256 269 1256 q 363 1232 339 1256 q 388 1172 388 1208 q 363 1113 388 1136 m 610 1113 q 598 1101 610 1113 q 551 1089 586 1089 q 492 1113 517 1089 q 468 1172 468 1136 q 492 1232 468 1208 q 551 1256 517 1256 q 610 1232 586 1256 q 635 1172 635 1208 q 610 1113 635 1136 m 185 0 l 36 972 l 167 972 l 251 363 l 260 297 q 272 363 264 331 l 385 972 l 472 972 l 586 367 q 599 306 594 332 q 603 338 600 318 q 606 365 606 358 l 683 972 l 819 972 l 671 0 l 557 0 l 439 617 q 428 683 435 636 q 417 618 425 663 l 299 0 l 185 0 z "},"ẅ":{"ha":856,"x_min":24,"x_max":824,"o":"m 363 849 q 351 837 363 849 q 304 825 339 825 q 245 849 269 825 q 221 908 221 872 q 245 968 221 944 q 304 992 269 992 q 363 968 339 992 q 388 908 388 944 q 363 849 388 872 m 610 849 q 598 837 610 849 q 551 825 586 825 q 492 849 517 825 q 468 908 468 872 q 492 968 468 944 q 551 992 517 992 q 610 968 586 992 q 635 908 635 944 q 610 849 635 872 m 204 0 l 24 710 l 154 710 l 251 297 q 264 233 260 264 q 276 299 274 285 l 369 710 l 478 710 l 572 299 q 585 229 575 288 q 599 299 590 265 l 693 710 l 824 710 l 643 0 l 532 0 l 440 399 q 424 483 425 478 q 414 439 421 468 q 406 400 407 410 l 317 0 l 204 0 z "},"Ỳ":{"ha":856,"x_min":75,"x_max":782,"o":"m 539 1064 l 401 1064 l 154 1281 l 342 1281 l 539 1064 m 626 972 l 782 972 l 500 382 l 500 0 l 358 0 l 358 382 l 75 972 l 233 972 l 429 529 l 626 972 z "},"ỳ":{"ha":856,"x_min":94,"x_max":761,"o":"m 421 800 l 174 1017 l 361 1017 l 558 800 l 421 800 m 250 -269 l 357 17 l 94 710 l 236 710 l 403 253 q 425 185 413 225 q 449 253 432 208 l 617 710 l 761 710 l 392 -269 l 250 -269 z "},"–":{"ha":856,"x_min":153,"x_max":701,"o":"m 153 339 l 153 460 l 701 460 l 701 339 l 153 339 z "},"—":{"ha":856,"x_min":7,"x_max":849,"o":"m 7 339 l 7 460 l 849 460 l 849 339 l 7 339 z "},"―":{"ha":856,"x_min":7,"x_max":849,"o":"m 7 339 l 7 460 l 849 460 l 849 339 l 7 339 z "},"‗":{"ha":856,"x_min":56,"x_max":800,"o":"m 56 -144 l 56 -22 l 800 -22 l 800 -144 l 56 -144 m 56 -347 l 56 -225 l 800 -225 l 800 -347 l 56 -347 z "},"‘":{"ha":856,"x_min":319,"x_max":532,"o":"m 426 611 q 350 644 381 611 q 319 740 319 678 q 365 919 319 835 q 467 1044 410 1003 l 532 1010 q 443 813 453 918 q 506 780 482 806 q 529 715 529 754 q 499 640 529 669 q 426 611 468 611 z "},"’":{"ha":856,"x_min":322,"x_max":535,"o":"m 388 611 l 322 647 q 411 844 401 736 q 349 876 372 851 q 325 942 325 901 q 356 1016 325 988 q 428 1044 386 1044 q 504 1011 474 1044 q 535 917 535 978 q 490 738 535 822 q 388 611 444 654 z "},"‚":{"ha":856,"x_min":322,"x_max":536,"o":"m 388 -251 l 322 -217 q 381 -127 356 -181 q 411 -19 407 -74 q 349 13 372 -12 q 326 79 326 39 q 356 153 326 125 q 428 182 386 182 q 505 149 474 182 q 536 54 536 115 q 490 -126 536 -42 q 388 -251 444 -210 z "},"‛":{"ha":856,"x_min":319,"x_max":533,"o":"m 468 611 q 365 738 410 654 q 319 917 319 822 q 351 1011 319 978 q 428 1044 382 1044 q 499 1016 469 1044 q 529 942 529 988 q 506 876 529 901 q 444 844 483 851 q 475 735 449 789 q 533 647 501 682 l 468 611 z "},"“":{"ha":856,"x_min":169,"x_max":685,"o":"m 276 611 q 200 644 231 611 q 169 740 169 678 q 215 919 169 835 q 317 1044 260 1003 l 382 1010 q 293 813 303 918 q 356 780 332 806 q 379 715 379 754 q 349 640 379 669 q 276 611 318 611 m 579 611 q 502 645 533 611 q 471 740 471 679 q 517 919 471 835 q 619 1044 563 1003 l 685 1010 q 626 920 651 974 q 596 813 600 867 q 658 781 635 806 q 681 715 681 756 q 651 640 681 669 q 579 611 621 611 z "},"”":{"ha":856,"x_min":172,"x_max":686,"o":"m 238 611 l 172 647 q 261 844 251 736 q 199 876 222 851 q 175 942 175 901 q 206 1016 175 988 q 278 1044 236 1044 q 354 1011 324 1044 q 385 917 385 978 q 340 738 385 822 q 238 611 294 654 m 539 611 l 474 647 q 563 844 553 736 q 500 876 524 851 q 476 942 476 901 q 507 1016 476 988 q 579 1044 538 1044 q 656 1011 625 1044 q 686 917 686 978 q 641 738 686 822 q 539 611 596 654 z "},"„":{"ha":856,"x_min":172,"x_max":686,"o":"m 238 -251 l 172 -217 q 261 -19 251 -125 q 199 13 222 -12 q 175 79 175 39 q 206 153 175 125 q 278 182 236 182 q 354 149 324 182 q 385 54 385 115 q 340 -126 385 -42 q 238 -251 294 -210 m 539 -251 l 474 -217 q 563 -19 553 -125 q 500 13 524 -12 q 476 79 476 39 q 507 153 476 125 q 579 182 538 182 q 656 149 625 182 q 686 54 686 115 q 641 -126 686 -42 q 539 -251 596 -210 z "},"†":{"ha":856,"x_min":132,"x_max":725,"o":"m 483 613 l 497 467 l 454 -196 l 404 -196 l 357 467 l 371 613 l 204 590 l 132 590 l 132 724 l 204 724 l 368 700 l 357 815 l 357 989 l 497 989 l 497 815 l 485 700 l 650 724 l 725 724 l 725 590 l 650 590 l 483 613 z "},"‡":{"ha":856,"x_min":132,"x_max":725,"o":"m 357 -196 l 357 -22 l 368 93 l 204 68 l 132 68 l 132 204 l 204 204 l 371 181 l 357 326 l 357 467 l 371 613 l 204 590 l 132 590 l 132 724 l 204 724 l 368 700 l 357 815 l 357 989 l 497 989 l 497 815 l 485 700 l 650 724 l 725 724 l 725 590 l 650 590 l 483 613 l 497 467 l 497 326 l 483 181 l 650 204 l 725 204 l 725 68 l 650 68 l 485 93 l 497 -22 l 497 -196 l 357 -196 z "},"•":{"ha":856,"x_min":232,"x_max":625,"o":"m 567 347 q 538 319 567 347 q 426 290 508 290 q 288 347 344 290 q 232 486 232 404 q 288 626 232 568 q 426 683 344 683 q 567 626 508 683 q 625 486 625 568 q 567 347 625 404 z "},"…":{"ha":856,"x_min":40,"x_max":815,"o":"m 216 12 q 201 -3 216 12 q 143 -18 186 -18 q 70 12 100 -18 q 40 83 40 42 q 70 155 40 125 q 143 185 100 185 q 216 155 186 185 q 246 83 246 125 q 216 12 246 42 m 501 12 q 486 -3 501 12 q 428 -18 471 -18 q 355 12 385 -18 q 325 83 325 42 q 355 155 325 125 q 428 185 385 185 q 501 155 471 185 q 531 83 531 125 q 501 12 531 42 m 785 12 q 770 -3 785 12 q 713 -18 756 -18 q 640 12 669 -18 q 611 83 611 42 q 640 155 611 125 q 713 185 669 185 q 785 155 756 185 q 815 83 815 125 q 785 12 815 42 z "},"‰":{"ha":856,"x_min":0,"x_max":839,"o":"m 86 -17 l 0 -17 l 465 989 l 551 989 l 86 -17 m 151 540 q 50 607 83 540 q 17 765 17 674 q 50 919 17 850 q 151 989 83 989 q 251 922 217 989 q 286 765 286 854 q 252 610 286 679 q 151 540 218 540 m 151 614 q 189 658 174 614 q 204 765 204 703 q 190 874 204 832 q 151 915 175 915 q 112 873 125 915 q 99 765 99 831 q 113 656 99 697 q 151 614 126 614 m 400 -17 q 299 50 332 -17 q 265 207 265 117 q 299 362 265 292 q 400 432 333 432 q 500 365 465 432 q 535 207 535 297 q 501 53 535 122 q 400 -17 467 -17 m 704 -17 q 604 51 639 -17 q 569 207 569 118 q 583 308 569 258 q 628 394 596 357 q 704 432 660 432 q 804 365 769 432 q 839 207 839 297 q 805 53 839 122 q 704 -17 771 -17 m 400 57 q 438 101 422 57 q 453 207 453 146 q 438 316 453 274 q 400 358 424 358 q 360 315 374 358 q 347 207 347 272 q 361 99 347 140 q 400 57 375 57 m 704 57 q 742 101 726 57 q 757 207 757 146 q 742 316 757 274 q 704 358 728 358 q 666 315 681 358 q 651 207 651 271 q 666 99 651 142 q 704 57 681 57 z "},"′":{"ha":856,"x_min":326,"x_max":529,"o":"m 354 1014 l 529 1014 l 443 571 l 326 571 l 354 1014 z "},"″":{"ha":856,"x_min":188,"x_max":668,"o":"m 215 1014 l 390 1014 l 304 571 l 188 571 l 215 1014 m 493 1014 l 668 1014 l 582 571 l 465 571 l 493 1014 z "},"‹":{"ha":856,"x_min":247,"x_max":610,"o":"m 458 0 l 247 356 l 458 710 l 610 710 l 399 356 l 610 0 l 458 0 z "},"›":{"ha":856,"x_min":247,"x_max":610,"o":"m 247 0 l 458 356 l 247 710 l 399 710 l 610 356 l 399 0 l 247 0 z "},"‼":{"ha":856,"x_min":110,"x_max":746,"o":"m 175 268 l 144 682 l 144 989 l 285 989 l 285 682 l 254 268 l 175 268 m 603 268 l 572 682 l 572 989 l 713 989 l 713 682 l 682 268 l 603 268 m 214 -18 q 140 13 169 -18 q 110 85 110 43 q 140 158 110 128 q 214 189 169 189 q 288 158 257 189 q 318 85 318 126 q 288 13 318 43 q 214 -18 257 -18 m 642 -18 q 567 13 597 -18 q 538 85 538 43 q 567 158 538 128 q 642 189 597 189 q 715 158 685 189 q 746 85 746 126 q 715 13 746 43 q 642 -18 685 -18 z "},"‾":{"ha":856,"x_min":56,"x_max":800,"o":"m 56 1042 l 56 1165 l 800 1165 l 800 1042 l 56 1042 z "},"⁄":{"ha":0,"x_min":-401,"x_max":401,"o":"m -401 -17 l 263 989 l 401 989 l -264 -17 l -401 -17 z "},"⁰":{"ha":856,"x_min":236,"x_max":619,"o":"m 428 822 q 281 882 326 822 q 236 1021 236 942 q 281 1163 236 1103 q 428 1224 325 1224 q 574 1163 528 1224 q 619 1021 619 1103 q 575 881 619 940 q 428 822 531 822 m 428 908 q 486 943 468 908 q 504 1024 504 978 q 486 1104 504 1069 q 428 1139 468 1139 q 351 1024 351 1139 q 428 908 351 908 z "},"ⁱ":{"ha":856,"x_min":225,"x_max":665,"o":"m 496 1090 q 485 1079 496 1090 q 443 1068 474 1068 q 391 1090 413 1068 q 369 1142 369 1111 q 390 1195 369 1174 q 443 1217 411 1217 q 497 1195 475 1217 q 518 1142 518 1174 q 496 1090 518 1111 m 506 496 l 665 496 l 665 389 l 225 389 l 225 496 l 385 496 l 385 871 l 225 871 l 225 978 l 506 978 l 506 496 z "},"⁴":{"ha":856,"x_min":208,"x_max":638,"o":"m 456 833 l 456 910 l 208 910 l 208 969 l 460 1211 l 564 1211 l 564 989 l 638 989 l 638 910 l 564 910 l 564 833 l 456 833 m 456 989 l 456 1104 l 338 989 l 456 989 z "},"⁵":{"ha":856,"x_min":249,"x_max":611,"o":"m 415 821 q 249 874 319 821 l 310 939 q 415 899 356 899 q 476 915 453 899 q 499 957 499 931 q 435 1004 499 1004 q 353 967 383 1004 l 261 1001 l 292 1213 l 579 1213 l 579 1132 l 381 1132 l 367 1056 q 458 1082 400 1082 q 569 1047 526 1082 q 611 963 611 1013 q 559 860 611 900 q 415 821 507 821 z "},"⁶":{"ha":856,"x_min":247,"x_max":608,"o":"m 428 822 q 294 865 340 822 q 247 974 247 907 q 326 1136 247 1069 q 551 1219 404 1203 l 551 1144 q 361 1040 400 1124 q 457 1068 397 1068 q 567 1034 525 1068 q 608 947 608 1000 q 558 858 608 893 q 428 822 508 822 m 432 899 q 486 911 464 899 q 508 946 508 924 q 487 981 508 968 q 432 993 465 993 q 375 981 396 993 q 354 946 354 968 q 376 911 354 924 q 432 899 397 899 z "},"⁷":{"ha":856,"x_min":250,"x_max":606,"o":"m 329 835 q 372 1002 329 924 q 478 1129 414 1081 l 250 1129 l 250 1213 l 606 1213 l 606 1135 q 485 995 522 1079 q 447 835 447 911 l 329 835 z "},"⁸":{"ha":856,"x_min":240,"x_max":611,"o":"m 425 822 q 292 856 344 822 q 240 942 240 889 q 262 1000 240 975 q 317 1038 283 1025 q 265 1117 265 1064 q 310 1193 265 1163 q 425 1224 354 1224 q 541 1194 497 1224 q 585 1117 585 1164 q 570 1071 585 1093 q 535 1038 556 1049 q 590 1000 568 1025 q 611 942 611 975 q 560 856 611 889 q 425 822 508 822 m 425 1069 q 486 1113 486 1069 q 425 1154 486 1154 q 381 1142 397 1154 q 365 1113 365 1131 q 425 1069 365 1069 m 425 892 q 507 946 507 892 q 485 985 507 971 q 425 1000 464 1000 q 367 985 389 1000 q 344 946 344 971 q 425 892 344 892 z "},"⁹":{"ha":856,"x_min":242,"x_max":613,"o":"m 317 824 l 317 899 q 493 997 460 913 q 404 976 460 976 q 288 1010 333 976 q 242 1097 242 1044 q 293 1188 242 1153 q 428 1224 344 1224 q 565 1183 518 1224 q 613 1075 613 1142 q 535 901 613 968 q 317 824 457 833 m 426 1053 q 485 1065 463 1053 q 507 1100 507 1078 q 485 1135 507 1122 q 426 1149 463 1149 q 373 1135 396 1149 q 350 1100 350 1121 q 372 1065 350 1078 q 426 1053 393 1053 z "},"⁺":{"ha":856,"x_min":260,"x_max":613,"o":"m 475 985 l 475 846 l 397 846 l 397 985 l 260 985 l 260 1060 l 397 1060 l 397 1199 l 475 1199 l 475 1060 l 613 1060 l 613 985 l 475 985 z "},"⁻":{"ha":856,"x_min":250,"x_max":603,"o":"m 250 985 l 250 1060 l 603 1060 l 603 985 l 250 985 z "},"⁼":{"ha":856,"x_min":256,"x_max":601,"o":"m 256 1065 l 256 1140 l 601 1140 l 601 1065 l 256 1065 m 256 907 l 256 983 l 601 983 l 601 907 l 256 907 z "},"⁽":{"ha":856,"x_min":388,"x_max":581,"o":"m 497 767 q 388 1015 388 876 q 506 1272 388 1165 l 581 1272 q 465 1015 465 1161 q 574 767 465 885 l 497 767 z "},"⁾":{"ha":856,"x_min":275,"x_max":468,"o":"m 358 767 l 282 767 q 390 1015 390 885 q 275 1272 390 1161 l 350 1272 q 468 1015 468 1165 q 358 767 468 876 z "},"ⁿ":{"ha":856,"x_min":182,"x_max":683,"o":"m 464 988 q 624 928 565 988 q 683 747 683 868 l 683 389 l 563 389 l 563 719 q 529 838 563 799 q 438 878 496 878 q 303 729 303 878 l 303 389 l 182 389 l 182 972 l 292 972 l 292 903 q 359 964 313 940 q 464 988 406 988 z "},"₀":{"ha":856,"x_min":236,"x_max":619,"o":"m 428 -251 q 281 -192 326 -251 q 236 -53 236 -132 q 281 90 236 29 q 428 150 325 150 q 574 90 528 150 q 619 -53 619 29 q 575 -192 619 -133 q 428 -251 531 -251 m 428 -165 q 486 -131 468 -165 q 504 -50 504 -96 q 486 31 504 -4 q 428 65 468 65 q 351 -50 351 65 q 428 -165 351 -165 z "},"₁":{"ha":856,"x_min":304,"x_max":486,"o":"m 372 -239 l 372 -7 l 304 -7 l 304 81 q 401 139 376 81 l 486 139 l 486 -239 l 372 -239 z "},"₂":{"ha":856,"x_min":240,"x_max":606,"o":"m 240 -239 q 279 -112 240 -161 q 364 -46 318 -62 q 449 -11 410 -29 q 488 28 488 7 q 433 68 488 68 q 375 49 400 68 q 340 -3 350 31 l 242 22 q 309 114 258 79 q 436 149 360 149 q 559 116 513 149 q 606 24 606 83 q 572 -46 606 -17 q 495 -88 538 -75 q 414 -119 453 -101 q 369 -154 375 -136 l 604 -154 l 604 -239 l 240 -239 z "},"₃":{"ha":856,"x_min":236,"x_max":615,"o":"m 431 -251 q 236 -143 288 -251 l 340 -115 q 435 -171 367 -171 q 482 -157 464 -171 q 500 -121 500 -143 q 431 -82 500 -82 l 389 -82 l 389 -6 l 421 -6 q 479 31 479 -6 q 465 59 479 47 q 426 71 450 71 q 349 24 372 71 l 251 51 q 322 123 274 96 q 432 150 371 150 q 549 119 504 150 q 593 40 593 89 q 573 -9 593 13 q 524 -39 553 -31 q 615 -129 615 -56 q 567 -217 615 -182 q 431 -251 518 -251 z "},"₄":{"ha":856,"x_min":208,"x_max":638,"o":"m 456 -239 l 456 -162 l 208 -162 l 208 -103 l 460 139 l 564 139 l 564 -83 l 638 -83 l 638 -162 l 564 -162 l 564 -239 l 456 -239 m 456 -83 l 456 32 l 338 -83 l 456 -83 z "},"₅":{"ha":856,"x_min":249,"x_max":611,"o":"m 415 -253 q 249 -200 319 -253 l 310 -135 q 415 -175 356 -175 q 476 -159 453 -175 q 499 -117 499 -143 q 435 -69 499 -69 q 353 -107 383 -69 l 261 -72 l 292 139 l 579 139 l 579 58 l 381 58 l 367 -18 q 458 8 400 8 q 569 -26 526 8 q 611 -111 611 -61 q 559 -213 611 -174 q 415 -253 507 -253 z "},"₆":{"ha":856,"x_min":247,"x_max":608,"o":"m 428 -251 q 294 -209 340 -251 q 247 -100 247 -167 q 326 63 247 -4 q 551 146 404 129 l 551 71 q 361 -33 400 50 q 457 -6 397 -6 q 567 -40 525 -6 q 608 -126 608 -74 q 558 -216 608 -181 q 428 -251 508 -251 m 432 -175 q 486 -162 464 -175 q 508 -128 508 -150 q 487 -93 508 -106 q 432 -81 465 -81 q 375 -93 396 -81 q 354 -128 354 -106 q 376 -162 354 -150 q 432 -175 397 -175 z "},"₇":{"ha":856,"x_min":250,"x_max":606,"o":"m 329 -239 q 372 -72 329 -150 q 478 56 414 7 l 250 56 l 250 139 l 606 139 l 606 61 q 485 -78 522 6 q 447 -239 447 -162 l 329 -239 z "},"₈":{"ha":856,"x_min":240,"x_max":611,"o":"m 425 -251 q 292 -218 344 -251 q 240 -132 240 -185 q 262 -74 240 -99 q 317 -36 283 -49 q 280 -3 294 -25 q 265 43 265 18 q 310 119 265 89 q 425 150 354 150 q 541 120 497 150 q 585 43 585 90 q 570 -3 585 19 q 535 -36 556 -25 q 590 -74 568 -49 q 611 -132 611 -99 q 560 -218 611 -185 q 425 -251 508 -251 m 425 -4 q 486 39 486 -4 q 425 81 486 81 q 381 69 397 81 q 365 39 365 57 q 425 -4 365 -4 m 425 -182 q 507 -128 507 -182 q 485 -88 507 -103 q 425 -74 464 -74 q 367 -88 389 -74 q 344 -128 344 -103 q 425 -182 344 -182 z "},"₉":{"ha":856,"x_min":242,"x_max":613,"o":"m 317 -250 l 317 -175 q 493 -76 460 -161 q 404 -97 460 -97 q 288 -63 333 -97 q 242 24 242 -29 q 293 115 242 79 q 428 150 344 150 q 565 109 518 150 q 613 1 613 68 q 535 -173 613 -106 q 317 -250 457 -240 m 426 -21 q 485 -8 463 -21 q 507 26 507 4 q 485 62 507 49 q 426 75 463 75 q 373 61 396 75 q 350 26 350 47 q 372 -8 350 4 q 426 -21 393 -21 z "},"₊":{"ha":856,"x_min":251,"x_max":604,"o":"m 467 -87 l 467 -226 l 389 -226 l 389 -87 l 251 -87 l 251 -12 l 389 -12 l 389 126 l 467 126 l 467 -12 l 604 -12 l 604 -87 l 467 -87 z "},"₋":{"ha":856,"x_min":251,"x_max":604,"o":"m 251 -86 l 251 -11 l 604 -11 l 604 -86 l 251 -86 z "},"₌":{"ha":856,"x_min":256,"x_max":601,"o":"m 256 -7 l 256 68 l 601 68 l 601 -7 l 256 -7 m 256 -165 l 256 -89 l 601 -89 l 601 -165 l 256 -165 z "},"₍":{"ha":856,"x_min":388,"x_max":581,"o":"m 497 -299 q 388 -50 388 -189 q 506 207 388 100 l 581 207 q 465 -50 465 96 q 574 -299 465 -181 l 497 -299 z "},"₎":{"ha":856,"x_min":275,"x_max":468,"o":"m 358 -299 l 282 -299 q 390 -50 390 -181 q 275 207 390 96 l 350 207 q 468 -50 468 100 q 358 -299 468 -189 z "},"ₐ":{"ha":856,"x_min":172,"x_max":671,"o":"m 446 360 q 671 144 671 360 l 671 -239 l 554 -239 l 554 -190 q 388 -254 488 -254 q 232 -203 292 -254 q 172 -58 172 -153 q 240 85 172 36 q 403 135 307 135 q 554 101 486 135 l 554 139 q 436 254 554 254 q 249 194 343 254 l 214 293 q 446 360 318 360 m 408 -150 q 554 -81 493 -150 l 554 -1 q 422 32 500 32 q 328 9 365 32 q 292 -58 292 -14 q 322 -125 292 -100 q 408 -150 353 -150 z "},"ₑ":{"ha":856,"x_min":164,"x_max":694,"o":"m 694 79 q 692 7 694 36 l 292 7 q 344 -104 303 -62 q 446 -146 386 -146 q 579 -96 524 -146 l 647 -172 q 444 -254 565 -254 q 240 -169 315 -254 q 164 53 164 -83 q 240 278 164 196 q 444 360 315 360 q 624 288 554 360 q 694 79 694 217 m 444 253 q 290 107 311 253 l 575 107 q 535 217 572 181 q 444 253 497 253 z "},"ₒ":{"ha":856,"x_min":149,"x_max":707,"o":"m 632 -172 q 594 -213 632 -172 q 428 -254 557 -254 q 224 -172 299 -254 q 149 53 149 -90 q 224 276 149 193 q 428 360 300 360 q 632 277 557 360 q 707 53 707 194 q 632 -172 707 -89 m 314 -87 q 334 -112 314 -87 q 428 -137 354 -137 q 542 -87 501 -137 q 582 53 582 -36 q 542 192 582 142 q 428 243 503 243 q 314 192 354 243 q 274 53 274 142 q 314 -87 274 -36 z "},"ₓ":{"ha":856,"x_min":144,"x_max":711,"o":"m 711 -239 l 574 -239 l 425 -31 l 281 -239 l 144 -239 l 357 64 l 157 344 l 296 344 l 428 160 l 558 344 l 696 344 l 496 63 l 711 -239 z "},"ₔ":{"ha":856,"x_min":160,"x_max":690,"o":"m 410 358 q 615 273 539 358 q 690 51 690 188 q 615 -174 690 -92 q 410 -256 539 -256 q 230 -184 300 -256 q 160 25 160 -112 q 163 97 160 68 l 563 97 q 509 208 551 167 q 408 250 467 250 q 275 200 331 250 l 207 276 q 410 358 289 358 m 410 -149 q 564 -3 543 -149 l 279 -3 q 319 -112 282 -76 q 410 -149 357 -149 z "},"ₕ":{"ha":856,"x_min":182,"x_max":683,"o":"m 464 360 q 624 300 565 360 q 683 119 683 240 l 683 -239 l 563 -239 l 563 92 q 529 210 563 171 q 438 250 496 250 q 303 101 303 250 l 303 -239 l 182 -239 l 182 539 l 300 593 l 300 288 q 464 360 356 360 z "},"ₖ":{"ha":856,"x_min":190,"x_max":710,"o":"m 578 -239 l 406 96 l 310 1 l 310 -239 l 190 -239 l 190 538 l 310 593 l 310 136 l 519 344 l 661 344 l 493 181 l 710 -239 l 578 -239 z "},"ₗ":{"ha":856,"x_min":186,"x_max":663,"o":"m 497 -132 l 663 -132 l 663 -239 l 210 -239 l 210 -132 l 376 -132 l 376 468 l 239 468 l 186 575 l 497 575 l 497 -132 z "},"ₘ":{"ha":856,"x_min":126,"x_max":731,"o":"m 586 358 q 696 308 661 358 q 731 144 731 258 l 731 -239 l 621 -239 l 621 124 q 608 219 621 190 q 561 249 596 249 q 505 212 525 249 q 485 113 485 175 l 485 -239 l 375 -239 l 375 124 q 315 249 375 249 q 258 211 279 249 q 236 113 236 174 l 236 -239 l 126 -239 l 126 344 l 231 344 l 231 269 q 344 358 265 358 q 415 332 386 358 q 457 268 444 306 q 586 358 501 358 z "},"ₙ":{"ha":856,"x_min":182,"x_max":683,"o":"m 464 360 q 624 300 565 360 q 683 119 683 240 l 683 -239 l 563 -239 l 563 92 q 529 210 563 171 q 438 250 496 250 q 303 101 303 250 l 303 -239 l 182 -239 l 182 344 l 292 344 l 292 275 q 359 336 313 313 q 464 360 406 360 z "},"ₚ":{"ha":856,"x_min":174,"x_max":703,"o":"m 174 -476 l 174 344 l 294 344 l 294 297 q 446 358 356 358 q 633 276 564 358 q 703 51 703 194 q 632 -172 703 -90 q 447 -254 561 -254 q 294 -189 350 -254 l 294 -421 l 174 -476 m 429 -142 q 540 -91 500 -142 q 579 51 579 -40 q 539 193 579 140 q 426 246 499 246 q 294 178 339 246 l 294 -74 q 429 -142 347 -142 z "},"ₛ":{"ha":856,"x_min":203,"x_max":653,"o":"m 432 -254 q 203 -150 282 -254 l 279 -82 q 440 -156 356 -156 q 515 -138 486 -156 q 543 -89 543 -121 q 513 -40 543 -60 q 415 10 483 -19 q 406 14 408 13 q 328 49 353 36 q 272 84 304 61 q 225 135 239 107 q 211 203 211 164 q 273 317 211 275 q 428 360 335 360 q 642 268 561 360 l 564 204 q 424 261 499 261 q 350 245 378 261 q 322 201 322 229 q 353 158 322 178 q 440 115 383 139 q 456 110 450 113 q 529 78 504 90 q 588 42 554 65 q 638 -12 622 19 q 653 -85 653 -43 q 593 -209 653 -164 q 432 -254 533 -254 z "},"ₜ":{"ha":856,"x_min":199,"x_max":642,"o":"m 489 -254 q 325 -101 325 -254 l 325 239 l 199 239 l 199 344 l 325 344 l 325 532 l 446 588 l 446 344 l 642 344 l 642 239 l 446 239 l 446 -68 q 464 -126 446 -107 q 528 -146 482 -146 q 631 -117 582 -146 l 618 -228 q 489 -254 565 -254 z "},"₣":{"ha":856,"x_min":39,"x_max":753,"o":"m 753 840 l 263 840 l 263 640 l 613 640 l 613 508 l 263 508 l 263 394 l 613 394 l 613 263 l 263 263 l 263 0 l 119 0 l 119 263 l 39 263 l 39 394 l 119 394 l 119 508 l 39 508 l 39 640 l 119 640 l 119 972 l 753 972 l 753 840 z "},"₤":{"ha":856,"x_min":89,"x_max":767,"o":"m 100 0 l 100 142 q 204 303 176 178 l 89 303 l 89 411 l 217 411 q 192 503 213 450 l 89 503 l 89 613 l 150 613 q 131 711 131 667 q 215 908 131 826 q 457 989 299 989 q 750 893 615 989 l 694 758 q 640 803 661 788 q 569 836 619 818 q 457 854 518 854 q 322 812 367 854 q 276 711 276 769 q 301 613 276 669 l 569 613 l 569 503 l 347 503 q 364 411 361 463 l 569 411 l 569 303 l 350 303 q 257 133 332 208 l 767 133 l 767 0 l 100 0 z "},"₦":{"ha":856,"x_min":32,"x_max":825,"o":"m 825 542 l 825 431 l 743 431 l 743 0 l 607 0 l 390 431 l 247 431 l 247 0 l 113 0 l 113 431 l 32 431 l 32 542 l 113 542 l 113 972 l 254 972 l 468 542 l 608 542 l 608 972 l 743 972 l 743 542 l 825 542 m 247 542 l 335 542 l 286 638 q 244 722 253 704 q 247 639 247 701 l 247 542 m 611 251 q 608 328 608 304 l 608 431 l 522 431 l 575 325 q 592 289 578 317 q 611 251 607 261 z "},"₧":{"ha":856,"x_min":28,"x_max":828,"o":"m 828 726 l 828 613 l 749 613 q 649 438 731 510 q 428 367 568 367 l 263 367 l 263 0 l 119 0 l 119 613 l 28 613 l 28 726 l 119 726 l 119 972 l 428 972 q 653 903 574 972 q 750 726 733 833 l 828 726 m 263 847 l 263 726 l 607 726 q 439 847 575 847 l 263 847 m 439 492 q 607 613 575 492 l 263 613 l 263 492 l 439 492 z "},"₩":{"ha":856,"x_min":21,"x_max":835,"o":"m 835 542 l 835 431 l 736 431 l 671 0 l 560 0 l 478 431 l 378 431 l 296 0 l 185 0 l 119 431 l 21 431 l 21 542 l 101 542 l 36 972 l 154 972 l 215 542 l 306 542 l 386 972 l 471 972 l 553 542 l 640 542 l 697 972 l 819 972 l 754 542 l 835 542 m 399 542 l 456 542 l 444 603 q 428 708 438 636 q 411 604 421 653 l 399 542 m 269 349 l 285 431 l 231 431 l 239 369 q 253 265 247 319 q 261 310 254 278 q 269 349 268 343 m 618 372 l 626 431 l 574 431 l 589 353 q 597 315 590 344 q 606 274 604 285 q 613 327 607 286 q 618 372 618 368 z "},"₪":{"ha":856,"x_min":75,"x_max":782,"o":"m 75 0 l 75 972 l 196 972 l 196 118 l 322 118 q 435 157 404 118 q 465 292 465 196 l 465 785 l 586 785 l 586 293 q 527 73 586 146 q 326 0 468 0 l 75 0 m 661 0 l 661 856 l 533 856 q 421 816 451 856 q 390 681 390 776 l 390 188 l 269 188 l 269 681 q 329 899 269 826 q 529 972 389 972 l 782 972 l 782 0 l 661 0 z "},"₫":{"ha":856,"x_min":82,"x_max":776,"o":"m 363 176 q 158 251 233 176 q 82 433 82 326 q 159 618 82 542 q 364 694 236 694 q 547 633 472 694 l 547 757 l 368 757 l 368 871 l 547 871 l 547 938 l 686 1003 l 686 871 l 776 871 l 776 757 l 686 757 l 686 193 l 547 193 l 547 250 q 363 176 474 176 m 381 300 q 547 374 490 300 l 547 501 q 381 571 482 571 q 267 531 308 571 q 225 433 225 490 q 266 338 225 376 q 381 300 307 300 m 110 0 l 110 114 l 686 114 l 686 0 l 110 0 z "},"€":{"ha":856,"x_min":51,"x_max":804,"o":"m 514 -17 q 167 313 225 -17 l 51 313 l 100 419 l 153 419 q 151 485 151 440 q 153 535 151 515 l 51 535 l 100 642 l 167 642 q 285 892 196 794 q 529 989 374 989 q 775 910 663 989 l 724 783 q 528 857 638 857 q 315 643 361 857 l 665 643 l 621 535 l 299 535 q 297 474 297 510 q 299 419 297 428 l 575 419 l 531 311 l 317 311 q 386 169 338 224 q 513 115 435 115 q 693 215 621 115 l 804 146 q 685 28 760 74 q 514 -17 610 -17 z "},"₹":{"ha":856,"x_min":104,"x_max":772,"o":"m 772 972 l 772 847 l 576 847 q 640 739 625 813 l 772 739 l 772 614 l 643 614 q 545 446 628 510 q 319 382 463 382 l 301 382 l 638 0 l 472 0 l 104 421 l 104 504 l 335 504 q 508 614 481 504 l 104 614 l 104 739 l 504 739 q 331 847 472 847 l 104 847 l 104 972 l 772 972 z "},"₺":{"ha":856,"x_min":88,"x_max":800,"o":"m 658 394 l 800 394 q 767 252 793 319 q 694 126 740 185 q 570 34 647 68 q 396 0 493 0 l 240 0 l 240 306 l 88 224 l 88 351 l 240 433 l 240 575 l 88 493 l 88 621 l 240 703 l 240 972 l 382 972 l 382 781 l 529 860 l 529 732 l 382 653 l 382 511 l 529 590 l 529 463 l 382 383 l 382 133 l 403 133 q 580 208 514 133 q 658 394 646 282 z "},"₽":{"ha":856,"x_min":32,"x_max":761,"o":"m 442 394 l 297 394 l 297 267 l 504 267 l 504 133 l 297 133 l 297 0 l 156 0 l 156 133 l 32 133 l 32 267 l 156 267 l 156 394 l 32 394 l 32 526 l 156 526 l 156 972 l 442 972 q 685 890 608 972 q 761 683 761 807 q 681 481 761 567 q 442 394 601 394 m 297 840 l 297 526 l 450 526 q 576 572 536 526 q 617 683 617 617 q 578 793 617 746 q 450 840 539 840 l 297 840 z "},"℅":{"ha":856,"x_min":14,"x_max":842,"o":"m 199 378 q 67 463 119 378 q 14 683 14 547 q 70 905 14 821 q 200 989 126 989 q 229 985 215 989 q 253 978 243 982 q 274 965 264 974 q 292 950 285 957 q 306 933 299 943 q 317 915 313 922 q 326 897 321 907 q 333 881 331 886 q 338 867 335 876 l 340 858 l 249 813 q 193 885 225 885 q 140 829 164 885 q 117 683 117 774 q 141 538 117 592 q 196 483 165 483 q 228 501 217 483 q 258 561 240 518 l 344 517 q 287 417 325 457 q 199 378 249 378 m 118 -17 l 601 989 l 704 989 l 221 -17 l 118 -17 m 647 -17 q 508 65 563 -17 q 454 289 454 147 q 508 512 454 429 q 647 594 563 594 q 788 513 733 594 q 842 289 842 431 q 788 65 842 146 q 647 -17 733 -17 m 647 89 q 715 141 690 89 q 739 289 739 193 q 715 438 739 385 q 647 490 690 490 q 584 436 610 490 q 558 289 558 382 q 584 142 558 196 q 647 89 610 89 z "},"ℓ":{"ha":856,"x_min":151,"x_max":651,"o":"m 418 -17 q 260 151 260 -17 l 260 313 q 196 279 232 296 l 151 390 q 260 447 207 414 l 260 713 q 310 926 260 863 q 457 989 361 989 q 597 934 542 989 q 651 779 651 879 q 628 644 651 707 q 560 532 604 582 q 483 452 517 482 q 400 389 449 422 l 400 204 q 416 128 400 149 q 464 108 432 108 q 567 164 515 108 l 607 71 q 418 -17 532 -17 m 456 874 q 413 839 426 874 q 400 707 400 804 l 400 531 q 511 758 511 628 q 456 874 511 874 z "},"№":{"ha":856,"x_min":32,"x_max":844,"o":"m 671 378 q 550 458 594 378 q 506 683 506 539 q 550 908 506 826 q 671 989 594 989 q 793 908 749 989 q 838 683 838 826 q 793 458 838 539 q 671 378 749 378 m 343 0 l 136 661 l 136 0 l 32 0 l 32 975 l 131 975 l 338 289 l 338 975 l 442 975 l 442 0 l 343 0 m 671 483 q 742 683 742 483 q 671 885 742 885 q 619 832 638 885 q 600 683 600 779 q 619 536 600 589 q 671 483 638 483 m 499 181 l 499 276 l 844 276 l 844 181 l 499 181 z "},"™":{"ha":856,"x_min":11,"x_max":846,"o":"m 139 386 l 139 876 l 11 876 l 11 972 l 371 972 l 371 876 l 242 876 l 242 386 l 139 386 m 400 386 l 400 972 l 503 972 l 611 656 l 624 615 l 635 656 l 743 972 l 846 972 l 846 386 l 743 386 l 743 699 l 725 649 l 632 386 l 615 386 l 521 649 l 503 701 l 503 386 l 400 386 z "},"Ω":{"ha":856,"x_min":33,"x_max":822,"o":"m 499 0 l 499 124 q 628 317 589 226 q 667 540 667 408 q 608 763 667 669 q 428 856 550 856 q 288 807 344 856 q 210 690 232 758 q 189 539 189 622 q 228 317 189 408 q 357 124 267 225 l 357 0 l 33 0 l 33 135 l 222 135 q 40 542 40 279 q 53 669 40 607 q 94 789 65 731 q 167 892 124 847 q 278 963 211 936 q 428 989 344 989 q 578 963 511 989 q 688 892 644 936 q 760 789 731 847 q 801 669 789 731 q 814 542 814 607 q 632 135 814 281 l 822 135 l 822 0 l 499 0 z "},"℮":{"ha":856,"x_min":35,"x_max":821,"o":"m 435 -17 q 151 122 267 -17 q 35 486 35 261 q 153 860 35 728 q 439 993 271 993 q 703 860 594 993 q 821 486 813 728 l 240 486 l 240 154 q 435 67 324 67 q 739 260 625 67 l 806 217 q 649 42 735 101 q 435 -17 563 -17 m 240 567 l 622 568 l 622 822 q 544 883 596 857 q 435 910 493 910 q 240 829 324 910 l 240 567 z "},"⅓":{"ha":856,"x_min":56,"x_max":800,"o":"m 372 601 l 372 833 l 304 833 l 304 921 q 401 979 376 921 l 486 979 l 486 601 l 372 601 m 56 439 l 56 544 l 800 544 l 800 439 l 56 439 m 443 -14 q 249 94 300 -14 l 353 122 q 447 67 379 67 q 494 81 476 67 q 513 117 513 94 q 443 156 513 156 l 401 156 l 401 232 l 433 232 q 492 268 492 232 q 477 297 492 285 q 439 308 463 308 q 361 261 385 308 l 264 289 q 335 360 286 333 q 444 388 383 388 q 561 357 517 388 q 606 278 606 326 q 585 228 606 250 q 536 199 565 207 q 628 108 628 182 q 579 21 628 56 q 443 -14 531 -14 z "},"⅔":{"ha":856,"x_min":56,"x_max":800,"o":"m 250 601 q 289 728 250 679 q 374 794 328 778 q 458 829 419 811 q 497 868 497 847 q 443 908 497 908 q 385 890 410 908 q 350 838 360 871 l 251 863 q 319 954 268 919 q 446 989 369 989 q 569 956 522 989 q 615 864 615 924 q 581 794 615 824 q 505 752 547 765 q 424 722 463 739 q 379 686 385 704 l 614 686 l 614 601 l 250 601 m 56 439 l 56 544 l 800 544 l 800 439 l 56 439 m 439 -14 q 244 94 296 -14 l 349 122 q 443 67 375 67 q 490 81 472 67 q 508 117 508 94 q 439 156 508 156 l 397 156 l 397 232 l 429 232 q 488 268 488 232 q 473 297 488 285 q 435 308 458 308 q 357 261 381 308 l 260 289 q 331 360 282 333 q 440 388 379 388 q 557 357 513 388 q 601 278 601 326 q 581 228 601 250 q 532 199 561 207 q 624 108 624 182 q 575 21 624 56 q 439 -14 526 -14 z "},"⅛":{"ha":856,"x_min":56,"x_max":800,"o":"m 372 601 l 372 833 l 304 833 l 304 921 q 401 979 376 921 l 486 979 l 486 601 l 372 601 m 56 439 l 56 544 l 800 544 l 800 439 l 56 439 m 425 -14 q 292 19 344 -14 q 240 106 240 53 q 262 164 240 139 q 317 201 283 189 q 265 281 265 228 q 310 357 265 326 q 425 388 354 388 q 541 358 497 388 q 585 281 585 328 q 570 235 585 257 q 535 201 556 213 q 590 164 568 189 q 611 106 611 139 q 560 19 611 53 q 425 -14 508 -14 m 425 233 q 486 276 486 233 q 425 318 486 318 q 381 306 397 318 q 365 276 365 294 q 425 233 365 233 m 425 56 q 507 110 507 56 q 485 149 507 135 q 425 164 464 164 q 367 149 389 164 q 344 110 344 135 q 425 56 344 56 z "},"⅜":{"ha":856,"x_min":56,"x_max":800,"o":"m 431 588 q 236 696 288 588 l 340 724 q 435 668 367 668 q 482 682 464 668 q 500 718 500 696 q 431 757 500 757 l 389 757 l 389 833 l 421 833 q 479 869 479 833 q 465 898 479 886 q 426 910 450 910 q 349 863 372 910 l 251 890 q 322 962 274 935 q 432 989 371 989 q 549 958 504 989 q 593 879 593 928 q 573 830 593 851 q 524 800 553 808 q 615 710 615 783 q 567 622 615 657 q 431 588 518 588 m 56 439 l 56 544 l 800 544 l 800 439 l 56 439 m 425 -14 q 292 19 344 -14 q 240 106 240 53 q 262 164 240 139 q 317 201 283 189 q 265 281 265 228 q 310 357 265 326 q 425 388 354 388 q 541 358 497 388 q 585 281 585 328 q 570 235 585 257 q 535 201 556 213 q 590 164 568 189 q 611 106 611 139 q 560 19 611 53 q 425 -14 508 -14 m 425 233 q 486 276 486 233 q 425 318 486 318 q 381 306 397 318 q 365 276 365 294 q 425 233 365 233 m 425 56 q 507 110 507 56 q 485 149 507 135 q 425 164 464 164 q 367 149 389 164 q 344 110 344 135 q 425 56 344 56 z "},"⅝":{"ha":856,"x_min":56,"x_max":800,"o":"m 415 588 q 249 640 319 588 l 310 706 q 415 665 356 665 q 476 681 453 665 q 499 724 499 697 q 435 771 499 771 q 353 733 383 771 l 261 768 l 292 979 l 579 979 l 579 899 l 381 899 l 367 822 q 458 849 400 849 q 569 814 526 849 q 611 729 611 779 q 559 627 611 667 q 415 588 507 588 m 56 439 l 56 544 l 800 544 l 800 439 l 56 439 m 425 -14 q 292 19 344 -14 q 240 106 240 53 q 262 164 240 139 q 317 201 283 189 q 265 281 265 228 q 310 357 265 326 q 425 388 354 388 q 541 358 497 388 q 585 281 585 328 q 570 235 585 257 q 535 201 556 213 q 590 164 568 189 q 611 106 611 139 q 560 19 611 53 q 425 -14 508 -14 m 425 233 q 486 276 486 233 q 425 318 486 318 q 381 306 397 318 q 365 276 365 294 q 425 233 365 233 m 425 56 q 507 110 507 56 q 485 149 507 135 q 425 164 464 164 q 367 149 389 164 q 344 110 344 135 q 425 56 344 56 z "},"⅞":{"ha":856,"x_min":56,"x_max":800,"o":"m 329 601 q 372 769 329 690 q 478 896 414 847 l 250 896 l 250 979 l 606 979 l 606 901 q 485 762 522 846 q 447 601 447 678 l 329 601 m 56 439 l 56 544 l 800 544 l 800 439 l 56 439 m 425 -14 q 292 19 344 -14 q 240 106 240 53 q 262 164 240 139 q 317 201 283 189 q 265 281 265 228 q 310 357 265 326 q 425 388 354 388 q 541 358 497 388 q 585 281 585 328 q 570 235 585 257 q 535 201 556 213 q 590 164 568 189 q 611 106 611 139 q 560 19 611 53 q 425 -14 508 -14 m 425 233 q 486 276 486 233 q 425 318 486 318 q 381 306 397 318 q 365 276 365 294 q 425 233 365 233 m 425 56 q 507 110 507 56 q 485 149 507 135 q 425 164 464 164 q 367 149 389 164 q 344 110 344 135 q 425 56 344 56 z "},"←":{"ha":856,"x_min":49,"x_max":793,"o":"m 432 231 q 408 242 426 231 l 65 475 q 49 500 49 486 q 65 525 49 514 l 408 760 q 432 771 426 771 q 449 756 449 771 q 440 726 449 749 l 383 560 l 793 575 l 793 425 l 383 440 l 440 275 q 449 246 449 253 q 432 231 449 231 z "},"↑":{"ha":856,"x_min":158,"x_max":697,"o":"m 503 0 l 353 0 l 368 639 l 203 581 q 174 572 181 572 q 158 589 158 572 q 169 613 158 594 l 403 957 q 428 972 413 972 q 453 957 443 972 l 686 613 q 697 589 697 594 q 682 572 697 572 q 653 581 678 572 l 488 639 l 503 0 z "},"→":{"ha":856,"x_min":63,"x_max":807,"o":"m 424 231 q 407 246 407 231 q 415 275 407 253 l 474 440 l 64 425 l 63 575 l 474 560 l 415 726 q 407 756 407 749 q 424 771 407 771 q 447 760 429 771 l 792 525 q 807 500 807 515 q 792 475 807 485 l 447 242 q 424 231 429 231 z "},"↓":{"ha":856,"x_min":158,"x_max":697,"o":"m 428 0 q 404 14 414 0 l 167 364 q 158 382 158 376 q 178 401 158 401 q 196 397 186 401 l 368 338 l 353 972 l 503 972 l 488 338 l 660 397 q 679 401 669 401 q 697 382 697 401 q 690 364 697 378 l 451 14 q 428 0 443 0 z "},"↔":{"ha":1711,"x_min":139,"x_max":1572,"o":"m 1189 231 q 1172 246 1172 231 q 1181 275 1172 253 l 1238 438 l 475 438 l 531 275 q 539 246 539 253 q 522 231 539 231 q 499 242 517 231 l 156 475 q 139 500 139 486 q 156 525 139 514 l 499 760 q 522 771 517 771 q 539 756 539 771 q 531 726 539 749 l 475 564 l 1238 564 l 1181 726 q 1172 756 1172 749 q 1189 771 1172 771 q 1213 760 1194 771 l 1557 525 q 1572 500 1572 515 q 1557 475 1572 485 l 1213 242 q 1189 231 1194 231 z "},"↕":{"ha":856,"x_min":158,"x_max":697,"o":"m 453 -221 q 428 -236 443 -236 q 403 -221 413 -236 l 169 124 q 158 147 158 142 q 174 164 158 164 q 203 156 181 164 l 365 100 l 365 729 l 203 672 q 174 664 181 664 q 158 681 158 664 q 169 704 158 686 l 403 1049 q 428 1064 413 1064 q 453 1049 443 1064 l 686 704 q 697 681 697 686 q 682 664 697 664 q 653 672 675 664 l 492 729 l 492 100 l 653 156 q 682 164 675 164 q 697 147 697 164 q 686 124 697 142 l 453 -221 z "},"↖":{"ha":856,"x_min":54,"x_max":801,"o":"m 696 90 l 257 551 l 181 393 q 177 386 179 390 q 174 380 175 382 q 172 374 174 378 q 168 369 169 371 q 165 366 167 368 q 160 363 163 364 q 154 363 157 363 q 133 393 139 363 l 58 786 q 56 801 58 792 q 54 813 54 810 q 79 838 54 838 q 103 833 86 838 l 500 758 q 531 738 531 751 q 501 713 531 726 l 340 636 l 801 196 l 696 90 z "},"↗":{"ha":856,"x_min":54,"x_max":801,"o":"m 160 90 l 54 196 l 515 636 l 356 713 q 326 738 326 726 q 356 758 326 751 l 754 833 q 778 838 768 838 q 801 813 801 838 q 797 786 801 803 l 722 393 q 701 363 717 363 q 676 393 689 363 l 600 551 l 160 90 z "},"↘":{"ha":856,"x_min":54,"x_max":801,"o":"m 778 89 q 754 93 769 89 l 356 168 q 326 189 326 175 q 356 214 326 200 l 515 290 l 54 731 l 160 836 l 600 375 l 676 533 q 701 564 689 564 q 722 533 717 564 l 797 140 q 801 114 801 124 q 778 89 801 89 z "},"↙":{"ha":856,"x_min":54,"x_max":801,"o":"m 79 89 q 54 114 54 89 q 56 126 54 117 q 58 140 58 135 l 133 533 q 154 564 139 564 q 160 563 157 564 q 165 560 164 561 q 169 555 167 558 q 173 549 172 551 q 176 542 174 547 q 181 533 179 536 l 257 375 l 696 836 l 801 731 l 340 290 l 501 214 q 531 189 531 200 q 500 168 531 175 l 103 93 q 79 89 86 89 z "},"↨":{"ha":856,"x_min":54,"x_max":801,"o":"m 453 -118 q 428 -133 443 -133 q 403 -118 413 -133 l 169 226 q 158 250 158 244 q 174 267 158 267 q 203 258 181 267 l 365 203 l 365 729 l 203 672 q 174 664 181 664 q 158 681 158 664 q 169 704 158 686 l 403 1049 q 428 1064 413 1064 q 453 1049 443 1064 l 686 704 q 697 681 697 686 q 682 664 697 664 q 653 672 675 664 l 492 729 l 492 203 l 653 258 q 682 267 675 267 q 697 250 697 267 q 686 226 697 244 l 453 -118 m 54 -347 l 54 -221 l 801 -221 l 801 -347 l 54 -347 z "},"↳":{"ha":856,"x_min":83,"x_max":800,"o":"m 785 322 q 800 297 800 313 q 785 272 800 282 l 440 39 q 417 28 422 28 q 400 43 400 28 q 408 72 400 50 l 465 235 l 83 235 l 83 972 l 217 972 l 217 361 l 465 361 l 408 524 q 400 553 400 546 q 417 568 400 568 q 440 557 422 568 l 785 322 z "},"↴":{"ha":856,"x_min":69,"x_max":800,"o":"m 785 450 q 800 433 800 450 q 789 410 800 428 l 556 67 q 531 50 544 50 q 506 67 517 50 l 271 410 q 260 433 260 428 q 275 450 260 450 q 304 442 282 450 l 465 388 l 465 846 l 69 846 l 69 972 l 597 972 l 597 388 l 756 442 q 785 450 781 450 z "},"↵":{"ha":856,"x_min":56,"x_max":772,"o":"m 639 972 l 772 972 l 772 235 l 392 235 l 447 72 q 456 43 456 50 q 439 28 456 28 q 415 39 433 28 l 72 272 q 56 297 56 283 q 72 322 56 311 l 415 557 q 439 568 433 568 q 456 553 456 568 q 447 524 456 546 l 392 361 l 639 361 l 639 972 z "},"↶":{"ha":856,"x_min":32,"x_max":801,"o":"m 313 906 q 355 947 313 906 q 515 989 397 989 q 717 905 633 989 q 801 703 801 821 l 801 0 l 674 0 l 674 703 q 627 818 674 771 q 515 865 581 865 q 403 818 449 865 q 357 703 357 771 l 357 554 l 508 608 q 538 617 531 617 q 553 600 553 617 q 542 576 553 594 l 318 233 q 293 217 308 217 q 268 233 278 217 l 43 576 q 32 600 32 594 q 47 617 32 617 q 76 608 54 617 l 229 554 l 229 703 q 313 906 229 822 z "},"↷":{"ha":856,"x_min":56,"x_max":825,"o":"m 810 617 q 825 600 825 617 q 814 576 825 594 l 588 233 q 563 217 578 217 q 538 233 547 217 l 314 576 q 303 600 303 594 q 318 617 303 617 q 347 608 325 617 l 500 554 l 500 703 q 454 818 500 771 q 342 865 408 865 q 230 818 276 865 q 183 703 183 771 l 183 0 l 56 0 l 56 703 q 139 906 56 822 q 342 989 222 989 q 544 906 461 989 q 628 703 628 822 l 628 554 l 781 608 q 810 617 800 617 z "},"↸":{"ha":856,"x_min":54,"x_max":801,"o":"m 54 846 l 54 972 l 801 972 l 801 846 l 54 846 m 696 -28 l 257 435 l 181 276 q 177 269 179 274 q 174 263 175 265 q 172 258 174 261 q 168 253 169 254 q 165 249 167 251 q 160 247 163 247 q 154 246 157 246 q 133 276 139 246 l 58 669 q 56 684 58 675 q 54 696 54 693 q 79 721 54 721 q 103 717 86 721 l 500 642 q 531 621 531 635 q 501 596 531 610 l 340 519 l 801 79 l 696 -28 z "},"↹":{"ha":856,"x_min":69,"x_max":786,"o":"m 658 474 q 635 485 653 474 l 290 718 q 275 743 275 728 q 290 768 275 758 l 635 1003 q 658 1014 653 1014 q 675 999 675 1014 q 667 969 675 992 l 608 803 l 786 818 l 786 668 l 608 683 l 667 518 q 675 489 675 496 q 658 474 675 474 m 69 485 l 69 1000 l 208 1000 l 208 485 l 69 485 m 199 -319 q 182 -304 182 -319 q 190 -275 182 -297 l 247 -110 l 69 -125 l 69 26 l 247 11 l 190 178 q 182 207 182 200 q 199 222 182 222 q 222 211 204 222 l 565 -25 q 582 -50 582 -36 q 565 -75 582 -64 l 222 -308 q 199 -319 204 -319 m 647 -308 l 647 208 l 786 208 l 786 -308 l 647 -308 z "},"↺":{"ha":856,"x_min":56,"x_max":874,"o":"m 843 871 q 874 850 874 864 q 869 840 874 844 q 861 833 865 835 q 844 825 857 831 l 690 751 q 800 486 800 642 q 692 222 800 331 q 428 114 583 114 q 164 222 272 114 q 56 486 56 331 q 165 750 56 640 l 254 660 q 182 486 182 588 q 253 312 182 383 q 428 240 325 240 q 603 312 532 240 q 675 486 675 383 q 600 663 675 590 l 524 504 q 520 497 522 501 q 517 490 518 492 q 513 484 515 488 q 508 479 510 481 q 503 476 507 478 q 497 475 500 475 q 476 504 482 475 l 401 897 q 399 912 401 901 q 397 925 397 922 q 422 949 397 949 q 446 946 424 949 l 843 871 z "},"⇚":{"ha":856,"x_min":49,"x_max":772,"o":"m 772 590 l 393 590 l 375 535 l 772 535 l 772 465 l 375 465 l 393 410 l 772 410 l 772 340 l 418 340 l 440 275 q 449 246 449 253 q 432 231 449 231 q 408 242 426 231 l 65 475 q 49 500 49 486 q 65 525 49 514 l 408 760 q 432 771 426 771 q 449 756 449 771 q 440 726 449 749 l 418 660 l 772 660 l 772 590 z "},"⇛":{"ha":856,"x_min":83,"x_max":807,"o":"m 792 525 q 807 500 807 515 q 792 475 807 485 l 447 242 q 424 231 429 231 q 407 246 407 231 q 415 275 407 253 l 439 340 l 83 340 l 83 410 l 463 410 l 482 465 l 83 465 l 83 535 l 482 535 l 463 590 l 83 590 l 83 660 l 439 660 l 415 726 q 407 756 407 749 q 424 771 407 771 q 447 760 429 771 l 792 525 z "},"⇜":{"ha":856,"x_min":49,"x_max":793,"o":"m 738 565 l 793 565 l 793 436 l 690 436 l 682 478 l 653 349 l 578 349 l 549 478 l 521 349 l 444 349 l 425 436 l 371 436 l 426 275 q 435 246 435 253 q 419 231 435 231 q 396 242 414 231 l 65 476 q 49 501 49 486 q 65 525 49 514 l 396 760 q 419 771 411 771 q 435 756 435 771 q 426 726 435 749 l 371 565 l 472 565 l 483 507 l 510 654 l 588 654 l 615 507 l 643 654 l 721 654 l 738 565 z "},"⇝":{"ha":856,"x_min":63,"x_max":807,"o":"m 792 525 q 807 501 807 515 q 792 476 807 486 l 461 242 q 438 231 443 231 q 421 246 421 231 q 429 275 421 253 l 486 436 l 431 436 l 411 349 l 336 349 l 307 478 l 279 349 l 203 349 l 175 478 l 165 436 l 63 436 l 63 565 l 119 565 l 136 654 l 214 654 l 240 507 l 268 654 l 346 654 l 374 507 l 385 565 l 486 565 l 429 726 q 421 756 421 749 q 438 771 421 771 q 461 760 446 771 l 792 525 z "},"⇞":{"ha":856,"x_min":158,"x_max":699,"o":"m 688 613 q 699 589 699 594 q 683 572 699 572 q 654 581 676 572 l 493 636 l 493 461 l 683 461 l 683 360 l 493 360 l 493 249 l 683 249 l 683 147 l 493 147 l 493 0 l 363 0 l 363 147 l 172 147 l 172 249 l 363 249 l 363 360 l 172 360 l 172 461 l 363 461 l 363 636 l 203 581 q 174 572 181 572 q 158 589 158 572 q 169 613 158 594 l 403 957 q 428 972 413 972 q 453 957 443 972 l 688 613 z "},"⇟":{"ha":856,"x_min":158,"x_max":699,"o":"m 683 400 q 699 383 699 400 q 688 360 699 378 l 453 17 q 428 0 442 0 q 403 17 414 0 l 169 360 q 158 383 158 378 q 174 400 158 400 q 203 392 181 400 l 363 336 l 363 511 l 172 511 l 172 613 l 363 613 l 363 724 l 172 724 l 172 825 l 363 825 l 363 972 l 493 972 l 493 825 l 683 825 l 683 724 l 493 724 l 493 613 l 683 613 l 683 511 l 493 511 l 493 336 l 654 392 q 683 400 676 400 z "},"⇠":{"ha":856,"x_min":49,"x_max":793,"o":"m 433 231 q 410 242 428 231 l 65 476 q 49 501 49 486 q 65 525 49 514 l 410 760 q 433 771 428 771 q 449 756 449 771 q 440 726 449 749 l 385 567 l 465 567 l 465 435 l 385 435 l 440 275 q 449 246 449 253 q 433 231 449 231 m 543 435 l 543 567 l 629 567 l 629 435 l 543 435 m 707 435 l 707 567 l 793 567 l 793 435 l 707 435 z "},"⇡":{"ha":856,"x_min":158,"x_max":697,"o":"m 363 497 l 363 636 l 203 581 q 174 572 181 572 q 158 589 158 572 q 169 613 158 594 l 403 957 q 428 972 413 972 q 453 957 443 972 l 686 613 q 697 589 697 594 q 682 572 697 572 q 653 581 678 572 l 494 636 l 494 497 l 363 497 m 363 249 l 363 394 l 494 394 l 494 249 l 363 249 m 363 0 l 363 146 l 494 146 l 494 0 l 363 0 z "},"⇢":{"ha":856,"x_min":63,"x_max":807,"o":"m 424 231 q 407 246 407 231 q 415 275 407 253 l 471 435 l 390 435 l 390 567 l 471 567 l 415 726 q 407 756 407 749 q 424 771 407 771 q 447 760 429 771 l 792 525 q 807 501 807 515 q 792 476 807 486 l 447 242 q 424 231 429 231 m 63 435 l 63 567 l 149 567 l 149 435 l 63 435 m 226 435 l 226 567 l 313 567 l 313 435 l 226 435 z "},"⇣":{"ha":856,"x_min":158,"x_max":697,"o":"m 363 826 l 363 972 l 494 972 l 494 826 l 363 826 m 363 578 l 363 724 l 494 724 l 494 578 l 363 578 m 453 17 q 428 0 442 0 q 403 17 414 0 l 169 360 q 158 383 158 378 q 174 400 158 400 q 203 392 181 400 l 363 338 l 363 475 l 494 475 l 494 338 l 653 392 q 682 400 678 400 q 697 383 697 400 q 686 360 697 378 l 453 17 z "},"⇤":{"ha":856,"x_min":69,"x_max":786,"o":"m 69 144 l 69 854 l 208 854 l 208 144 l 69 144 m 658 231 q 635 242 653 231 l 290 475 q 275 500 275 485 q 290 525 275 515 l 635 760 q 658 771 653 771 q 675 756 675 771 q 667 726 675 749 l 608 560 l 786 575 l 786 425 l 608 440 l 667 275 q 675 246 675 253 q 658 231 675 231 z "},"⇥":{"ha":856,"x_min":69,"x_max":786,"o":"m 647 144 l 647 854 l 786 854 l 786 144 l 647 144 m 199 231 q 182 246 182 231 q 190 275 182 253 l 247 440 l 69 425 l 69 575 l 247 560 l 190 726 q 182 756 182 749 q 199 771 182 771 q 222 760 204 771 l 565 525 q 582 500 582 514 q 565 475 582 486 l 222 242 q 199 231 204 231 z "},"∀":{"ha":856,"x_min":44,"x_max":813,"o":"m 661 972 l 813 972 l 492 0 l 363 0 l 44 972 l 197 972 l 265 746 l 592 746 l 661 972 m 453 294 l 551 617 l 306 617 l 403 294 q 428 193 418 244 q 453 294 438 244 z "},"∁":{"ha":856,"x_min":78,"x_max":786,"o":"m 458 -15 q 308 9 375 -15 q 199 74 240 33 q 128 167 157 114 q 89 276 100 221 q 78 389 78 331 l 78 585 q 89 698 78 643 q 128 806 100 753 q 199 900 157 860 q 308 965 240 940 q 458 989 375 989 q 694 899 601 989 q 786 674 786 810 l 639 674 q 588 803 639 754 q 458 851 538 851 q 283 781 342 851 q 224 585 224 710 l 224 389 q 283 193 224 264 q 458 122 342 122 q 588 171 538 122 q 639 300 639 219 l 786 300 q 694 74 786 164 q 458 -15 601 -15 z "},"∂":{"ha":856,"x_min":83,"x_max":772,"o":"m 386 -17 q 166 63 249 -17 q 83 274 83 142 q 183 517 83 424 q 417 611 282 611 q 633 506 557 611 q 631 564 633 528 q 528 781 615 710 q 314 857 440 851 l 347 989 q 672 835 571 965 q 772 463 772 704 q 751 282 772 365 q 685 131 729 199 q 564 23 640 63 q 386 -17 488 -17 m 390 118 q 544 172 486 118 q 603 314 603 226 q 557 435 603 394 q 428 475 511 475 q 281 423 336 475 q 225 286 225 371 q 270 163 225 208 q 390 118 315 118 z "},"∃":{"ha":856,"x_min":113,"x_max":750,"o":"m 113 0 l 113 136 l 608 136 l 608 354 l 113 354 l 113 490 l 608 490 l 608 706 l 113 706 l 113 842 l 750 842 l 750 0 l 113 0 z "},"∄":{"ha":856,"x_min":113,"x_max":750,"o":"m 750 842 l 750 0 l 317 0 l 285 -94 l 156 -94 l 188 0 l 113 0 l 113 136 l 235 136 l 308 354 l 113 354 l 113 490 l 356 490 l 429 706 l 113 706 l 113 842 l 475 842 l 507 935 l 636 935 l 604 842 l 750 842 m 608 490 l 608 706 l 558 706 l 485 490 l 608 490 m 608 136 l 608 354 l 438 354 l 364 136 l 608 136 z "},"∅":{"ha":856,"x_min":0,"x_max":856,"o":"m 722 794 q 856 485 856 668 q 729 183 856 308 q 426 57 603 57 q 238 101 329 57 l 167 0 l 8 0 l 132 176 q 0 485 0 301 q 125 788 0 663 q 426 914 250 914 q 617 869 525 914 l 689 972 l 847 972 l 722 794 m 146 485 q 215 296 146 379 l 535 751 q 426 774 482 774 q 228 689 311 774 q 146 485 146 604 m 426 199 q 627 283 543 199 q 711 485 711 367 q 639 675 711 592 l 321 219 q 426 199 368 199 z "},"∆":{"ha":856,"x_min":24,"x_max":832,"o":"m 24 0 l 365 972 l 489 972 l 832 0 l 24 0 m 217 133 l 640 133 l 451 689 q 428 763 442 715 q 406 689 424 742 l 217 133 z "},"∇":{"ha":856,"x_min":24,"x_max":832,"o":"m 24 972 l 832 972 l 489 0 l 365 0 l 24 972 m 217 839 l 406 283 q 428 210 424 231 q 451 283 442 257 l 640 839 l 217 839 z "},"∈":{"ha":856,"x_min":67,"x_max":776,"o":"m 431 582 q 278 540 336 582 q 210 419 219 499 l 776 419 l 776 292 l 210 292 q 278 170 219 213 q 431 128 336 128 l 776 128 l 776 0 l 439 0 q 167 94 268 0 q 67 343 67 189 l 67 368 q 166 617 67 524 q 439 710 265 710 l 776 710 l 776 582 l 431 582 z "},"∉":{"ha":856,"x_min":67,"x_max":776,"o":"m 776 582 l 635 582 l 579 419 l 776 419 l 776 292 l 536 292 l 479 128 l 776 128 l 776 0 l 439 0 l 436 0 l 392 -129 l 265 -129 l 314 15 q 132 133 197 46 q 67 343 67 219 l 67 368 q 166 617 67 524 q 439 710 265 710 l 551 710 l 594 838 l 722 838 l 679 710 l 776 710 l 776 582 m 453 419 l 507 582 l 431 582 q 278 540 336 582 q 210 419 219 499 l 453 419 m 356 136 l 408 292 l 210 292 q 356 136 224 165 z "},"∊":{"ha":856,"x_min":63,"x_max":778,"o":"m 371 482 q 193 358 213 482 l 778 358 l 778 242 l 193 242 q 371 117 215 117 l 778 117 l 778 0 l 381 0 q 147 80 232 0 q 63 290 63 160 l 63 311 q 147 519 63 440 q 381 599 231 599 l 778 599 l 778 482 l 371 482 z "},"∋":{"ha":856,"x_min":71,"x_max":781,"o":"m 408 710 q 681 617 582 710 q 781 368 781 524 l 781 343 q 680 94 781 189 q 408 0 579 0 l 71 0 l 71 128 l 417 128 q 569 170 511 128 q 638 292 628 213 l 71 292 l 71 419 l 638 419 q 569 540 628 499 q 417 582 511 582 l 71 582 l 71 710 l 408 710 z "},"∌":{"ha":856,"x_min":86,"x_max":796,"o":"m 549 694 q 731 578 667 664 q 796 368 796 492 l 796 343 q 695 94 796 189 q 424 0 594 0 l 311 0 l 267 -129 l 140 -129 l 185 0 l 86 0 l 86 128 l 228 128 l 283 292 l 86 292 l 86 419 l 326 419 l 382 582 l 86 582 l 86 710 l 424 710 l 425 710 l 467 831 l 594 831 l 549 694 m 507 574 l 454 419 l 653 419 q 507 574 639 544 m 432 128 q 585 170 526 128 q 653 292 643 213 l 410 292 l 354 128 l 432 128 z "},"∍":{"ha":856,"x_min":78,"x_max":793,"o":"m 475 599 q 709 519 625 599 q 793 311 793 440 l 793 290 q 708 80 793 160 q 475 0 624 0 l 78 0 l 78 117 l 485 117 q 663 242 640 117 l 78 242 l 78 358 l 663 358 q 485 482 643 482 l 78 482 l 78 599 l 475 599 z "},"∎":{"ha":856,"x_min":135,"x_max":710,"o":"m 135 0 l 135 710 l 710 710 l 710 0 l 135 0 z "},"∏":{"ha":856,"x_min":57,"x_max":799,"o":"m 658 -194 l 658 838 l 196 838 l 196 -194 l 57 -194 l 57 972 l 799 972 l 799 -194 l 658 -194 z "},"∐":{"ha":856,"x_min":57,"x_max":799,"o":"m 658 972 l 799 972 l 799 -194 l 57 -194 l 57 972 l 196 972 l 196 -60 l 658 -60 l 658 972 z "},"∑":{"ha":856,"x_min":60,"x_max":796,"o":"m 60 -196 l 60 -69 l 404 403 l 79 846 l 79 972 l 769 972 l 769 838 l 257 838 l 579 403 l 239 -61 l 796 -61 l 796 -196 l 60 -196 z "},"−":{"ha":856,"x_min":101,"x_max":754,"o":"m 101 408 l 101 543 l 754 543 l 754 408 l 101 408 z "},"∓":{"ha":856,"x_min":101,"x_max":754,"o":"m 101 710 l 101 844 l 754 844 l 754 710 l 101 710 m 497 258 l 497 0 l 357 0 l 357 258 l 101 258 l 101 393 l 357 393 l 357 653 l 497 653 l 497 393 l 754 393 l 754 258 l 497 258 z "},"∔":{"ha":856,"x_min":101,"x_max":754,"o":"m 501 780 q 486 765 501 780 q 428 750 471 750 q 355 780 385 750 q 325 851 325 810 q 355 923 325 893 q 428 953 385 953 q 501 923 471 953 q 531 851 531 893 q 501 780 531 810 m 497 258 l 497 0 l 357 0 l 357 258 l 101 258 l 101 393 l 357 393 l 357 653 l 497 653 l 497 393 l 754 393 l 754 258 l 497 258 z "},"∕":{"ha":856,"x_min":26,"x_max":829,"o":"m 26 -17 l 690 989 l 829 989 l 165 -17 l 26 -17 z "},"∖":{"ha":856,"x_min":26,"x_max":829,"o":"m 690 -17 l 26 989 l 165 989 l 829 -17 l 690 -17 z "},"∗":{"ha":856,"x_min":106,"x_max":750,"o":"m 306 165 l 197 238 l 283 369 l 358 439 l 257 415 l 106 415 l 106 547 l 257 547 l 358 525 l 285 593 l 199 725 l 307 797 l 403 653 l 428 560 l 454 653 l 550 797 l 658 725 l 572 593 l 497 525 l 599 547 l 750 547 l 750 415 l 599 415 l 497 439 l 572 369 l 658 238 l 550 165 l 454 310 l 428 404 l 401 310 l 306 165 z "},"∘":{"ha":856,"x_min":244,"x_max":611,"o":"m 557 358 q 530 331 557 358 q 428 304 503 304 q 299 358 353 304 q 244 488 244 413 q 299 615 244 563 q 428 668 353 668 q 557 615 503 668 q 611 488 611 563 q 557 358 611 413 m 428 411 q 479 433 458 411 q 500 488 500 456 q 479 540 500 519 q 428 561 458 561 q 377 540 399 561 q 356 488 356 519 q 377 433 356 456 q 428 411 399 411 z "},"∙":{"ha":856,"x_min":325,"x_max":531,"o":"m 501 415 q 486 400 501 415 q 428 385 471 385 q 355 415 385 385 q 325 485 325 444 q 355 556 325 526 q 428 586 385 586 q 501 556 471 586 q 531 485 531 526 q 501 415 531 444 z "},"√":{"ha":856,"x_min":64,"x_max":808,"o":"m 393 0 l 211 347 l 122 303 l 64 417 l 272 524 l 438 203 l 664 972 l 808 972 l 513 0 l 393 0 z "},"∛":{"ha":856,"x_min":64,"x_max":808,"o":"m 296 592 q 101 700 153 592 l 206 728 q 300 672 232 672 q 347 686 329 672 q 365 722 365 700 q 296 761 365 761 l 254 761 l 254 838 l 286 838 q 344 874 344 838 q 330 902 344 890 q 292 914 315 914 q 214 867 238 914 l 117 894 q 188 966 139 939 q 297 993 236 993 q 414 963 369 993 q 458 883 458 932 q 438 834 458 856 q 389 804 418 813 q 481 714 481 788 q 432 626 481 661 q 296 592 383 592 m 393 0 l 211 347 l 122 303 l 64 417 l 272 524 l 438 203 l 664 972 l 808 972 l 513 0 l 393 0 z "},"∜":{"ha":856,"x_min":64,"x_max":808,"o":"m 313 601 l 313 678 l 65 678 l 65 738 l 317 979 l 421 979 l 421 757 l 494 757 l 494 678 l 421 678 l 421 601 l 313 601 m 393 0 l 211 347 l 122 303 l 64 417 l 272 524 l 438 203 l 664 972 l 808 972 l 513 0 l 393 0 m 313 757 l 313 872 l 194 757 l 313 757 z "},"∝":{"ha":856,"x_min":67,"x_max":783,"o":"m 783 640 q 713 601 743 640 q 642 483 682 563 q 685 402 668 431 q 729 350 703 374 q 783 326 756 326 l 783 188 q 671 233 719 188 q 576 358 622 278 q 350 193 481 193 q 153 274 239 193 q 67 483 67 356 q 153 692 67 611 q 350 774 239 774 q 578 607 481 774 q 783 779 672 779 l 783 640 m 347 322 q 433 363 396 322 q 513 482 471 404 q 432 603 469 561 q 347 644 394 644 q 250 599 292 644 q 208 483 208 554 q 250 367 208 413 q 347 322 292 322 z "},"∞":{"ha":856,"x_min":13,"x_max":843,"o":"m 606 810 q 772 722 700 810 q 843 488 843 633 q 773 253 843 342 q 615 165 703 165 q 513 210 550 165 q 439 343 475 254 q 361 211 404 257 q 250 165 318 165 q 86 254 160 165 q 13 488 13 343 q 84 722 13 633 q 247 810 156 810 q 314 794 285 810 q 365 745 343 779 q 397 687 386 711 q 425 614 407 663 q 501 760 461 711 q 606 810 540 810 m 254 296 q 288 306 274 296 q 320 349 303 317 q 346 403 338 382 q 376 483 354 425 q 379 490 378 488 q 339 585 354 551 q 300 649 324 619 q 254 679 276 679 q 183 626 215 679 q 151 488 151 574 q 184 349 151 403 q 254 296 217 296 m 601 296 q 671 349 639 296 q 703 488 703 401 q 671 626 703 572 q 601 679 639 679 q 547 631 571 679 q 492 488 524 583 q 489 478 490 482 q 486 470 488 475 q 483 461 485 465 q 553 319 526 349 q 601 296 575 297 z "},"∟":{"ha":856,"x_min":82,"x_max":813,"o":"m 82 0 l 82 842 l 225 842 l 225 138 l 813 138 l 813 0 l 82 0 z "},"∠":{"ha":856,"x_min":39,"x_max":811,"o":"m 306 138 l 811 138 l 811 0 l 39 0 l 629 815 l 747 739 l 306 138 z "},"∡":{"ha":856,"x_min":39,"x_max":811,"o":"m 811 138 l 811 0 l 710 0 q 688 -128 706 -56 l 567 -97 q 585 0 582 -39 l 39 0 l 367 453 q 261 504 321 481 l 301 621 q 440 556 374 596 l 629 815 l 747 739 l 550 471 q 710 138 686 335 l 811 138 m 583 138 q 474 367 563 272 l 306 138 l 583 138 z "},"∢":{"ha":856,"x_min":40,"x_max":793,"o":"m 744 526 q 694 299 744 408 l 792 247 l 713 121 l 619 171 q 535 76 578 118 l 450 165 q 510 231 478 192 l 40 485 l 544 769 q 499 838 529 797 l 594 915 q 654 832 633 867 l 713 864 l 793 747 l 715 704 q 744 526 744 617 m 329 490 l 585 356 q 618 522 618 436 q 601 640 618 582 l 329 490 z "},"∣":{"ha":856,"x_min":357,"x_max":500,"o":"m 357 0 l 357 972 l 500 972 l 500 0 l 357 0 z "},"∤":{"ha":856,"x_min":164,"x_max":689,"o":"m 689 578 l 500 447 l 500 0 l 357 0 l 357 350 l 231 263 l 164 358 l 357 492 l 357 972 l 500 972 l 500 590 l 624 675 l 689 578 z "},"∥":{"ha":856,"x_min":235,"x_max":622,"o":"m 235 0 l 235 972 l 378 972 l 378 0 l 235 0 m 479 0 l 479 972 l 622 972 l 622 0 l 479 0 z "},"∦":{"ha":856,"x_min":33,"x_max":825,"o":"m 825 676 l 622 546 l 622 0 l 479 0 l 479 454 l 378 389 l 378 0 l 235 0 l 235 297 l 101 211 l 33 318 l 235 447 l 235 972 l 378 972 l 378 540 l 479 606 l 479 972 l 622 972 l 622 697 l 756 783 l 825 676 z "},"∧":{"ha":856,"x_min":76,"x_max":779,"o":"m 76 0 l 376 613 l 479 613 l 779 0 l 632 0 l 428 425 l 224 0 l 76 0 z "},"∨":{"ha":856,"x_min":76,"x_max":779,"o":"m 76 613 l 224 613 l 428 188 l 632 613 l 779 613 l 479 0 l 376 0 l 76 613 z "},"∩":{"ha":856,"x_min":71,"x_max":786,"o":"m 71 0 l 71 401 q 172 639 71 551 q 428 726 274 726 q 684 639 582 726 q 786 401 786 551 l 786 0 l 647 0 l 647 388 q 587 540 647 486 q 428 593 526 593 q 269 540 329 593 q 210 388 210 486 l 210 0 l 71 0 z "},"∪":{"ha":856,"x_min":64,"x_max":792,"o":"m 688 72 q 636 28 688 72 q 428 -17 585 -17 q 167 72 271 -17 q 64 315 64 161 l 64 710 l 203 710 l 203 329 q 265 173 203 228 q 428 118 326 118 q 591 173 529 118 q 653 329 653 228 l 653 710 l 792 710 l 792 315 q 688 72 792 161 z "},"∫":{"ha":856,"x_min":193,"x_max":663,"o":"m 336 -194 q 193 -162 257 -194 l 193 -53 q 294 -74 253 -74 q 358 -8 358 -74 l 358 825 q 518 989 358 989 q 663 956 599 989 l 663 846 q 561 868 599 868 q 497 801 497 868 l 497 -31 q 336 -194 497 -194 z "},"∬":{"ha":856,"x_min":-3,"x_max":860,"o":"m 140 -194 q -3 -162 61 -194 l -3 -53 q 99 -74 57 -74 q 163 -8 163 -74 l 163 825 q 322 989 163 989 q 467 956 403 989 l 467 846 q 365 868 403 868 q 301 801 301 868 l 301 -31 q 140 -194 301 -194 m 533 -194 q 390 -162 454 -194 l 390 -53 q 492 -74 450 -74 q 556 -8 556 -74 l 556 825 q 715 989 556 989 q 860 956 796 989 l 860 846 q 758 868 796 868 q 694 801 694 868 l 694 -31 q 533 -194 694 -194 z "},"∭":{"ha":1711,"x_min":208,"x_max":1504,"o":"m 351 -194 q 208 -162 272 -194 l 208 -53 q 310 -74 268 -74 q 374 -8 374 -74 l 374 825 q 533 989 374 989 q 678 956 614 989 l 678 846 q 576 868 614 868 q 513 801 513 868 l 513 -31 q 351 -194 513 -194 m 764 -194 q 621 -162 685 -194 l 621 -53 q 722 -74 681 -74 q 786 -8 786 -74 l 786 825 q 946 989 786 989 q 1090 956 1026 989 l 1090 846 q 989 868 1026 868 q 925 801 925 868 l 925 -31 q 764 -194 925 -194 m 1178 -194 q 1035 -162 1099 -194 l 1035 -53 q 1136 -74 1094 -74 q 1200 -8 1200 -74 l 1200 825 q 1360 989 1200 989 q 1504 956 1440 989 l 1504 846 q 1403 868 1440 868 q 1339 801 1339 868 l 1339 -31 q 1178 -194 1339 -194 z "},"∮":{"ha":856,"x_min":83,"x_max":774,"o":"m 695 614 q 734 566 695 614 q 774 394 774 518 q 695 175 774 271 q 497 56 617 79 l 497 -31 q 336 -194 497 -194 q 193 -162 257 -194 l 193 -53 q 294 -74 253 -74 q 358 -8 358 -74 l 358 56 q 162 175 240 79 q 83 394 83 271 q 162 614 83 518 q 358 733 240 710 l 358 825 q 518 989 358 989 q 663 956 599 989 l 663 846 q 561 868 599 868 q 497 801 497 868 l 497 733 q 695 614 617 710 m 497 199 q 597 274 558 219 q 635 394 635 328 q 597 515 635 461 q 497 590 558 568 l 497 199 m 222 394 q 260 274 222 328 q 358 199 299 219 l 358 590 q 260 514 299 568 q 222 394 222 460 z "},"∯":{"ha":1711,"x_min":328,"x_max":1385,"o":"m 1385 396 q 1322 239 1385 296 q 1122 158 1260 182 l 1122 -31 q 961 -194 1122 -194 q 818 -162 882 -194 l 818 -53 q 919 -74 878 -74 q 983 -8 983 -74 l 983 143 q 857 140 906 140 q 729 143 807 140 l 729 -31 q 568 -194 729 -194 q 425 -162 489 -194 l 425 -53 q 526 -74 486 -74 q 590 -8 590 -74 l 590 158 q 390 239 453 182 q 328 396 328 296 q 390 553 328 496 q 590 633 453 610 l 590 825 q 750 989 590 989 q 894 956 831 989 l 894 846 q 793 868 831 868 q 729 801 729 868 l 729 649 q 857 651 807 651 q 983 649 906 651 l 983 825 q 1143 989 983 989 q 1288 956 1224 989 l 1288 846 q 1186 868 1224 868 q 1122 801 1122 868 l 1122 633 q 1322 552 1258 610 q 1385 396 1385 494 m 857 278 q 983 281 908 278 l 983 511 q 857 514 908 514 q 729 511 804 514 l 729 281 q 857 278 804 278 m 1122 296 q 1217 333 1189 308 q 1246 396 1246 358 q 1122 496 1246 469 l 1122 296 m 467 396 q 495 333 467 358 q 590 296 524 308 l 590 496 q 467 396 467 469 z "},"∰":{"ha":1711,"x_min":21,"x_max":1694,"o":"m 1694 397 q 1611 216 1694 281 q 1339 124 1528 151 l 1339 -31 q 1178 -194 1339 -194 q 1035 -162 1099 -194 l 1035 -53 q 1136 -74 1094 -74 q 1200 -8 1200 -74 l 1200 108 q 925 97 1099 100 l 925 -31 q 764 -194 925 -194 q 621 -162 685 -194 l 621 -53 q 722 -74 681 -74 q 786 -8 786 -74 l 786 97 q 513 108 614 100 l 513 -31 q 351 -194 513 -194 q 208 -162 272 -194 l 208 -53 q 310 -74 268 -74 q 374 -8 374 -74 l 374 124 q 103 216 186 151 q 21 397 21 281 q 104 577 21 513 q 374 669 188 642 l 374 825 q 533 989 374 989 q 678 956 614 989 l 678 846 q 576 868 614 868 q 513 801 513 868 l 513 685 q 786 696 614 693 l 786 825 q 946 989 786 989 q 1090 956 1026 989 l 1090 846 q 989 868 1026 868 q 925 801 925 868 l 925 696 q 1200 685 1099 693 l 1200 825 q 1360 989 1200 989 q 1504 956 1440 989 l 1504 846 q 1403 868 1440 868 q 1339 801 1339 868 l 1339 669 q 1611 577 1528 642 q 1694 397 1694 513 m 925 235 q 1200 246 1103 238 l 1200 547 q 925 558 1103 556 l 925 235 m 513 246 q 786 235 610 238 l 786 558 q 513 547 610 556 l 513 246 m 1339 261 q 1505 313 1454 279 q 1556 397 1556 346 q 1505 481 1556 447 q 1339 532 1454 514 l 1339 261 m 160 397 q 210 314 160 347 q 374 261 260 281 l 374 532 q 160 397 160 496 z "}}}
